Aujournuit-Regular Wide.ufo
<glyph name="exclam" format="2">
  <advance width="200"/>
  <unicode hex="0021"/>
  <outline>
    <contour>
      <point x="50" y="657" type="curve" smooth="yes"/>
      <point x="50" y="579"/>
      <point x="76" y="385"/>
      <point x="76" y="234" type="curve" smooth="yes"/>
      <point x="76" y="226"/>
      <point x="73" y="215"/>
      <point x="87" y="215" type="curve" smooth="yes"/>
      <point x="100" y="215"/>
      <point x="98" y="225"/>
      <point x="98" y="234" type="curve" smooth="yes"/>
      <point x="98" y="385"/>
      <point x="124" y="581"/>
      <point x="124" y="661" type="curve" smooth="yes"/>
      <point x="124" y="694"/>
      <point x="115" y="710"/>
      <point x="86" y="710" type="curve" smooth="yes"/>
      <point x="59" y="710"/>
      <point x="50" y="692"/>
    </contour>
    <component base="period" xOffset="6"/>
  </outline>
</glyph>
<glyph name="numbersign" format="2">
  <advance width="1124"/>
  <unicode hex="0023"/>
  <outline>
    <contour>
      <point x="38" y="-10" type="curve" smooth="yes"/>
      <point x="43" y="-10"/>
      <point x="56" y="-5"/>
      <point x="70" y="6" type="curve" smooth="yes"/>
      <point x="81" y="15"/>
      <point x="86" y="24"/>
      <point x="97" y="36" type="curve" smooth="yes"/>
      <point x="266" y="210" type="line" smooth="yes"/>
      <point x="271" y="215"/>
      <point x="274" y="216"/>
      <point x="279" y="216" type="curve" smooth="yes"/>
      <point x="572" y="216" type="line" smooth="yes"/>
      <point x="581" y="216"/>
      <point x="582" y="207"/>
      <point x="577" y="201" type="curve" smooth="yes"/>
      <point x="380" y="0" type="line" smooth="yes"/>
      <point x="374" y="-7"/>
      <point x="383" y="-10"/>
      <point x="388" y="-10" type="curve" smooth="yes"/>
      <point x="393" y="-10"/>
      <point x="406" y="-5"/>
      <point x="420" y="6" type="curve" smooth="yes"/>
      <point x="431" y="15"/>
      <point x="436" y="24"/>
      <point x="447" y="36" type="curve" smooth="yes"/>
      <point x="616" y="210" type="line" smooth="yes"/>
      <point x="621" y="215"/>
      <point x="624" y="216"/>
      <point x="629" y="216" type="curve" smooth="yes"/>
      <point x="758" y="216" type="line" smooth="yes"/>
      <point x="768" y="216"/>
      <point x="774" y="217"/>
      <point x="785" y="224" type="curve" smooth="yes"/>
      <point x="792" y="228"/>
      <point x="798" y="231"/>
      <point x="798" y="233" type="curve" smooth="yes"/>
      <point x="798" y="235"/>
      <point x="793" y="235"/>
      <point x="789" y="235" type="curve" smooth="yes"/>
      <point x="659" y="235" type="line" smooth="yes"/>
      <point x="649" y="235"/>
      <point x="650" y="245"/>
      <point x="655" y="250" type="curve" smooth="yes"/>
      <point x="848" y="449" type="line" smooth="yes"/>
      <point x="853" y="454"/>
      <point x="856" y="455"/>
      <point x="861" y="455" type="curve" smooth="yes"/>
      <point x="954" y="455" type="line" smooth="yes"/>
      <point x="964" y="455"/>
      <point x="970" y="456"/>
      <point x="981" y="463" type="curve" smooth="yes"/>
      <point x="988" y="467"/>
      <point x="994" y="470"/>
      <point x="994" y="472" type="curve" smooth="yes"/>
      <point x="994" y="474"/>
      <point x="989" y="474"/>
      <point x="985" y="474" type="curve" smooth="yes"/>
      <point x="892" y="474" type="line" smooth="yes"/>
      <point x="883" y="474"/>
      <point x="882" y="483"/>
      <point x="887" y="489" type="curve" smooth="yes"/>
      <point x="1094" y="700" type="line" smooth="yes"/>
      <point x="1101" y="708"/>
      <point x="1093" y="710"/>
      <point x="1088" y="710" type="curve" smooth="yes"/>
      <point x="1083" y="710"/>
      <point x="1070" y="705"/>
      <point x="1056" y="694" type="curve" smooth="yes"/>
      <point x="1045" y="685"/>
      <point x="1038" y="676"/>
      <point x="1027" y="664" type="curve" smooth="yes"/>
      <point x="848" y="480" type="line" smooth="yes"/>
      <point x="843" y="475"/>
      <point x="840" y="474"/>
      <point x="835" y="474" type="curve" smooth="yes"/>
      <point x="542" y="474" type="line" smooth="yes"/>
      <point x="533" y="474"/>
      <point x="532" y="483"/>
      <point x="537" y="489" type="curve" smooth="yes"/>
      <point x="744" y="700" type="line" smooth="yes"/>
      <point x="751" y="708"/>
      <point x="743" y="710"/>
      <point x="738" y="710" type="curve" smooth="yes"/>
      <point x="733" y="710"/>
      <point x="720" y="705"/>
      <point x="706" y="694" type="curve" smooth="yes"/>
      <point x="695" y="685"/>
      <point x="688" y="676"/>
      <point x="677" y="664" type="curve" smooth="yes"/>
      <point x="498" y="480" type="line" smooth="yes"/>
      <point x="493" y="475"/>
      <point x="490" y="474"/>
      <point x="485" y="474" type="curve" smooth="yes"/>
      <point x="342" y="474" type="line" smooth="yes"/>
      <point x="332" y="474"/>
      <point x="326" y="473"/>
      <point x="315" y="466" type="curve" smooth="yes"/>
      <point x="308" y="462"/>
      <point x="302" y="459"/>
      <point x="302" y="457" type="curve" smooth="yes"/>
      <point x="302" y="455"/>
      <point x="307" y="455"/>
      <point x="311" y="455" type="curve" smooth="yes"/>
      <point x="455" y="455" type="line" smooth="yes"/>
      <point x="464" y="455"/>
      <point x="465" y="446"/>
      <point x="460" y="440" type="curve" smooth="yes"/>
      <point x="266" y="241" type="line" smooth="yes"/>
      <point x="261" y="236"/>
      <point x="258" y="235"/>
      <point x="253" y="235" type="curve" smooth="yes"/>
      <point x="126" y="235" type="line" smooth="yes"/>
      <point x="116" y="235"/>
      <point x="110" y="234"/>
      <point x="99" y="227" type="curve" smooth="yes"/>
      <point x="92" y="223"/>
      <point x="86" y="220"/>
      <point x="86" y="218" type="curve" smooth="yes"/>
      <point x="86" y="216"/>
      <point x="91" y="216"/>
      <point x="95" y="216" type="curve" smooth="yes"/>
      <point x="222" y="216" type="line" smooth="yes"/>
      <point x="231" y="216"/>
      <point x="232" y="207"/>
      <point x="227" y="201" type="curve" smooth="yes"/>
      <point x="30" y="0" type="line" smooth="yes"/>
      <point x="24" y="-7"/>
      <point x="33" y="-10"/>
    </contour>
    <contour>
      <point x="603" y="235" type="curve" smooth="yes"/>
      <point x="309" y="235" type="line"/>
      <point x="299" y="235"/>
      <point x="300" y="245"/>
      <point x="305" y="250" type="curve" smooth="yes"/>
      <point x="498" y="449" type="line" smooth="yes"/>
      <point x="503" y="454"/>
      <point x="506" y="455"/>
      <point x="511" y="455" type="curve" smooth="yes"/>
      <point x="805" y="455" type="line" smooth="yes"/>
      <point x="814" y="455"/>
      <point x="815" y="446"/>
      <point x="810" y="440" type="curve" smooth="yes"/>
      <point x="616" y="241" type="line" smooth="yes"/>
      <point x="611" y="236"/>
      <point x="608" y="235"/>
    </contour>
  </outline>
</glyph>
<glyph name="dollar" format="2">
  <advance width="660"/>
  <unicode hex="0024"/>
  <outline>
    <contour>
      <point x="328" y="-88" type="curve" smooth="yes"/>
      <point x="338" y="-88"/>
      <point x="339" y="-85"/>
      <point x="339" y="-69" type="curve" smooth="yes"/>
      <point x="339" y="-53"/>
      <point x="339" y="-38"/>
      <point x="339" y="-22" type="curve" smooth="yes"/>
      <point x="339" y="-11"/>
      <point x="341" y="-10"/>
      <point x="356" y="-10" type="curve" smooth="yes"/>
      <point x="534" y="-10"/>
      <point x="633" y="60"/>
      <point x="633" y="180" type="curve" smooth="yes"/>
      <point x="633" y="316"/>
      <point x="464" y="369"/>
      <point x="350" y="406" type="curve" smooth="yes"/>
      <point x="345" y="408"/>
      <point x="342" y="411"/>
      <point x="342" y="419" type="curve" smooth="yes"/>
      <point x="342" y="508"/>
      <point x="342" y="597"/>
      <point x="343" y="685" type="curve" smooth="yes"/>
      <point x="343" y="694"/>
      <point x="346" y="697"/>
      <point x="352" y="697" type="curve" smooth="yes"/>
      <point x="522" y="695"/>
      <point x="587" y="643"/>
      <point x="587" y="509" type="curve" smooth="yes"/>
      <point x="587" y="490"/>
      <point x="585" y="480"/>
      <point x="598" y="480" type="curve" smooth="yes"/>
      <point x="605" y="480"/>
      <point x="609" y="483"/>
      <point x="609" y="491" type="curve" smooth="yes"/>
      <point x="609" y="502"/>
      <point x="602" y="552"/>
      <point x="602" y="615" type="curve" smooth="yes"/>
      <point x="602" y="662"/>
      <point x="606" y="686"/>
      <point x="608" y="692" type="curve"/>
      <point x="611" y="709"/>
      <point x="604" y="710"/>
      <point x="598" y="710" type="curve" smooth="yes"/>
      <point x="579" y="710"/>
      <point x="589" y="688"/>
      <point x="567" y="688" type="curve" smooth="yes"/>
      <point x="508" y="688"/>
      <point x="472" y="707"/>
      <point x="352" y="710" type="curve" smooth="yes"/>
      <point x="346" y="710"/>
      <point x="343" y="714"/>
      <point x="343" y="722" type="curve" smooth="yes"/>
      <point x="343" y="752" type="line" smooth="yes"/>
      <point x="343" y="768"/>
      <point x="342" y="771"/>
      <point x="332" y="771" type="curve" smooth="yes"/>
      <point x="322" y="771"/>
      <point x="321" y="768"/>
      <point x="321" y="752" type="curve" smooth="yes"/>
      <point x="321" y="722" type="line" smooth="yes"/>
      <point x="321" y="713"/>
      <point x="318" y="710"/>
      <point x="312" y="710" type="curve" smooth="yes"/>
      <point x="139" y="707"/>
      <point x="27" y="651"/>
      <point x="27" y="546" type="curve" smooth="yes"/>
      <point x="27" y="422"/>
      <point x="211" y="379"/>
      <point x="310" y="347" type="curve" smooth="yes"/>
      <point x="316" y="345"/>
      <point x="318" y="343"/>
      <point x="318" y="334" type="curve" smooth="yes"/>
      <point x="319" y="230"/>
      <point x="318" y="123"/>
      <point x="317" y="19" type="curve" smooth="yes"/>
      <point x="317" y="9"/>
      <point x="314" y="7"/>
      <point x="307" y="7" type="curve" smooth="yes"/>
      <point x="112" y="13"/>
      <point x="52" y="59"/>
      <point x="52" y="191" type="curve" smooth="yes"/>
      <point x="52" y="210"/>
      <point x="54" y="220"/>
      <point x="41" y="220" type="curve" smooth="yes"/>
      <point x="34" y="220"/>
      <point x="30" y="217"/>
      <point x="30" y="209" type="curve" smooth="yes"/>
      <point x="30" y="198"/>
      <point x="37" y="132"/>
      <point x="37" y="73" type="curve" smooth="yes"/>
      <point x="37" y="28"/>
      <point x="33" y="14"/>
      <point x="31" y="8" type="curve"/>
      <point x="28" y="-9"/>
      <point x="35" y="-10"/>
      <point x="41" y="-10" type="curve" smooth="yes"/>
      <point x="60" y="-10"/>
      <point x="50" y="12"/>
      <point x="72" y="12" type="curve" smooth="yes"/>
      <point x="138" y="12"/>
      <point x="178" y="-6"/>
      <point x="308" y="-10" type="curve" smooth="yes"/>
      <point x="314" y="-10"/>
      <point x="317" y="-13"/>
      <point x="317" y="-22" type="curve" smooth="yes"/>
      <point x="317" y="-69" type="line" smooth="yes"/>
      <point x="317" y="-85"/>
      <point x="318" y="-88"/>
    </contour>
    <contour>
      <point x="354" y="7" type="curve" smooth="yes"/>
      <point x="340" y="7"/>
      <point x="338" y="8"/>
      <point x="338" y="19" type="curve" smooth="yes"/>
      <point x="338" y="119"/>
      <point x="337" y="224"/>
      <point x="338" y="325" type="curve" smooth="yes"/>
      <point x="338" y="335"/>
      <point x="340" y="337"/>
      <point x="348" y="334" type="curve" smooth="yes"/>
      <point x="521" y="273"/>
      <point x="576" y="223"/>
      <point x="576" y="148" type="curve" smooth="yes"/>
      <point x="576" y="58"/>
      <point x="497" y="7"/>
    </contour>
    <contour>
      <point x="311" y="419" type="curve" smooth="yes"/>
      <point x="127" y="478"/>
      <point x="81" y="514"/>
      <point x="81" y="572" type="curve" smooth="yes"/>
      <point x="81" y="646"/>
      <point x="159" y="689"/>
      <point x="300" y="696" type="curve" smooth="yes"/>
      <point x="314" y="697"/>
      <point x="321" y="694"/>
      <point x="321" y="685" type="curve" smooth="yes"/>
      <point x="322" y="600"/>
      <point x="322" y="515"/>
      <point x="322" y="428" type="curve" smooth="yes"/>
      <point x="322" y="416"/>
      <point x="321" y="416"/>
    </contour>
  </outline>
</glyph>
<glyph name="ampersand" format="2">
  <advance width="1026"/>
  <unicode hex="0026"/>
  <outline>
    <contour>
      <point x="429" y="-13" type="curve" smooth="yes"/>
      <point x="508" y="-13"/>
      <point x="578" y="1"/>
      <point x="638" y="27" type="curve" smooth="yes"/>
      <point x="641" y="29"/>
      <point x="643" y="29"/>
      <point x="649" y="27" type="curve" smooth="yes"/>
      <point x="705" y="3"/>
      <point x="765" y="-10"/>
      <point x="824" y="-10" type="curve" smooth="yes"/>
      <point x="931" y="-10"/>
      <point x="1007" y="19"/>
      <point x="1026" y="87" type="curve" smooth="yes"/>
      <point x="1039" y="133"/>
      <point x="1029" y="168"/>
      <point x="997" y="168" type="curve" smooth="yes"/>
      <point x="967" y="168"/>
      <point x="959" y="150"/>
      <point x="956" y="114" type="curve" smooth="yes"/>
      <point x="948" y="31"/>
      <point x="905" y="4"/>
      <point x="822" y="4" type="curve" smooth="yes"/>
      <point x="777" y="4"/>
      <point x="732" y="16"/>
      <point x="685" y="38" type="curve" smooth="yes"/>
      <point x="677" y="42"/>
      <point x="676" y="49"/>
      <point x="683" y="52" type="curve"/>
      <point x="745" y="91"/>
      <point x="794" y="144"/>
      <point x="826" y="212" type="curve" smooth="yes"/>
      <point x="863" y="288"/>
      <point x="870" y="326"/>
      <point x="941" y="326" type="curve" smooth="yes"/>
      <point x="951" y="326"/>
      <point x="986" y="327"/>
      <point x="985" y="340" type="curve" smooth="yes"/>
      <point x="984" y="347"/>
      <point x="979" y="349"/>
      <point x="968" y="349" type="curve" smooth="yes"/>
      <point x="931" y="347"/>
      <point x="885" y="334"/>
      <point x="792" y="334" type="curve" smooth="yes"/>
      <point x="697" y="334"/>
      <point x="607" y="348"/>
      <point x="579" y="348" type="curve" smooth="yes"/>
      <point x="565" y="348"/>
      <point x="560" y="342"/>
      <point x="561" y="336" type="curve" smooth="yes"/>
      <point x="562" y="329"/>
      <point x="570" y="324"/>
      <point x="596" y="324" type="curve" smooth="yes"/>
      <point x="780" y="324"/>
      <point x="836" y="300"/>
      <point x="807" y="228" type="curve" smooth="yes"/>
      <point x="776" y="151"/>
      <point x="725" y="94"/>
      <point x="659" y="57" type="curve" smooth="yes"/>
      <point x="654" y="55"/>
      <point x="653" y="55"/>
      <point x="648" y="58" type="curve" smooth="yes"/>
      <point x="551" y="116"/>
      <point x="457" y="218"/>
      <point x="385" y="350" type="curve"/>
      <point x="381" y="355"/>
      <point x="382" y="361"/>
      <point x="386" y="363" type="curve" smooth="yes"/>
      <point x="402" y="370"/>
      <point x="418" y="376"/>
      <point x="435" y="383" type="curve" smooth="yes"/>
      <point x="661" y="469"/>
      <point x="730" y="519"/>
      <point x="729" y="582" type="curve" smooth="yes"/>
      <point x="728" y="659"/>
      <point x="632" y="710"/>
      <point x="489" y="710" type="curve" smooth="yes"/>
      <point x="264" y="710"/>
      <point x="180" y="580"/>
      <point x="292" y="366" type="curve" smooth="yes"/>
      <point x="296" y="359"/>
      <point x="295" y="354"/>
      <point x="290" y="352" type="curve" smooth="yes"/>
      <point x="117" y="283"/>
      <point x="57" y="218"/>
      <point x="69" y="139" type="curve" smooth="yes"/>
      <point x="86" y="32"/>
      <point x="204" y="-13"/>
    </contour>
    <contour>
      <point x="155" y="141" type="curve" smooth="yes"/>
      <point x="144" y="210"/>
      <point x="179" y="264"/>
      <point x="297" y="323" type="curve" smooth="yes"/>
      <point x="311" y="330"/>
      <point x="313" y="330"/>
      <point x="317" y="323" type="curve" smooth="yes"/>
      <point x="390" y="202"/>
      <point x="494" y="105"/>
      <point x="605" y="47" type="curve" smooth="yes"/>
      <point x="614" y="43"/>
      <point x="618" y="37"/>
      <point x="607" y="33" type="curve" smooth="yes"/>
      <point x="559" y="16"/>
      <point x="507" y="7"/>
      <point x="448" y="7" type="curve" smooth="yes"/>
      <point x="273" y="7"/>
      <point x="169" y="50"/>
    </contour>
    <contour>
      <point x="363" y="391" type="curve"/>
      <point x="271" y="583"/>
      <point x="333" y="694"/>
      <point x="492" y="694" type="curve" smooth="yes"/>
      <point x="577" y="694"/>
      <point x="645" y="652"/>
      <point x="650" y="585" type="curve" smooth="yes"/>
      <point x="656" y="504"/>
      <point x="567" y="455"/>
      <point x="373" y="384" type="curve" smooth="yes"/>
      <point x="367" y="382"/>
      <point x="367" y="382"/>
    </contour>
  </outline>
</glyph>
<glyph name="parenleft" format="2">
  <advance width="204"/>
  <unicode hex="0028"/>
  <outline>
    <contour>
      <point x="27" y="342" type="curve" smooth="yes"/>
      <point x="27" y="174"/>
      <point x="84" y="13"/>
      <point x="175" y="-78" type="curve" smooth="yes"/>
      <point x="182" y="-84"/>
      <point x="185" y="-86"/>
      <point x="190" y="-86" type="curve" smooth="yes"/>
      <point x="193" y="-86"/>
      <point x="197" y="-85"/>
      <point x="197" y="-83" type="curve" smooth="yes"/>
      <point x="197" y="-81"/>
      <point x="195" y="-80"/>
      <point x="187" y="-69" type="curve" smooth="yes"/>
      <point x="128" y="13"/>
      <point x="94" y="162"/>
      <point x="94" y="342" type="curve" smooth="yes"/>
      <point x="94" y="522"/>
      <point x="128" y="671"/>
      <point x="187" y="753" type="curve" smooth="yes"/>
      <point x="195" y="764"/>
      <point x="197" y="765"/>
      <point x="197" y="767" type="curve" smooth="yes"/>
      <point x="197" y="769"/>
      <point x="193" y="770"/>
      <point x="190" y="770" type="curve" smooth="yes"/>
      <point x="185" y="770"/>
      <point x="182" y="768"/>
      <point x="175" y="762" type="curve" smooth="yes"/>
      <point x="84" y="671"/>
      <point x="27" y="510"/>
    </contour>
  </outline>
</glyph>
<glyph name="parenright" format="2">
  <advance width="204"/>
  <unicode hex="0029"/>
  <outline>
    <contour>
      <point x="177" y="342" type="curve" smooth="yes"/>
      <point x="177" y="510"/>
      <point x="120" y="671"/>
      <point x="29" y="762" type="curve" smooth="yes"/>
      <point x="22" y="768"/>
      <point x="19" y="770"/>
      <point x="14" y="770" type="curve" smooth="yes"/>
      <point x="11" y="770"/>
      <point x="7" y="769"/>
      <point x="7" y="767" type="curve" smooth="yes"/>
      <point x="7" y="765"/>
      <point x="9" y="764"/>
      <point x="17" y="753" type="curve" smooth="yes"/>
      <point x="76" y="671"/>
      <point x="110" y="522"/>
      <point x="110" y="342" type="curve" smooth="yes"/>
      <point x="110" y="162"/>
      <point x="76" y="13"/>
      <point x="17" y="-69" type="curve" smooth="yes"/>
      <point x="9" y="-80"/>
      <point x="7" y="-81"/>
      <point x="7" y="-83" type="curve" smooth="yes"/>
      <point x="7" y="-85"/>
      <point x="11" y="-86"/>
      <point x="14" y="-86" type="curve" smooth="yes"/>
      <point x="19" y="-86"/>
      <point x="22" y="-84"/>
      <point x="29" y="-78" type="curve" smooth="yes"/>
      <point x="120" y="13"/>
      <point x="177" y="174"/>
    </contour>
  </outline>
</glyph>
<glyph name="asterisk" format="2">
  <advance width="373"/>
  <unicode hex="002A"/>
  <outline>
    <contour>
      <point x="211" y="682" type="curve" smooth="yes"/>
      <point x="211" y="699"/>
      <point x="202" y="711"/>
      <point x="186" y="711" type="curve" smooth="yes"/>
      <point x="170" y="711"/>
      <point x="161" y="699"/>
      <point x="161" y="682" type="curve" smooth="yes"/>
      <point x="161" y="644"/>
      <point x="176" y="592"/>
      <point x="176" y="551" type="curve" smooth="yes"/>
      <point x="176" y="545"/>
      <point x="178" y="535"/>
      <point x="168" y="541" type="curve"/>
      <point x="168" y="511" type="line"/>
      <point x="204" y="511" type="line"/>
      <point x="204" y="541" type="line"/>
      <point x="194" y="535"/>
      <point x="196" y="545"/>
      <point x="196" y="551" type="curve" smooth="yes"/>
      <point x="196" y="592"/>
      <point x="211" y="644"/>
    </contour>
    <contour>
      <point x="61" y="624" type="curve" smooth="yes"/>
      <point x="46" y="632"/>
      <point x="31" y="630"/>
      <point x="23" y="616" type="curve" smooth="yes"/>
      <point x="15" y="603"/>
      <point x="21" y="589"/>
      <point x="36" y="580" type="curve" smooth="yes"/>
      <point x="68" y="561"/>
      <point x="121" y="548"/>
      <point x="157" y="528" type="curve" smooth="yes"/>
      <point x="162" y="525"/>
      <point x="171" y="522"/>
      <point x="161" y="516" type="curve"/>
      <point x="187" y="501" type="line"/>
      <point x="205" y="532" type="line"/>
      <point x="179" y="547" type="line"/>
      <point x="179" y="535"/>
      <point x="172" y="542"/>
      <point x="167" y="545" type="curve" smooth="yes"/>
      <point x="131" y="566"/>
      <point x="93" y="605"/>
    </contour>
    <contour>
      <point x="162" y="362" type="curve" smooth="yes"/>
      <point x="162" y="345"/>
      <point x="171" y="333"/>
      <point x="187" y="333" type="curve" smooth="yes"/>
      <point x="203" y="333"/>
      <point x="212" y="345"/>
      <point x="212" y="362" type="curve" smooth="yes"/>
      <point x="212" y="400"/>
      <point x="197" y="452"/>
      <point x="197" y="493" type="curve" smooth="yes"/>
      <point x="197" y="499"/>
      <point x="195" y="509"/>
      <point x="205" y="503" type="curve"/>
      <point x="205" y="533" type="line"/>
      <point x="169" y="533" type="line"/>
      <point x="169" y="503" type="line"/>
      <point x="179" y="509"/>
      <point x="177" y="499"/>
      <point x="177" y="493" type="curve" smooth="yes"/>
      <point x="177" y="452"/>
      <point x="162" y="400"/>
    </contour>
    <contour>
      <point x="312" y="420" type="curve" smooth="yes"/>
      <point x="327" y="412"/>
      <point x="342" y="414"/>
      <point x="350" y="428" type="curve" smooth="yes"/>
      <point x="358" y="441"/>
      <point x="352" y="455"/>
      <point x="337" y="464" type="curve" smooth="yes"/>
      <point x="305" y="483"/>
      <point x="252" y="496"/>
      <point x="216" y="516" type="curve" smooth="yes"/>
      <point x="211" y="519"/>
      <point x="202" y="522"/>
      <point x="212" y="528" type="curve"/>
      <point x="186" y="543" type="line"/>
      <point x="168" y="512" type="line"/>
      <point x="194" y="497" type="line"/>
      <point x="194" y="509"/>
      <point x="201" y="502"/>
      <point x="206" y="499" type="curve" smooth="yes"/>
      <point x="242" y="478"/>
      <point x="280" y="439"/>
    </contour>
    <component base="_astriskside" xScale="0.5" xyScale="-0.866" yScale="0.5" yxScale="0.866" xOffset="-294" yOffset="292" identifier="AD950716"/>
    <component base="_astriskside" xScale="-0.5" xyScale="0.866" yScale="-0.5" yxScale="-0.866" xOffset="667" yOffset="752" identifier="097F4D2E"/>
  </outline>
</glyph>
<glyph name="plus" format="2">
  <advance width="432"/>
  <unicode hex="002B"/>
  <outline>
    <contour>
      <point x="39" y="339" type="curve" smooth="yes"/>
      <point x="103" y="341"/>
      <point x="327" y="341"/>
      <point x="391" y="339" type="curve" smooth="yes"/>
      <point x="401" y="339"/>
      <point x="404" y="344"/>
      <point x="405" y="351" type="curve" smooth="yes"/>
      <point x="406" y="362"/>
      <point x="404" y="367"/>
      <point x="393" y="367" type="curve" smooth="yes"/>
      <point x="332" y="365"/>
      <point x="108" y="365"/>
      <point x="44" y="367" type="curve" smooth="yes"/>
      <point x="33" y="367"/>
      <point x="27" y="359"/>
      <point x="27" y="347" type="curve" smooth="yes"/>
      <point x="27" y="343"/>
      <point x="31" y="339"/>
    </contour>
    <contour>
      <point x="198" y="528" type="curve" smooth="yes"/>
      <point x="200" y="464"/>
      <point x="200" y="240"/>
      <point x="198" y="176" type="curve" smooth="yes"/>
      <point x="198" y="170"/>
      <point x="203" y="166"/>
      <point x="213" y="165" type="curve" smooth="yes"/>
      <point x="225" y="164"/>
      <point x="231" y="167"/>
      <point x="231" y="174" type="curve" smooth="yes"/>
      <point x="229" y="235"/>
      <point x="229" y="459"/>
      <point x="231" y="523" type="curve" smooth="yes"/>
      <point x="231" y="530"/>
      <point x="223" y="537"/>
      <point x="209" y="537" type="curve" smooth="yes"/>
      <point x="204" y="537"/>
      <point x="198" y="535"/>
    </contour>
  </outline>
</glyph>
<glyph name="comma" format="2">
  <advance width="196"/>
  <unicode hex="002C"/>
  <outline>
    <contour>
      <point x="91" y="-6" type="curve" smooth="yes"/>
      <point x="108" y="-12"/>
      <point x="111" y="-19"/>
      <point x="105" y="-33" type="curve" smooth="yes"/>
      <point x="99" y="-50"/>
      <point x="79" y="-68"/>
      <point x="57" y="-89" type="curve" smooth="yes"/>
      <point x="45" y="-101"/>
      <point x="48" y="-115"/>
      <point x="60" y="-115" type="curve" smooth="yes"/>
      <point x="65" y="-115"/>
      <point x="70" y="-113"/>
      <point x="75" y="-107" type="curve" smooth="yes"/>
      <point x="121" y="-60"/>
      <point x="146" y="-10"/>
      <point x="146" y="34" type="curve" smooth="yes"/>
      <point x="146" y="67"/>
      <point x="127" y="86"/>
      <point x="98" y="86" type="curve" smooth="yes"/>
      <point x="72" y="86"/>
      <point x="52" y="69"/>
      <point x="52" y="40" type="curve" smooth="yes"/>
      <point x="52" y="20"/>
      <point x="65" y="3"/>
    </contour>
  </outline>
</glyph>
<glyph name="hyphen" format="2">
  <advance width="455"/>
  <unicode hex="002D"/>
  <outline>
    <contour>
      <point x="39" y="228" type="curve" smooth="yes"/>
      <point x="103" y="230"/>
      <point x="347" y="230"/>
      <point x="411" y="228" type="curve" smooth="yes"/>
      <point x="421" y="228"/>
      <point x="424" y="233"/>
      <point x="425" y="240" type="curve" smooth="yes"/>
      <point x="426" y="250"/>
      <point x="428" y="270"/>
      <point x="428" y="273" type="curve" smooth="yes"/>
      <point x="428" y="277"/>
      <point x="424" y="281"/>
      <point x="416" y="281" type="curve" smooth="yes"/>
      <point x="352" y="279"/>
      <point x="108" y="279"/>
      <point x="44" y="281" type="curve" smooth="yes"/>
      <point x="34" y="281"/>
      <point x="31" y="276"/>
      <point x="30" y="269" type="curve" smooth="yes"/>
      <point x="29" y="259"/>
      <point x="27" y="239"/>
      <point x="27" y="236" type="curve" smooth="yes"/>
      <point x="27" y="232"/>
      <point x="31" y="228"/>
    </contour>
  </outline>
</glyph>
<glyph name="period" format="2">
  <advance width="194"/>
  <unicode hex="002E"/>
  <anchor x="95" y="76" name="top"/>
  <outline>
    <contour>
      <point x="97" y="-3" type="curve" smooth="yes"/>
      <point x="126" y="-3"/>
      <point x="144" y="14"/>
      <point x="144" y="39" type="curve" smooth="yes"/>
      <point x="144" y="64"/>
      <point x="126" y="83"/>
      <point x="97" y="83" type="curve" smooth="yes"/>
      <point x="69" y="83"/>
      <point x="50" y="65"/>
      <point x="50" y="39" type="curve" smooth="yes"/>
      <point x="50" y="14"/>
      <point x="67" y="-3"/>
    </contour>
  </outline>
</glyph>
<glyph name="slash" format="2">
  <advance width="753"/>
  <unicode hex="002F"/>
  <outline>
    <contour>
      <point x="27" y="-10" type="curve" smooth="yes"/>
      <point x="48" y="-10"/>
      <point x="69" y="18"/>
      <point x="86" y="36" type="curve" smooth="yes"/>
      <point x="302" y="258"/>
      <point x="517" y="480"/>
      <point x="733" y="700" type="curve" smooth="yes"/>
      <point x="740" y="708"/>
      <point x="732" y="710"/>
      <point x="727" y="710" type="curve" smooth="yes"/>
      <point x="708" y="710"/>
      <point x="683" y="682"/>
      <point x="666" y="664" type="curve" smooth="yes"/>
      <point x="450" y="442"/>
      <point x="235" y="220"/>
      <point x="19" y="0" type="curve" smooth="yes"/>
      <point x="13" y="-7"/>
      <point x="22" y="-10"/>
    </contour>
  </outline>
</glyph>
<glyph name="zero" format="2">
  <advance width="613"/>
  <unicode hex="0030"/>
  <outline>
    <contour>
      <point x="310" y="-10" type="curve" smooth="yes"/>
      <point x="453" y="-10"/>
      <point x="566" y="147"/>
      <point x="566" y="346" type="curve" smooth="yes"/>
      <point x="566" y="550"/>
      <point x="450" y="710"/>
      <point x="303" y="710" type="curve" smooth="yes"/>
      <point x="160" y="710"/>
      <point x="47" y="553"/>
      <point x="47" y="353" type="curve" smooth="yes"/>
      <point x="47" y="150"/>
      <point x="163" y="-10"/>
    </contour>
    <contour>
      <point x="113" y="426" type="curve" smooth="yes"/>
      <point x="113" y="587"/>
      <point x="187" y="694"/>
      <point x="298" y="694" type="curve" smooth="yes"/>
      <point x="419" y="694"/>
      <point x="500" y="527"/>
      <point x="500" y="276" type="curve" smooth="yes"/>
      <point x="500" y="116"/>
      <point x="426" y="10"/>
      <point x="315" y="10" type="curve" smooth="yes"/>
      <point x="194" y="10"/>
      <point x="113" y="176"/>
    </contour>
  </outline>
</glyph>
<glyph name="one" format="2">
  <advance width="405"/>
  <unicode hex="0031"/>
  <outline>
    <contour>
      <point x="210" y="544" type="curve" smooth="yes"/>
      <point x="209" y="329" type="line"/>
      <point x="267" y="329" type="line"/>
      <point x="267" y="535" type="line" smooth="yes"/>
      <point x="267" y="580"/>
      <point x="269" y="690"/>
      <point x="269" y="701" type="curve" smooth="yes"/>
      <point x="269" y="708"/>
      <point x="266" y="710"/>
      <point x="259" y="710" type="curve" smooth="yes"/>
      <point x="253" y="710"/>
      <point x="250" y="708"/>
      <point x="248" y="699" type="curve" smooth="yes"/>
      <point x="221" y="612"/>
      <point x="131" y="532"/>
      <point x="52" y="517" type="curve" smooth="yes"/>
      <point x="38" y="515"/>
      <point x="35" y="500"/>
      <point x="51" y="500" type="curve" smooth="yes"/>
      <point x="87" y="500"/>
      <point x="181" y="567"/>
      <point x="200" y="567" type="curve" smooth="yes"/>
      <point x="212" y="567"/>
      <point x="210" y="560"/>
    </contour>
    <component base="_stem.short" xOffset="133"/>
    <contour>
      <point x="209" y="80" type="line"/>
      <point x="209" y="73" type="line"/>
      <point x="212" y="4"/>
      <point x="184" y="15"/>
      <point x="69" y="15" type="curve"/>
      <point x="65" y="15"/>
      <point x="61" y="12"/>
      <point x="61" y="6" type="curve"/>
      <point x="61" y="-1"/>
      <point x="65" y="-3"/>
      <point x="71" y="-3" type="curve"/>
      <point x="181" y="-3"/>
      <point x="209" y="0"/>
      <point x="239" y="0" type="curve"/>
      <point x="237" y="0" type="line"/>
      <point x="269" y="0"/>
      <point x="298" y="-5"/>
      <point x="356" y="-5" type="curve"/>
      <point x="362" y="-5"/>
      <point x="365" y="-3"/>
      <point x="365" y="4" type="curve"/>
      <point x="365" y="10"/>
      <point x="362" y="13"/>
      <point x="356" y="13" type="curve"/>
      <point x="291" y="13"/>
      <point x="264" y="10"/>
      <point x="267" y="71" type="curve"/>
      <point x="267" y="80" type="line"/>
    </contour>
  </outline>
</glyph>
<glyph name="two" format="2">
  <advance width="647"/>
  <unicode hex="0032"/>
  <outline>
    <component base="_tip" xOffset="60"/>
    <contour>
      <point x="123" y="59" type="curve" smooth="yes"/>
      <point x="122" y="62"/>
      <point x="126" y="67"/>
      <point x="131" y="72" type="curve" smooth="yes"/>
      <point x="359" y="298"/>
      <point x="595" y="472"/>
      <point x="595" y="582" type="curve" smooth="yes"/>
      <point x="595" y="660"/>
      <point x="498" y="710"/>
      <point x="346" y="710" type="curve" smooth="yes"/>
      <point x="284" y="710"/>
      <point x="159" y="688"/>
      <point x="135" y="688" type="curve" smooth="yes"/>
      <point x="117" y="688" type="line"/>
      <point x="97" y="508" type="line"/>
      <point x="115" y="509" type="line"/>
      <point x="115" y="646"/>
      <point x="181" y="697"/>
      <point x="352" y="697" type="curve" smooth="yes"/>
      <point x="462" y="697"/>
      <point x="531" y="655"/>
      <point x="531" y="568" type="curve" smooth="yes"/>
      <point x="531" y="461"/>
      <point x="443" y="401"/>
      <point x="161" y="132" type="curve" smooth="yes"/>
      <point x="142" y="113"/>
      <point x="104" y="75"/>
      <point x="80" y="51" type="curve" smooth="yes"/>
      <point x="49" y="20"/>
      <point x="40" y="10"/>
      <point x="40" y="0" type="curve" smooth="yes"/>
      <point x="40" y="-8"/>
      <point x="45" y="-11"/>
      <point x="51" y="-11" type="curve" smooth="yes"/>
      <point x="65" y="-11"/>
      <point x="77" y="10"/>
      <point x="111" y="29" type="curve" smooth="yes"/>
      <point x="193" y="74"/>
      <point x="258" y="71"/>
      <point x="339" y="31" type="curve" smooth="yes"/>
      <point x="394" y="4"/>
      <point x="442" y="-13"/>
      <point x="489" y="-13" type="curve" smooth="yes"/>
      <point x="558" y="-13"/>
      <point x="593" y="18"/>
      <point x="605" y="70" type="curve" smooth="yes"/>
      <point x="607" y="80"/>
      <point x="611" y="93"/>
      <point x="598" y="93" type="curve" smooth="yes"/>
      <point x="590" y="93"/>
      <point x="587" y="89"/>
      <point x="585" y="75" type="curve" smooth="yes"/>
      <point x="581" y="48"/>
      <point x="551" y="30"/>
      <point x="515" y="30" type="curve" smooth="yes"/>
      <point x="485" y="30"/>
      <point x="463" y="37"/>
      <point x="405" y="66" type="curve" smooth="yes"/>
      <point x="303" y="117"/>
      <point x="236" y="116"/>
      <point x="132" y="60" type="curve" smooth="yes"/>
      <point x="128" y="58"/>
      <point x="124" y="56"/>
    </contour>
  </outline>
</glyph>
<glyph name="three" format="2">
  <advance width="622"/>
  <unicode hex="0033"/>
  <outline>
    <contour>
      <point x="304" y="-10" type="curve" smooth="yes"/>
      <point x="451" y="-10"/>
      <point x="595" y="62"/>
      <point x="595" y="174" type="curve" smooth="yes"/>
      <point x="595" y="298"/>
      <point x="388" y="378"/>
      <point x="219" y="378" type="curve" smooth="yes"/>
      <point x="210" y="378"/>
      <point x="210" y="378"/>
      <point x="210" y="382" type="curve" smooth="yes"/>
      <point x="210" y="386"/>
      <point x="210" y="386"/>
      <point x="222" y="390" type="curve" smooth="yes"/>
      <point x="476" y="467"/>
      <point x="561" y="516"/>
      <point x="561" y="584" type="curve" smooth="yes"/>
      <point x="561" y="657"/>
      <point x="460" y="710"/>
      <point x="317" y="710" type="curve" smooth="yes"/>
      <point x="221" y="710"/>
      <point x="125" y="688"/>
      <point x="101" y="688" type="curve" smooth="yes"/>
      <point x="78" y="688" type="line"/>
      <point x="63" y="509" type="line"/>
      <point x="81" y="509" type="line"/>
      <point x="81" y="646"/>
      <point x="144" y="697"/>
      <point x="310" y="697" type="curve" smooth="yes"/>
      <point x="426" y="697"/>
      <point x="498" y="659"/>
      <point x="498" y="595" type="curve" smooth="yes"/>
      <point x="498" y="519"/>
      <point x="410" y="470"/>
      <point x="143" y="380" type="curve" smooth="yes"/>
      <point x="131" y="376"/>
      <point x="119" y="373"/>
      <point x="111" y="370" type="curve" smooth="yes"/>
      <point x="101" y="367"/>
      <point x="96" y="364"/>
      <point x="96" y="360" type="curve" smooth="yes"/>
      <point x="96" y="355"/>
      <point x="104" y="349"/>
      <point x="127" y="357" type="curve" smooth="yes"/>
      <point x="146" y="363"/>
      <point x="161" y="364"/>
      <point x="204" y="364" type="curve" smooth="yes"/>
      <point x="385" y="364"/>
      <point x="527" y="281"/>
      <point x="527" y="166" type="curve" smooth="yes"/>
      <point x="527" y="75"/>
      <point x="441" y="5"/>
      <point x="302" y="5" type="curve" smooth="yes"/>
      <point x="188" y="5"/>
      <point x="97" y="71"/>
      <point x="97" y="157" type="curve" smooth="yes"/>
      <point x="97" y="180"/>
      <point x="89" y="195"/>
      <point x="70" y="195" type="curve" smooth="yes"/>
      <point x="41" y="195"/>
      <point x="33" y="167"/>
      <point x="47" y="121" type="curve" smooth="yes"/>
      <point x="69" y="42"/>
      <point x="169" y="-10"/>
    </contour>
    <component base="_tip" xOffset="26"/>
  </outline>
</glyph>
<glyph name="four" format="2">
  <advance width="647"/>
  <unicode hex="0034"/>
  <outline>
    <contour>
      <point x="432" y="0" type="curve"/>
      <point x="452" y="0" type="line"/>
      <point x="472" y="0"/>
      <point x="496" y="-4"/>
      <point x="557" y="-5" type="curve"/>
      <point x="563" y="-5"/>
      <point x="566" y="-3"/>
      <point x="566" y="4" type="curve"/>
      <point x="566" y="10"/>
      <point x="563" y="12"/>
      <point x="558" y="12" type="curve"/>
      <point x="491" y="13"/>
      <point x="468" y="7"/>
      <point x="470" y="111" type="curve"/>
      <point x="470" y="111"/>
      <point x="470" y="112"/>
      <point x="470" y="112" type="curve" smooth="yes"/>
      <point x="470" y="128"/>
      <point x="472" y="130"/>
      <point x="485" y="130" type="curve" smooth="yes"/>
      <point x="609" y="130" type="line" smooth="yes"/>
      <point x="614" y="130"/>
      <point x="620" y="132"/>
      <point x="620" y="138" type="curve" smooth="yes"/>
      <point x="620" y="170" type="line" smooth="yes"/>
      <point x="620" y="176"/>
      <point x="614" y="178"/>
      <point x="609" y="178" type="curve" smooth="yes"/>
      <point x="484" y="178" type="line" smooth="yes"/>
      <point x="471" y="178"/>
      <point x="469" y="180"/>
      <point x="469" y="196" type="curve" smooth="yes"/>
      <point x="468" y="375"/>
      <point x="469" y="623"/>
      <point x="469" y="641" type="curve" smooth="yes"/>
      <point x="469" y="686"/>
      <point x="474" y="702"/>
      <point x="474" y="711" type="curve" smooth="yes"/>
      <point x="474" y="718"/>
      <point x="468" y="720"/>
      <point x="463" y="720" type="curve" smooth="yes"/>
      <point x="459" y="720"/>
      <point x="455" y="718"/>
      <point x="453" y="716" type="curve" smooth="yes"/>
      <point x="448" y="711"/>
      <point x="443" y="704"/>
      <point x="436" y="698" type="curve" smooth="yes"/>
      <point x="417" y="681"/>
      <point x="413" y="668"/>
      <point x="413" y="655" type="curve" smooth="yes"/>
      <point x="413" y="621" type="line" smooth="yes"/>
      <point x="413" y="601"/>
      <point x="416" y="588"/>
      <point x="396" y="564" type="curve" smooth="yes"/>
      <point x="63" y="179" type="line" smooth="yes"/>
      <point x="31" y="142"/>
      <point x="34" y="130"/>
      <point x="66" y="130" type="curve" smooth="yes"/>
      <point x="398" y="130" type="line" smooth="yes"/>
      <point x="411" y="130"/>
      <point x="413" y="128"/>
      <point x="413" y="112" type="curve" smooth="yes"/>
      <point x="413" y="111" type="line"/>
      <point x="416" y="7"/>
      <point x="393" y="13"/>
      <point x="326" y="13" type="curve"/>
      <point x="321" y="13"/>
      <point x="318" y="11"/>
      <point x="318" y="5" type="curve"/>
      <point x="318" y="-2"/>
      <point x="321" y="-4"/>
      <point x="327" y="-4" type="curve"/>
      <point x="388" y="-4"/>
      <point x="412" y="0"/>
    </contour>
    <contour>
      <point x="114" y="207" type="curve" smooth="yes"/>
      <point x="394" y="532" type="line" smooth="yes"/>
      <point x="405" y="544"/>
      <point x="413" y="553"/>
      <point x="414" y="553" type="curve"/>
      <point x="414" y="553"/>
      <point x="415" y="542"/>
      <point x="415" y="526" type="curve" smooth="yes"/>
      <point x="413" y="196" type="line" smooth="yes"/>
      <point x="413" y="179"/>
      <point x="411" y="178"/>
      <point x="398" y="178" type="curve" smooth="yes"/>
      <point x="108" y="178" type="line" smooth="yes"/>
      <point x="91" y="178"/>
      <point x="100" y="191"/>
    </contour>
  </outline>
</glyph>
<glyph name="five" format="2">
  <advance width="600"/>
  <unicode hex="0035"/>
  <outline>
    <contour>
      <point x="280" y="510" type="curve" smooth="yes"/>
      <point x="218" y="510"/>
      <point x="184" y="503"/>
      <point x="139" y="487" type="curve" smooth="yes"/>
      <point x="112" y="477"/>
      <point x="111" y="475"/>
      <point x="111" y="475" type="curve"/>
      <point x="110" y="477"/>
      <point x="114" y="483"/>
      <point x="118" y="490" type="curve" smooth="yes"/>
      <point x="134" y="521"/>
      <point x="130" y="580"/>
      <point x="112" y="625" type="curve" smooth="yes"/>
      <point x="106" y="639"/>
      <point x="107" y="642"/>
      <point x="108" y="642" type="curve" smooth="yes"/>
      <point x="120" y="642"/>
      <point x="193" y="618"/>
      <point x="306" y="618" type="curve" smooth="yes"/>
      <point x="422" y="618"/>
      <point x="481" y="644"/>
      <point x="508" y="663" type="curve" smooth="yes"/>
      <point x="527" y="676"/>
      <point x="540" y="691"/>
      <point x="540" y="707" type="curve" smooth="yes"/>
      <point x="540" y="710"/>
      <point x="536" y="710"/>
      <point x="534" y="710" type="curve" smooth="yes"/>
      <point x="528" y="710"/>
      <point x="529" y="707"/>
      <point x="522" y="702" type="curve" smooth="yes"/>
      <point x="490" y="680"/>
      <point x="415" y="666"/>
      <point x="321" y="666" type="curve" smooth="yes"/>
      <point x="173" y="666"/>
      <point x="83" y="710"/>
      <point x="66" y="710" type="curve" smooth="yes"/>
      <point x="40" y="710"/>
      <point x="63" y="675"/>
      <point x="82" y="632" type="curve" smooth="yes"/>
      <point x="119" y="553"/>
      <point x="114" y="489"/>
      <point x="74" y="460" type="curve" smooth="yes"/>
      <point x="63" y="452"/>
      <point x="56" y="448"/>
      <point x="57" y="443" type="curve" smooth="yes"/>
      <point x="59" y="436"/>
      <point x="70" y="436"/>
      <point x="93" y="450" type="curve" smooth="yes"/>
      <point x="132" y="475"/>
      <point x="198" y="495"/>
      <point x="269" y="495" type="curve" smooth="yes"/>
      <point x="413" y="495"/>
      <point x="494" y="406"/>
      <point x="494" y="248" type="curve" smooth="yes"/>
      <point x="494" y="98"/>
      <point x="414" y="5"/>
      <point x="287" y="5" type="curve" smooth="yes"/>
      <point x="170" y="5"/>
      <point x="97" y="63"/>
      <point x="97" y="157" type="curve" smooth="yes"/>
      <point x="97" y="180"/>
      <point x="89" y="195"/>
      <point x="70" y="195" type="curve" smooth="yes"/>
      <point x="41" y="195"/>
      <point x="33" y="167"/>
      <point x="47" y="121" type="curve" smooth="yes"/>
      <point x="69" y="42"/>
      <point x="167" y="-10"/>
      <point x="298" y="-10" type="curve" smooth="yes"/>
      <point x="459" y="-10"/>
      <point x="560" y="89"/>
      <point x="560" y="244" type="curve" smooth="yes"/>
      <point x="560" y="406"/>
      <point x="452" y="510"/>
    </contour>
  </outline>
</glyph>
<glyph name="six" format="2">
  <advance width="609"/>
  <unicode hex="0036"/>
  <outline>
    <contour>
      <point x="324" y="510" type="curve" smooth="yes"/>
      <point x="234" y="510"/>
      <point x="155" y="460"/>
      <point x="118" y="383" type="curve" smooth="yes"/>
      <point x="113" y="372"/>
      <point x="111" y="365"/>
      <point x="107" y="365" type="curve" smooth="yes"/>
      <point x="105" y="365"/>
      <point x="104" y="382"/>
      <point x="104" y="393" type="curve" smooth="yes"/>
      <point x="109" y="588"/>
      <point x="189" y="695"/>
      <point x="325" y="695" type="curve" smooth="yes"/>
      <point x="425" y="695"/>
      <point x="491" y="635"/>
      <point x="491" y="543" type="curve" smooth="yes"/>
      <point x="491" y="519"/>
      <point x="500" y="505"/>
      <point x="518" y="505" type="curve" smooth="yes"/>
      <point x="547" y="505"/>
      <point x="555" y="534"/>
      <point x="541" y="578" type="curve" smooth="yes"/>
      <point x="516" y="656"/>
      <point x="428" y="710"/>
      <point x="319" y="710" type="curve" smooth="yes"/>
      <point x="143" y="710"/>
      <point x="47" y="580"/>
      <point x="47" y="348" type="curve" smooth="yes"/>
      <point x="47" y="119"/>
      <point x="138" y="-10"/>
      <point x="305" y="-10" type="curve" smooth="yes"/>
      <point x="456" y="-10"/>
      <point x="562" y="101"/>
      <point x="562" y="256" type="curve" smooth="yes"/>
      <point x="562" y="403"/>
      <point x="469" y="510"/>
    </contour>
    <contour>
      <point x="110" y="260" type="curve" smooth="yes"/>
      <point x="110" y="389"/>
      <point x="199" y="479"/>
      <point x="311" y="479" type="curve" smooth="yes"/>
      <point x="427" y="479"/>
      <point x="497" y="396"/>
      <point x="497" y="244" type="curve" smooth="yes"/>
      <point x="497" y="92"/>
      <point x="430" y="9"/>
      <point x="313" y="9" type="curve" smooth="yes"/>
      <point x="184" y="9"/>
      <point x="110" y="102"/>
    </contour>
  </outline>
</glyph>
<glyph name="seven" format="2">
  <advance width="569"/>
  <unicode hex="0037"/>
  <outline>
    <contour>
      <point x="502" y="654" type="curve" smooth="yes"/>
      <point x="505" y="651"/>
      <point x="496" y="636"/>
      <point x="491" y="626" type="curve" smooth="yes"/>
      <point x="370" y="400"/>
      <point x="188" y="308"/>
      <point x="188" y="48" type="curve" smooth="yes"/>
      <point x="188" y="18" type="line" smooth="yes"/>
      <point x="188" y="4"/>
      <point x="192" y="0"/>
      <point x="205" y="0" type="curve" smooth="yes"/>
      <point x="229" y="0" type="line" smooth="yes"/>
      <point x="241" y="0"/>
      <point x="245" y="4"/>
      <point x="245" y="18" type="curve" smooth="yes"/>
      <point x="245" y="35" type="line" smooth="yes"/>
      <point x="245" y="213"/>
      <point x="252" y="238"/>
      <point x="457" y="536" type="curve" smooth="yes"/>
      <point x="486" y="580"/>
      <point x="509" y="625"/>
      <point x="525" y="654" type="curve" smooth="yes"/>
      <point x="528" y="660"/>
      <point x="531" y="665"/>
      <point x="537" y="669" type="curve" smooth="yes"/>
      <point x="544" y="675"/>
      <point x="563" y="684"/>
      <point x="563" y="696" type="curve" smooth="yes"/>
      <point x="563" y="705"/>
      <point x="556" y="710"/>
      <point x="548" y="710" type="curve" smooth="yes"/>
      <point x="527" y="710"/>
      <point x="507" y="689"/>
      <point x="493" y="677" type="curve" smooth="yes"/>
      <point x="435" y="628"/>
      <point x="377" y="629"/>
      <point x="306" y="665" type="curve" smooth="yes"/>
      <point x="242" y="697"/>
      <point x="205" y="713"/>
      <point x="148" y="713" type="curve" smooth="yes"/>
      <point x="89" y="713"/>
      <point x="47" y="687"/>
      <point x="32" y="630" type="curve" smooth="yes"/>
      <point x="30" y="620"/>
      <point x="26" y="607"/>
      <point x="39" y="607" type="curve" smooth="yes"/>
      <point x="47" y="607"/>
      <point x="50" y="611"/>
      <point x="52" y="625" type="curve" smooth="yes"/>
      <point x="57" y="652"/>
      <point x="91" y="670"/>
      <point x="124" y="670" type="curve" smooth="yes"/>
      <point x="156" y="670"/>
      <point x="185" y="662"/>
      <point x="233" y="636" type="curve" smooth="yes"/>
      <point x="350" y="573"/>
      <point x="421" y="578"/>
      <point x="492" y="649" type="curve" smooth="yes"/>
      <point x="495" y="652"/>
      <point x="499" y="657"/>
    </contour>
  </outline>
</glyph>
<glyph name="eight" format="2">
  <advance width="667"/>
  <unicode hex="0038"/>
  <outline>
    <contour>
      <point x="328" y="710" type="curve" smooth="yes"/>
      <point x="175" y="710"/>
      <point x="67" y="643"/>
      <point x="67" y="550" type="curve" smooth="yes"/>
      <point x="67" y="480"/>
      <point x="139" y="412"/>
      <point x="271" y="361" type="curve"/>
      <point x="133" y="314"/>
      <point x="47" y="230"/>
      <point x="47" y="143" type="curve" smooth="yes"/>
      <point x="47" y="50"/>
      <point x="156" y="-10"/>
      <point x="328" y="-10" type="curve" smooth="yes"/>
      <point x="500" y="-10"/>
      <point x="620" y="60"/>
      <point x="620" y="158" type="curve" smooth="yes"/>
      <point x="620" y="251"/>
      <point x="542" y="324"/>
      <point x="382" y="379" type="curve"/>
      <point x="515" y="429"/>
      <point x="589" y="495"/>
      <point x="589" y="563" type="curve" smooth="yes"/>
      <point x="589" y="648"/>
      <point x="480" y="710"/>
    </contour>
    <contour>
      <point x="93" y="156" type="curve" smooth="yes"/>
      <point x="93" y="235"/>
      <point x="171" y="310"/>
      <point x="296" y="351" type="curve"/>
      <point x="482" y="294"/>
      <point x="563" y="232"/>
      <point x="563" y="147" type="curve" smooth="yes"/>
      <point x="563" y="54"/>
      <point x="469" y="5"/>
      <point x="334" y="5" type="curve" smooth="yes"/>
      <point x="186" y="5"/>
      <point x="93" y="62"/>
    </contour>
    <contour>
      <point x="121" y="578" type="curve" smooth="yes"/>
      <point x="121" y="652"/>
      <point x="201" y="697"/>
      <point x="331" y="697" type="curve" smooth="yes"/>
      <point x="462" y="697"/>
      <point x="545" y="643"/>
      <point x="545" y="555" type="curve" smooth="yes"/>
      <point x="545" y="488"/>
      <point x="493" y="443"/>
      <point x="355" y="389" type="curve"/>
      <point x="192" y="448"/>
      <point x="121" y="504"/>
    </contour>
  </outline>
</glyph>
<glyph name="greater" format="2">
  <advance width="374"/>
  <unicode hex="003E"/>
  <outline>
    <contour>
      <point x="32" y="488" type="curve" smooth="yes"/>
      <point x="76" y="459"/>
      <point x="220" y="360"/>
      <point x="297" y="308" type="curve" smooth="yes"/>
      <point x="306" y="302"/>
      <point x="306" y="296"/>
      <point x="300" y="292" type="curve" smooth="yes"/>
      <point x="224" y="240"/>
      <point x="77" y="140"/>
      <point x="32" y="110" type="curve" smooth="yes"/>
      <point x="26" y="106"/>
      <point x="26" y="104"/>
      <point x="30" y="99" type="curve" smooth="yes"/>
      <point x="36" y="89"/>
      <point x="50" y="85"/>
      <point x="56" y="90" type="curve" smooth="yes"/>
      <point x="106" y="128"/>
      <point x="273" y="247"/>
      <point x="333" y="284" type="curve" smooth="yes"/>
      <point x="342" y="290"/>
      <point x="347" y="295"/>
      <point x="347" y="299" type="curve" smooth="yes"/>
      <point x="347" y="303"/>
      <point x="342" y="308"/>
      <point x="333" y="314" type="curve" smooth="yes"/>
      <point x="273" y="351"/>
      <point x="106" y="470"/>
      <point x="56" y="508" type="curve" smooth="yes"/>
      <point x="50" y="513"/>
      <point x="36" y="509"/>
      <point x="28" y="500" type="curve"/>
      <point x="26" y="494"/>
      <point x="27" y="492"/>
    </contour>
  </outline>
</glyph>
<glyph name="question" format="2">
  <advance width="516"/>
  <unicode hex="003F"/>
  <outline>
    <contour>
      <point x="421" y="595" type="curve" smooth="yes"/>
      <point x="421" y="469"/>
      <point x="236" y="392"/>
      <point x="216" y="247" type="curve" smooth="yes"/>
      <point x="213" y="226"/>
      <point x="212" y="215"/>
      <point x="226" y="215" type="curve" smooth="yes"/>
      <point x="240" y="215"/>
      <point x="236" y="225"/>
      <point x="238" y="244" type="curve" smooth="yes"/>
      <point x="258" y="402"/>
      <point x="489" y="466"/>
      <point x="489" y="589" type="curve" smooth="yes"/>
      <point x="489" y="659"/>
      <point x="402" y="710"/>
      <point x="277" y="710" type="curve" smooth="yes"/>
      <point x="130" y="710"/>
      <point x="27" y="640"/>
      <point x="27" y="543" type="curve" smooth="yes"/>
      <point x="27" y="517"/>
      <point x="44" y="508"/>
      <point x="61" y="508" type="curve" smooth="yes"/>
      <point x="86" y="508"/>
      <point x="97" y="524"/>
      <point x="97" y="552" type="curve" smooth="yes"/>
      <point x="97" y="642"/>
      <point x="162" y="697"/>
      <point x="264" y="697" type="curve" smooth="yes"/>
      <point x="360" y="697"/>
      <point x="421" y="659"/>
    </contour>
    <component base="period" xOffset="168"/>
  </outline>
</glyph>
<glyph name="at" format="2">
  <advance width="1008"/>
  <unicode hex="0040"/>
  <outline>
    <contour>
      <point x="523" y="-199" type="curve" smooth="yes"/>
      <point x="638" y="-199"/>
      <point x="731" y="-167"/>
      <point x="821" y="-106" type="curve" smooth="yes"/>
      <point x="844" y="-89"/>
      <point x="845" y="-82"/>
      <point x="834" y="-79" type="curve" smooth="yes"/>
      <point x="825" y="-76"/>
      <point x="815" y="-84"/>
      <point x="801" y="-95" type="curve" smooth="yes"/>
      <point x="734" y="-148"/>
      <point x="639" y="-180"/>
      <point x="519" y="-180" type="curve" smooth="yes"/>
      <point x="263" y="-180"/>
      <point x="56" y="-12"/>
      <point x="50" y="245" type="curve" smooth="yes"/>
      <point x="44" y="499"/>
      <point x="244" y="694"/>
      <point x="499" y="694" type="curve" smooth="yes"/>
      <point x="775" y="694"/>
      <point x="958" y="517"/>
      <point x="958" y="247" type="curve" smooth="yes"/>
      <point x="958" y="65"/>
      <point x="892" y="16"/>
      <point x="849" y="16" type="curve" smooth="yes"/>
      <point x="804" y="16"/>
      <point x="782" y="46"/>
      <point x="781" y="113" type="curve" smooth="yes"/>
      <point x="780" y="156"/>
      <point x="780" y="200"/>
      <point x="779" y="255" type="curve" smooth="yes"/>
      <point x="779" y="371" type="line" smooth="yes"/>
      <point x="779" y="451"/>
      <point x="781" y="476"/>
      <point x="784" y="490" type="curve" smooth="yes"/>
      <point x="787" y="506"/>
      <point x="784" y="510"/>
      <point x="776" y="510" type="curve" smooth="yes"/>
      <point x="770" y="510"/>
      <point x="767" y="508"/>
      <point x="764" y="504" type="curve"/>
      <point x="758" y="490"/>
      <point x="748" y="450"/>
      <point x="718" y="450" type="curve" smooth="yes"/>
      <point x="679" y="450"/>
      <point x="615" y="510"/>
      <point x="504" y="510" type="curve" smooth="yes"/>
      <point x="493" y="510" type="line" smooth="yes"/>
      <point x="327" y="508"/>
      <point x="196" y="405"/>
      <point x="196" y="246" type="curve" smooth="yes"/>
      <point x="196" y="103"/>
      <point x="311" y="-10"/>
      <point x="474" y="-10" type="curve" smooth="yes"/>
      <point x="577" y="-10"/>
      <point x="663" y="32"/>
      <point x="710" y="105" type="curve" smooth="yes"/>
      <point x="720" y="119"/>
      <point x="721" y="121"/>
      <point x="723" y="121" type="curve" smooth="yes"/>
      <point x="724" y="121"/>
      <point x="725" y="113"/>
      <point x="726" y="104" type="curve" smooth="yes"/>
      <point x="732" y="32"/>
      <point x="764" y="-10"/>
      <point x="842" y="-10" type="curve" smooth="yes"/>
      <point x="934" y="-10"/>
      <point x="985" y="92"/>
      <point x="981" y="255" type="curve" smooth="yes"/>
      <point x="973" y="529"/>
      <point x="784" y="709"/>
      <point x="499" y="709" type="curve" smooth="yes"/>
      <point x="229" y="709"/>
      <point x="22" y="503"/>
      <point x="27" y="242" type="curve" smooth="yes"/>
      <point x="31" y="-22"/>
      <point x="247" y="-199"/>
    </contour>
    <contour>
      <point x="488" y="26" type="curve" smooth="yes"/>
      <point x="349" y="26"/>
      <point x="261" y="127"/>
      <point x="261" y="275" type="curve" smooth="yes"/>
      <point x="261" y="425"/>
      <point x="355" y="498"/>
      <point x="495" y="498" type="curve" smooth="yes"/>
      <point x="640" y="498"/>
      <point x="721" y="400"/>
      <point x="721" y="252" type="curve" smooth="yes"/>
      <point x="721" y="242" type="line" smooth="yes"/>
      <point x="721" y="111"/>
      <point x="628" y="26"/>
    </contour>
  </outline>
</glyph>
<glyph name="A" format="2">
  <advance width="958"/>
  <unicode hex="0041"/>
  <guideline x="317" y="307" angle="64.3009"/>
  <guideline x="283" y="307" angle="60.9204"/>
  <anchor x="484" y="0" name="bottom"/>
  <anchor x="887" y="10" name="ogonek"/>
  <anchor x="492" y="700" name="top"/>
  <outline>
    <contour>
      <point x="804" y="0" type="curve"/>
      <point x="820" y="0" type="line"/>
      <point x="852" y="0"/>
      <point x="881" y="-5"/>
      <point x="939" y="-5" type="curve"/>
      <point x="945" y="-5"/>
      <point x="948" y="-3"/>
      <point x="948" y="4" type="curve"/>
      <point x="948" y="10"/>
      <point x="945" y="13"/>
      <point x="939" y="13" type="curve"/>
      <point x="874" y="13"/>
      <point x="843" y="8"/>
      <point x="818" y="64" type="curve"/>
      <point x="723" y="254"/>
      <point x="628" y="445"/>
      <point x="532" y="636" type="curve"/>
      <point x="502" y="690"/>
      <point x="524" y="687"/>
      <point x="589" y="687" type="curve"/>
      <point x="595" y="687"/>
      <point x="598" y="690"/>
      <point x="598" y="696" type="curve"/>
      <point x="598" y="703"/>
      <point x="595" y="705"/>
      <point x="589" y="705" type="curve"/>
      <point x="531" y="705"/>
      <point x="502" y="700"/>
      <point x="470" y="700" type="curve"/>
      <point x="454" y="700" type="line"/>
      <point x="422" y="700"/>
      <point x="393" y="705"/>
      <point x="335" y="705" type="curve"/>
      <point x="329" y="705"/>
      <point x="326" y="703"/>
      <point x="326" y="696" type="curve"/>
      <point x="326" y="690"/>
      <point x="329" y="687"/>
      <point x="335" y="687" type="curve"/>
      <point x="400" y="687"/>
      <point x="431" y="692"/>
      <point x="454" y="636" type="curve"/>
      <point x="455" y="634" type="line" smooth="yes"/>
      <point x="457" y="630"/>
      <point x="458" y="623"/>
      <point x="455" y="618" type="curve" smooth="yes"/>
      <point x="352" y="432"/>
      <point x="249" y="246"/>
      <point x="143" y="62" type="curve"/>
      <point x="115" y="7"/>
      <point x="84" y="13"/>
      <point x="19" y="13" type="curve"/>
      <point x="13" y="13"/>
      <point x="10" y="10"/>
      <point x="10" y="4" type="curve"/>
      <point x="10" y="-3"/>
      <point x="13" y="-5"/>
      <point x="19" y="-5" type="curve"/>
      <point x="77" y="-5"/>
      <point x="106" y="0"/>
      <point x="138" y="0" type="curve"/>
      <point x="143" y="0" type="line"/>
      <point x="173" y="0"/>
      <point x="201" y="-3"/>
      <point x="311" y="-3" type="curve"/>
      <point x="317" y="-3"/>
      <point x="321" y="-1"/>
      <point x="321" y="6" type="curve"/>
      <point x="321" y="12"/>
      <point x="317" y="15"/>
      <point x="313" y="15" type="curve"/>
      <point x="198" y="15"/>
      <point x="172" y="5"/>
      <point x="205" y="66" type="curve"/>
      <point x="240" y="141"/>
      <point x="275" y="216"/>
      <point x="312" y="289" type="curve" smooth="yes"/>
      <point x="338" y="341"/>
      <point x="347" y="341"/>
      <point x="439" y="341" type="curve" smooth="yes"/>
      <point x="500" y="341" type="line" smooth="yes"/>
      <point x="597" y="341"/>
      <point x="607" y="341"/>
      <point x="633" y="289" type="curve" smooth="yes"/>
      <point x="671" y="214"/>
      <point x="707" y="140"/>
      <point x="743" y="66" type="curve"/>
      <point x="775" y="5"/>
      <point x="749" y="15"/>
      <point x="634" y="15" type="curve"/>
      <point x="630" y="15"/>
      <point x="626" y="12"/>
      <point x="626" y="6" type="curve"/>
      <point x="626" y="-1"/>
      <point x="630" y="-3"/>
      <point x="636" y="-3" type="curve"/>
      <point x="746" y="-3"/>
      <point x="774" y="0"/>
    </contour>
    <contour>
      <point x="370" y="410" type="curve" smooth="yes"/>
      <point x="396" y="465"/>
      <point x="424" y="519"/>
      <point x="452" y="571" type="curve" smooth="yes"/>
      <point x="462" y="591"/>
      <point x="466" y="599"/>
      <point x="472" y="599" type="curve" smooth="yes"/>
      <point x="478" y="599"/>
      <point x="481" y="595"/>
      <point x="491" y="575" type="curve" smooth="yes"/>
      <point x="518" y="522"/>
      <point x="546" y="468"/>
      <point x="574" y="410" type="curve" smooth="yes"/>
      <point x="599" y="359"/>
      <point x="587" y="357"/>
      <point x="500" y="357" type="curve" smooth="yes"/>
      <point x="439" y="357" type="line" smooth="yes"/>
      <point x="355" y="357"/>
      <point x="344" y="359"/>
    </contour>
  </outline>
</glyph>
<glyph name="B" format="2">
  <advance width="771"/>
  <unicode hex="0042"/>
  <anchor x="346" y="0" name="bottom"/>
  <anchor x="346" y="350" name="center"/>
  <anchor x="346" y="700" name="top"/>
  <outline>
    <contour>
      <point x="146" y="700" type="curve"/>
      <point x="146" y="642" type="line"/>
      <point x="205" y="642" type="line"/>
      <point x="205" y="677"/>
      <point x="210" y="687"/>
      <point x="324" y="687" type="curve" smooth="yes"/>
      <point x="505" y="687"/>
      <point x="606" y="608"/>
      <point x="606" y="464" type="curve" smooth="yes"/>
      <point x="606" y="323"/>
      <point x="512" y="245"/>
      <point x="344" y="245" type="curve" smooth="yes"/>
      <point x="221" y="245"/>
      <point x="203" y="245"/>
      <point x="203" y="286" type="curve"/>
      <point x="179" y="286" type="line"/>
      <point x="179" y="176" type="line"/>
      <point x="203" y="176" type="line"/>
      <point x="203" y="223"/>
      <point x="212" y="224"/>
      <point x="344" y="225" type="curve" smooth="yes"/>
      <point x="551" y="227"/>
      <point x="666" y="188"/>
      <point x="666" y="112" type="curve" smooth="yes"/>
      <point x="666" y="43"/>
      <point x="563" y="14"/>
      <point x="324" y="14" type="curve" smooth="yes"/>
      <point x="214" y="14"/>
      <point x="204" y="28"/>
      <point x="204" y="75" type="curve"/>
      <point x="165" y="75" type="line"/>
      <point x="165" y="0" type="line"/>
      <point x="179" y="0"/>
      <point x="173" y="0"/>
      <point x="372" y="0" type="curve" smooth="yes"/>
      <point x="640" y="0"/>
      <point x="744" y="33"/>
      <point x="744" y="114" type="curve" smooth="yes"/>
      <point x="744" y="188"/>
      <point x="631" y="236"/>
      <point x="453" y="236" type="curve" smooth="yes"/>
      <point x="450" y="236"/>
      <point x="450" y="237"/>
      <point x="450" y="240" type="curve" smooth="yes"/>
      <point x="450" y="243"/>
      <point x="450" y="244"/>
      <point x="454" y="245" type="curve" smooth="yes"/>
      <point x="579" y="270"/>
      <point x="678" y="355"/>
      <point x="678" y="464" type="curve" smooth="yes"/>
      <point x="678" y="608"/>
      <point x="548" y="700"/>
      <point x="372" y="700" type="curve" smooth="yes"/>
      <point x="311" y="700"/>
      <point x="164" y="700"/>
      <point x="152" y="700" type="curve" smooth="yes"/>
      <point x="150" y="700"/>
      <point x="148" y="700"/>
    </contour>
    <contour>
      <point x="168" y="0" type="curve"/>
      <point x="207" y="0" type="line"/>
      <point x="201" y="47"/>
      <point x="201" y="653"/>
      <point x="207" y="700" type="curve"/>
      <point x="168" y="700" type="line"/>
      <point x="136" y="700"/>
      <point x="107" y="705"/>
      <point x="49" y="706" type="curve"/>
      <point x="43" y="706"/>
      <point x="40" y="704"/>
      <point x="40" y="697" type="curve"/>
      <point x="40" y="691"/>
      <point x="43" y="688"/>
      <point x="49" y="688" type="curve"/>
      <point x="114" y="687"/>
      <point x="141" y="690"/>
      <point x="140" y="629" type="curve"/>
      <point x="142" y="479"/>
      <point x="142" y="220"/>
      <point x="140" y="71" type="curve"/>
      <point x="141" y="10"/>
      <point x="114" y="13"/>
      <point x="49" y="13" type="curve"/>
      <point x="43" y="13"/>
      <point x="40" y="10"/>
      <point x="40" y="4" type="curve"/>
      <point x="40" y="-3"/>
      <point x="43" y="-5"/>
      <point x="49" y="-5" type="curve"/>
      <point x="107" y="-5"/>
      <point x="136" y="0"/>
    </contour>
  </outline>
</glyph>
<glyph name="C" format="2">
  <advance width="678"/>
  <unicode hex="0043"/>
  <anchor x="339" y="0" name="bottom"/>
  <anchor x="392" y="700" name="top"/>
  <outline>
    <contour>
      <point x="651" y="208" type="curve" smooth="yes"/>
      <point x="651" y="217"/>
      <point x="648" y="221"/>
      <point x="640" y="221" type="curve" smooth="yes"/>
      <point x="628" y="221"/>
      <point x="629" y="213"/>
      <point x="629" y="191" type="curve" smooth="yes"/>
      <point x="629" y="56"/>
      <point x="572" y="5"/>
      <point x="421" y="5" type="curve" smooth="yes"/>
      <point x="233" y="5"/>
      <point x="104" y="147"/>
      <point x="99" y="363" type="curve" smooth="yes"/>
      <point x="94" y="564"/>
      <point x="220" y="696"/>
      <point x="414" y="696" type="curve" smooth="yes"/>
      <point x="562" y="696"/>
      <point x="623" y="646"/>
      <point x="623" y="513" type="curve" smooth="yes"/>
      <point x="623" y="490"/>
      <point x="621" y="480"/>
      <point x="634" y="480" type="curve" smooth="yes"/>
      <point x="641" y="480"/>
      <point x="645" y="483"/>
      <point x="645" y="491" type="curve" smooth="yes"/>
      <point x="645" y="501"/>
      <point x="638" y="550"/>
      <point x="638" y="610" type="curve" smooth="yes"/>
      <point x="638" y="661"/>
      <point x="643" y="685"/>
      <point x="644" y="693" type="curve" smooth="yes"/>
      <point x="646" y="709"/>
      <point x="639" y="710"/>
      <point x="634" y="710" type="curve" smooth="yes"/>
      <point x="618" y="710"/>
      <point x="625" y="688"/>
      <point x="608" y="688" type="curve" smooth="yes"/>
      <point x="579" y="688"/>
      <point x="516" y="709"/>
      <point x="410" y="709" type="curve" smooth="yes"/>
      <point x="191" y="709"/>
      <point x="23" y="545"/>
      <point x="27" y="339" type="curve" smooth="yes"/>
      <point x="30" y="130"/>
      <point x="181" y="-10"/>
      <point x="406" y="-10" type="curve" smooth="yes"/>
      <point x="525" y="-10"/>
      <point x="585" y="13"/>
      <point x="614" y="13" type="curve" smooth="yes"/>
      <point x="631" y="13"/>
      <point x="624" y="-9"/>
      <point x="640" y="-9" type="curve" smooth="yes"/>
      <point x="647" y="-9"/>
      <point x="651" y="-6"/>
      <point x="651" y="2" type="curve" smooth="yes"/>
      <point x="651" y="11"/>
      <point x="644" y="28"/>
      <point x="644" y="81" type="curve" smooth="yes"/>
      <point x="644" y="151"/>
      <point x="651" y="198"/>
    </contour>
  </outline>
</glyph>
<glyph name="D" format="2">
  <advance width="779"/>
  <unicode hex="0044"/>
  <anchor x="365" y="0" name="bottom"/>
  <anchor x="365" y="350" name="center"/>
  <anchor x="365" y="700" name="top"/>
  <outline>
    <contour>
      <point x="205" y="92" type="curve"/>
      <point x="164" y="92" type="line"/>
      <point x="164" y="0" type="line"/>
      <point x="172" y="0"/>
      <point x="203" y="0"/>
      <point x="358" y="0" type="curve" smooth="yes"/>
      <point x="600" y="0"/>
      <point x="752" y="135"/>
      <point x="752" y="347" type="curve" smooth="yes"/>
      <point x="752" y="563"/>
      <point x="600" y="700"/>
      <point x="358" y="700" type="curve" smooth="yes"/>
      <point x="170" y="700"/>
      <point x="183" y="700"/>
      <point x="162" y="700" type="curve"/>
      <point x="162" y="641" type="line"/>
      <point x="206" y="641" type="line"/>
      <point x="206" y="683"/>
      <point x="215" y="687"/>
      <point x="311" y="687" type="curve" smooth="yes"/>
      <point x="548" y="687"/>
      <point x="680" y="566"/>
      <point x="680" y="348" type="curve" smooth="yes"/>
      <point x="680" y="115"/>
      <point x="568" y="15"/>
      <point x="311" y="15" type="curve" smooth="yes"/>
      <point x="213" y="15"/>
      <point x="206" y="17"/>
    </contour>
    <contour>
      <point x="168" y="0" type="curve"/>
      <point x="208" y="0" type="line"/>
      <point x="202" y="47"/>
      <point x="202" y="653"/>
      <point x="208" y="700" type="curve"/>
      <point x="168" y="700" type="line"/>
      <point x="136" y="700"/>
      <point x="107" y="705"/>
      <point x="49" y="706" type="curve"/>
      <point x="43" y="706"/>
      <point x="40" y="704"/>
      <point x="40" y="697" type="curve"/>
      <point x="40" y="691"/>
      <point x="43" y="688"/>
      <point x="49" y="688" type="curve"/>
      <point x="114" y="687"/>
      <point x="141" y="690"/>
      <point x="140" y="629" type="curve"/>
      <point x="142" y="479"/>
      <point x="142" y="220"/>
      <point x="140" y="71" type="curve"/>
      <point x="141" y="10"/>
      <point x="114" y="13"/>
      <point x="49" y="13" type="curve"/>
      <point x="43" y="13"/>
      <point x="40" y="10"/>
      <point x="40" y="4" type="curve"/>
      <point x="40" y="-3"/>
      <point x="43" y="-5"/>
      <point x="49" y="-5" type="curve"/>
      <point x="107" y="-5"/>
      <point x="136" y="0"/>
    </contour>
  </outline>
</glyph>
<glyph name="E" format="2">
  <advance width="706"/>
  <unicode hex="0045"/>
  <anchor x="352" y="0" name="bottom"/>
  <anchor x="633" y="10" name="ogonek"/>
  <anchor x="370" y="700" name="top"/>
  <anchor x="20" y="700" name="topleft"/>
  <outline>
    <contour>
      <point x="168" y="0" type="curve"/>
      <point x="208" y="0" type="line"/>
      <point x="202" y="47"/>
      <point x="202" y="653"/>
      <point x="208" y="700" type="curve"/>
      <point x="168" y="700" type="line"/>
      <point x="136" y="700"/>
      <point x="107" y="705"/>
      <point x="49" y="706" type="curve"/>
      <point x="43" y="706"/>
      <point x="40" y="704"/>
      <point x="40" y="697" type="curve"/>
      <point x="40" y="691"/>
      <point x="43" y="688"/>
      <point x="49" y="688" type="curve"/>
      <point x="114" y="687"/>
      <point x="141" y="690"/>
      <point x="140" y="629" type="curve"/>
      <point x="142" y="479"/>
      <point x="142" y="220"/>
      <point x="140" y="71" type="curve"/>
      <point x="141" y="10"/>
      <point x="114" y="13"/>
      <point x="49" y="13" type="curve"/>
      <point x="43" y="13"/>
      <point x="40" y="10"/>
      <point x="40" y="4" type="curve"/>
      <point x="40" y="-3"/>
      <point x="43" y="-5"/>
      <point x="49" y="-5" type="curve"/>
      <point x="107" y="-5"/>
      <point x="136" y="0"/>
    </contour>
    <contour>
      <point x="188" y="280" type="line"/>
      <point x="203" y="280" type="line"/>
      <point x="203" y="349"/>
      <point x="206" y="349"/>
      <point x="292" y="349" type="curve" smooth="yes"/>
      <point x="446" y="349"/>
      <point x="472" y="335"/>
      <point x="472" y="250" type="curve" smooth="yes"/>
      <point x="472" y="242"/>
      <point x="476" y="238"/>
      <point x="483" y="238" type="curve" smooth="yes"/>
      <point x="489" y="238"/>
      <point x="494" y="240"/>
      <point x="494" y="249" type="curve" smooth="yes"/>
      <point x="494" y="271"/>
      <point x="483" y="297"/>
      <point x="483" y="357" type="curve" smooth="yes"/>
      <point x="483" y="421"/>
      <point x="494" y="441"/>
      <point x="494" y="461" type="curve" smooth="yes"/>
      <point x="494" y="470"/>
      <point x="489" y="472"/>
      <point x="483" y="472" type="curve" smooth="yes"/>
      <point x="476" y="472"/>
      <point x="472" y="468"/>
      <point x="472" y="460" type="curve" smooth="yes"/>
      <point x="472" y="378"/>
      <point x="447" y="365"/>
      <point x="292" y="365" type="curve" smooth="yes"/>
      <point x="206" y="365"/>
      <point x="203" y="365"/>
      <point x="203" y="438" type="curve"/>
      <point x="188" y="438" type="line"/>
    </contour>
    <contour>
      <point x="660" y="-6" type="curve" smooth="yes"/>
      <point x="667" y="-6"/>
      <point x="672" y="-3"/>
      <point x="671" y="5" type="curve" smooth="yes"/>
      <point x="669" y="19"/>
      <point x="664" y="40"/>
      <point x="664" y="80" type="curve" smooth="yes"/>
      <point x="664" y="144"/>
      <point x="669" y="175"/>
      <point x="671" y="208" type="curve" smooth="yes"/>
      <point x="672" y="217"/>
      <point x="667" y="220"/>
      <point x="660" y="220" type="curve" smooth="yes"/>
      <point x="653" y="220"/>
      <point x="649" y="216"/>
      <point x="649" y="208" type="curve" smooth="yes"/>
      <point x="649" y="33"/>
      <point x="633" y="13"/>
      <point x="307" y="13" type="curve" smooth="yes"/>
      <point x="209" y="13"/>
      <point x="207" y="14"/>
      <point x="205" y="87" type="curve"/>
      <point x="190" y="87" type="line"/>
      <point x="191" y="0" type="line"/>
      <point x="640" y="0"/>
      <point x="648" y="-6"/>
    </contour>
    <component base="_Etop" xOffset="74"/>
  </outline>
</glyph>
<glyph name="F" format="2">
  <advance width="675"/>
  <unicode hex="0046"/>
  <anchor x="319" y="0" name="bottom"/>
  <anchor x="319" y="700" name="top"/>
  <outline>
    <contour>
      <point x="168" y="0" type="curve"/>
      <point x="163" y="0" type="line"/>
      <point x="211" y="0"/>
      <point x="255" y="-5"/>
      <point x="342" y="-5" type="curve"/>
      <point x="351" y="-5"/>
      <point x="355" y="-3"/>
      <point x="355" y="4" type="curve"/>
      <point x="355" y="10"/>
      <point x="351" y="13"/>
      <point x="342" y="13" type="curve"/>
      <point x="244" y="13"/>
      <point x="204" y="10"/>
      <point x="205" y="71" type="curve"/>
      <point x="202" y="244"/>
      <point x="203" y="662"/>
      <point x="208" y="700" type="curve"/>
      <point x="168" y="700" type="line"/>
      <point x="136" y="700"/>
      <point x="107" y="705"/>
      <point x="49" y="706" type="curve"/>
      <point x="43" y="706"/>
      <point x="40" y="704"/>
      <point x="40" y="697" type="curve"/>
      <point x="40" y="691"/>
      <point x="43" y="688"/>
      <point x="49" y="688" type="curve"/>
      <point x="114" y="687"/>
      <point x="141" y="690"/>
      <point x="140" y="629" type="curve"/>
      <point x="142" y="479"/>
      <point x="142" y="220"/>
      <point x="140" y="71" type="curve"/>
      <point x="141" y="10"/>
      <point x="114" y="13"/>
      <point x="49" y="13" type="curve"/>
      <point x="43" y="13"/>
      <point x="40" y="10"/>
      <point x="40" y="4" type="curve"/>
      <point x="40" y="-3"/>
      <point x="43" y="-5"/>
      <point x="49" y="-5" type="curve"/>
      <point x="107" y="-5"/>
      <point x="136" y="0"/>
    </contour>
    <component base="_Etop" xOffset="74"/>
    <contour>
      <point x="188" y="295" type="line"/>
      <point x="203" y="295" type="line"/>
      <point x="203" y="345"/>
      <point x="207" y="344"/>
      <point x="271" y="343" type="curve" smooth="yes"/>
      <point x="427" y="340"/>
      <point x="445" y="325"/>
      <point x="445" y="245" type="curve" smooth="yes"/>
      <point x="445" y="237"/>
      <point x="449" y="233"/>
      <point x="456" y="233" type="curve" smooth="yes"/>
      <point x="462" y="233"/>
      <point x="467" y="235"/>
      <point x="467" y="244" type="curve" smooth="yes"/>
      <point x="467" y="266"/>
      <point x="456" y="292"/>
      <point x="456" y="352" type="curve" smooth="yes"/>
      <point x="456" y="416"/>
      <point x="467" y="436"/>
      <point x="467" y="462" type="curve" smooth="yes"/>
      <point x="467" y="471"/>
      <point x="462" y="473"/>
      <point x="456" y="473" type="curve" smooth="yes"/>
      <point x="449" y="473"/>
      <point x="445" y="469"/>
      <point x="445" y="461" type="curve" smooth="yes"/>
      <point x="445" y="372"/>
      <point x="427" y="364"/>
      <point x="271" y="361" type="curve" smooth="yes"/>
      <point x="207" y="360"/>
      <point x="203" y="359"/>
      <point x="203" y="413" type="curve"/>
      <point x="188" y="413" type="line"/>
    </contour>
  </outline>
</glyph>
<glyph name="G" format="2">
  <advance width="757"/>
  <unicode hex="0047"/>
  <anchor x="377" y="0" name="bottom"/>
  <anchor x="377" y="700" name="top"/>
  <outline>
    <contour>
      <point x="27" y="328" type="curve" smooth="yes"/>
      <point x="27" y="126"/>
      <point x="171" y="-10"/>
      <point x="390" y="-10" type="curve" smooth="yes"/>
      <point x="545" y="-10"/>
      <point x="568" y="33"/>
      <point x="612" y="33" type="curve" smooth="yes"/>
      <point x="635" y="33"/>
      <point x="644" y="23"/>
      <point x="646" y="5" type="curve" smooth="yes"/>
      <point x="648" y="-5"/>
      <point x="653" y="-9"/>
      <point x="660" y="-9" type="curve" smooth="yes"/>
      <point x="667" y="-9"/>
      <point x="672" y="-6"/>
      <point x="669" y="4" type="curve" smooth="yes"/>
      <point x="657" y="39"/>
      <point x="658" y="94"/>
      <point x="658" y="144" type="curve" smooth="yes"/>
      <point x="658" y="178"/>
      <point x="659" y="220"/>
      <point x="660" y="296" type="curve"/>
      <point x="660" y="365"/>
      <point x="674" y="354"/>
      <point x="731" y="354" type="curve"/>
      <point x="733" y="354"/>
      <point x="735" y="357"/>
      <point x="735" y="363" type="curve"/>
      <point x="735" y="370"/>
      <point x="733" y="372"/>
      <point x="730" y="372" type="curve"/>
      <point x="675" y="372"/>
      <point x="661" y="369"/>
      <point x="646" y="369" type="curve"/>
      <point x="637" y="369" type="line"/>
      <point x="601" y="369"/>
      <point x="567" y="372"/>
      <point x="435" y="372" type="curve"/>
      <point x="428" y="372"/>
      <point x="423" y="370"/>
      <point x="423" y="363" type="curve"/>
      <point x="423" y="357"/>
      <point x="428" y="354"/>
      <point x="433" y="354" type="curve"/>
      <point x="571" y="354"/>
      <point x="604" y="365"/>
      <point x="602" y="296" type="curve"/>
      <point x="603" y="215"/>
      <point x="602" y="183"/>
      <point x="602" y="172" type="curve" smooth="yes"/>
      <point x="602" y="47"/>
      <point x="552" y="7"/>
      <point x="402" y="7" type="curve" smooth="yes"/>
      <point x="218" y="7"/>
      <point x="94" y="156"/>
      <point x="94" y="383" type="curve" smooth="yes"/>
      <point x="94" y="572"/>
      <point x="221" y="696"/>
      <point x="412" y="696" type="curve" smooth="yes"/>
      <point x="560" y="696"/>
      <point x="622" y="646"/>
      <point x="622" y="513" type="curve" smooth="yes"/>
      <point x="622" y="490"/>
      <point x="620" y="480"/>
      <point x="633" y="480" type="curve" smooth="yes"/>
      <point x="640" y="480"/>
      <point x="644" y="483"/>
      <point x="644" y="491" type="curve" smooth="yes"/>
      <point x="644" y="501"/>
      <point x="637" y="550"/>
      <point x="637" y="610" type="curve" smooth="yes"/>
      <point x="637" y="661"/>
      <point x="642" y="685"/>
      <point x="643" y="694" type="curve" smooth="yes"/>
      <point x="645" y="711"/>
      <point x="638" y="710"/>
      <point x="633" y="710" type="curve" smooth="yes"/>
      <point x="617" y="710"/>
      <point x="624" y="688"/>
      <point x="606" y="688" type="curve" smooth="yes"/>
      <point x="578" y="688"/>
      <point x="515" y="709"/>
      <point x="410" y="709" type="curve" smooth="yes"/>
      <point x="195" y="709"/>
      <point x="27" y="540"/>
    </contour>
  </outline>
</glyph>
<glyph name="H" format="2">
  <advance width="916"/>
  <unicode hex="0048"/>
  <anchor x="458" y="0" name="bottom"/>
  <anchor x="458" y="350" name="center"/>
  <anchor x="458" y="700" name="top"/>
  <anchor x="70" y="700" name="topleft"/>
  <outline>
    <contour>
      <point x="168" y="0" type="curve"/>
      <point x="178" y="0" type="line"/>
      <point x="208" y="0"/>
      <point x="236" y="-3"/>
      <point x="346" y="-3" type="curve"/>
      <point x="352" y="-3"/>
      <point x="356" y="-1"/>
      <point x="356" y="6" type="curve"/>
      <point x="356" y="12"/>
      <point x="352" y="15"/>
      <point x="348" y="15" type="curve"/>
      <point x="233" y="15"/>
      <point x="205" y="4"/>
      <point x="205" y="73" type="curve"/>
      <point x="203" y="209"/>
      <point x="203" y="491"/>
      <point x="205" y="627" type="curve"/>
      <point x="205" y="696"/>
      <point x="233" y="685"/>
      <point x="348" y="685" type="curve"/>
      <point x="352" y="685"/>
      <point x="356" y="688"/>
      <point x="356" y="694" type="curve"/>
      <point x="356" y="701"/>
      <point x="352" y="703"/>
      <point x="346" y="703" type="curve"/>
      <point x="236" y="703"/>
      <point x="208" y="700"/>
      <point x="178" y="700" type="curve"/>
      <point x="168" y="700" type="line"/>
      <point x="136" y="700"/>
      <point x="107" y="705"/>
      <point x="49" y="706" type="curve"/>
      <point x="43" y="706"/>
      <point x="40" y="704"/>
      <point x="40" y="697" type="curve"/>
      <point x="40" y="691"/>
      <point x="43" y="688"/>
      <point x="49" y="688" type="curve"/>
      <point x="114" y="687"/>
      <point x="141" y="690"/>
      <point x="140" y="629" type="curve"/>
      <point x="142" y="479"/>
      <point x="142" y="220"/>
      <point x="140" y="71" type="curve"/>
      <point x="141" y="10"/>
      <point x="114" y="13"/>
      <point x="49" y="12" type="curve"/>
      <point x="43" y="12"/>
      <point x="40" y="9"/>
      <point x="40" y="3" type="curve"/>
      <point x="40" y="-4"/>
      <point x="43" y="-6"/>
      <point x="49" y="-6" type="curve"/>
      <point x="107" y="-5"/>
      <point x="136" y="0"/>
    </contour>
    <contour>
      <point x="748" y="700" type="curve"/>
      <point x="738" y="700" type="line"/>
      <point x="708" y="700"/>
      <point x="680" y="703"/>
      <point x="570" y="703" type="curve"/>
      <point x="564" y="703"/>
      <point x="560" y="701"/>
      <point x="560" y="694" type="curve"/>
      <point x="560" y="688"/>
      <point x="564" y="685"/>
      <point x="568" y="685" type="curve"/>
      <point x="683" y="685"/>
      <point x="711" y="696"/>
      <point x="711" y="627" type="curve"/>
      <point x="713" y="491"/>
      <point x="713" y="209"/>
      <point x="711" y="73" type="curve"/>
      <point x="711" y="4"/>
      <point x="683" y="15"/>
      <point x="568" y="15" type="curve"/>
      <point x="564" y="15"/>
      <point x="560" y="12"/>
      <point x="560" y="6" type="curve"/>
      <point x="560" y="-1"/>
      <point x="564" y="-3"/>
      <point x="570" y="-3" type="curve"/>
      <point x="680" y="-3"/>
      <point x="708" y="0"/>
      <point x="738" y="0" type="curve"/>
      <point x="748" y="0" type="line"/>
      <point x="780" y="0"/>
      <point x="809" y="-5"/>
      <point x="867" y="-5" type="curve"/>
      <point x="873" y="-5"/>
      <point x="876" y="-3"/>
      <point x="876" y="4" type="curve"/>
      <point x="876" y="10"/>
      <point x="873" y="13"/>
      <point x="867" y="13" type="curve"/>
      <point x="802" y="13"/>
      <point x="775" y="10"/>
      <point x="776" y="71" type="curve"/>
      <point x="774" y="221"/>
      <point x="774" y="480"/>
      <point x="776" y="629" type="curve"/>
      <point x="775" y="690"/>
      <point x="802" y="687"/>
      <point x="867" y="689" type="curve"/>
      <point x="873" y="689"/>
      <point x="876" y="692"/>
      <point x="876" y="698" type="curve"/>
      <point x="876" y="705"/>
      <point x="873" y="707"/>
      <point x="867" y="707" type="curve"/>
      <point x="809" y="706"/>
      <point x="780" y="700"/>
    </contour>
    <contour>
      <point x="204" y="444" type="curve"/>
      <point x="188" y="444" type="line"/>
      <point x="188" y="286" type="line"/>
      <point x="204" y="286" type="line"/>
      <point x="204" y="347"/>
      <point x="213" y="357"/>
      <point x="263" y="357" type="curve" smooth="yes"/>
      <point x="653" y="357" type="line" smooth="yes"/>
      <point x="703" y="357"/>
      <point x="712" y="347"/>
      <point x="712" y="286" type="curve"/>
      <point x="728" y="286" type="line"/>
      <point x="728" y="444" type="line"/>
      <point x="712" y="444" type="line"/>
      <point x="712" y="383"/>
      <point x="703" y="373"/>
      <point x="653" y="373" type="curve" smooth="yes"/>
      <point x="263" y="373" type="line" smooth="yes"/>
      <point x="213" y="373"/>
      <point x="204" y="383"/>
    </contour>
  </outline>
</glyph>
<glyph name="I" format="2">
  <advance width="350"/>
  <unicode hex="0049"/>
  <anchor x="175" y="0" name="bottom"/>
  <anchor x="291" y="10" name="ogonek"/>
  <anchor x="175" y="700" name="top"/>
  <anchor x="50" y="700" name="topleft"/>
  <outline>
    <contour>
      <point x="168" y="0" type="curve"/>
      <point x="182" y="0" type="line"/>
      <point x="214" y="0"/>
      <point x="243" y="-5"/>
      <point x="301" y="-6" type="curve"/>
      <point x="307" y="-6"/>
      <point x="310" y="-4"/>
      <point x="310" y="3" type="curve"/>
      <point x="310" y="9"/>
      <point x="307" y="12"/>
      <point x="301" y="12" type="curve"/>
      <point x="236" y="13"/>
      <point x="209" y="10"/>
      <point x="210" y="71" type="curve"/>
      <point x="208" y="221"/>
      <point x="208" y="480"/>
      <point x="210" y="629" type="curve"/>
      <point x="209" y="690"/>
      <point x="236" y="687"/>
      <point x="301" y="689" type="curve"/>
      <point x="307" y="689"/>
      <point x="310" y="692"/>
      <point x="310" y="698" type="curve"/>
      <point x="310" y="705"/>
      <point x="307" y="707"/>
      <point x="301" y="707" type="curve"/>
      <point x="243" y="706"/>
      <point x="214" y="700"/>
      <point x="182" y="700" type="curve"/>
      <point x="168" y="700" type="line"/>
      <point x="136" y="700"/>
      <point x="107" y="705"/>
      <point x="49" y="706" type="curve"/>
      <point x="43" y="706"/>
      <point x="40" y="704"/>
      <point x="40" y="697" type="curve"/>
      <point x="40" y="691"/>
      <point x="43" y="688"/>
      <point x="49" y="688" type="curve"/>
      <point x="114" y="687"/>
      <point x="141" y="690"/>
      <point x="140" y="629" type="curve"/>
      <point x="142" y="479"/>
      <point x="142" y="220"/>
      <point x="140" y="71" type="curve"/>
      <point x="141" y="10"/>
      <point x="114" y="13"/>
      <point x="49" y="12" type="curve"/>
      <point x="43" y="12"/>
      <point x="40" y="9"/>
      <point x="40" y="3" type="curve"/>
      <point x="40" y="-4"/>
      <point x="43" y="-6"/>
      <point x="49" y="-6" type="curve"/>
      <point x="107" y="-5"/>
      <point x="136" y="0"/>
    </contour>
  </outline>
</glyph>
<glyph name="J" format="2">
  <advance width="512"/>
  <unicode hex="004A"/>
  <anchor x="258" y="0" name="bottom"/>
  <anchor x="338" y="700" name="top"/>
  <outline>
    <contour>
      <point x="384" y="149" type="curve" smooth="yes"/>
      <point x="384" y="206"/>
      <point x="384" y="446"/>
      <point x="384" y="629" type="curve"/>
      <point x="381" y="690"/>
      <point x="408" y="687"/>
      <point x="473" y="687" type="curve"/>
      <point x="479" y="687"/>
      <point x="482" y="690"/>
      <point x="482" y="696" type="curve"/>
      <point x="482" y="703"/>
      <point x="479" y="705"/>
      <point x="473" y="705" type="curve"/>
      <point x="415" y="705"/>
      <point x="386" y="700"/>
      <point x="354" y="700" type="curve"/>
      <point x="357" y="700" type="line"/>
      <point x="315" y="700"/>
      <point x="278" y="707"/>
      <point x="203" y="711" type="curve"/>
      <point x="195" y="711"/>
      <point x="191" y="709"/>
      <point x="191" y="702" type="curve"/>
      <point x="190" y="696"/>
      <point x="194" y="693"/>
      <point x="202" y="693" type="curve"/>
      <point x="286" y="689"/>
      <point x="321" y="690"/>
      <point x="318" y="629" type="curve"/>
      <point x="320" y="461"/>
      <point x="326" y="195"/>
      <point x="326" y="132" type="curve" smooth="yes"/>
      <point x="326" y="45"/>
      <point x="284" y="6"/>
      <point x="193" y="6" type="curve" smooth="yes"/>
      <point x="114" y="6"/>
      <point x="84" y="34"/>
      <point x="84" y="108" type="curve" smooth="yes"/>
      <point x="84" y="132"/>
      <point x="74" y="145"/>
      <point x="53" y="145" type="curve" smooth="yes"/>
      <point x="31" y="145"/>
      <point x="20" y="129"/>
      <point x="20" y="102" type="curve" smooth="yes"/>
      <point x="20" y="32"/>
      <point x="79" y="-9"/>
      <point x="185" y="-9" type="curve" smooth="yes"/>
      <point x="329" y="-9"/>
      <point x="384" y="35"/>
    </contour>
  </outline>
</glyph>
<glyph name="K" format="2">
  <advance width="811"/>
  <unicode hex="004B"/>
  <anchor x="406" y="0" name="bottom"/>
  <anchor x="406" y="700" name="top"/>
  <outline>
    <contour>
      <point x="651" y="0" type="curve"/>
      <point x="673" y="0" type="line"/>
      <point x="705" y="0"/>
      <point x="734" y="-5"/>
      <point x="792" y="-5" type="curve"/>
      <point x="798" y="-5"/>
      <point x="801" y="-3"/>
      <point x="801" y="4" type="curve"/>
      <point x="801" y="10"/>
      <point x="798" y="13"/>
      <point x="792" y="13" type="curve"/>
      <point x="727" y="13"/>
      <point x="695" y="6"/>
      <point x="659" y="56" type="curve"/>
      <point x="564" y="175"/>
      <point x="472" y="296"/>
      <point x="382" y="417" type="curve" smooth="yes"/>
      <point x="371" y="432"/>
      <point x="373" y="444"/>
      <point x="391" y="459" type="curve" smooth="yes"/>
      <point x="466" y="524"/>
      <point x="542" y="590"/>
      <point x="619" y="654" type="curve"/>
      <point x="664" y="695"/>
      <point x="697" y="687"/>
      <point x="762" y="687" type="curve"/>
      <point x="768" y="687"/>
      <point x="771" y="690"/>
      <point x="771" y="696" type="curve"/>
      <point x="771" y="703"/>
      <point x="768" y="705"/>
      <point x="762" y="705" type="curve"/>
      <point x="704" y="705"/>
      <point x="675" y="700"/>
      <point x="643" y="700" type="curve"/>
      <point x="621" y="700" type="line"/>
      <point x="591" y="700"/>
      <point x="563" y="703"/>
      <point x="453" y="703" type="curve"/>
      <point x="447" y="703"/>
      <point x="443" y="701"/>
      <point x="443" y="694" type="curve"/>
      <point x="443" y="688"/>
      <point x="447" y="685"/>
      <point x="451" y="685" type="curve"/>
      <point x="566" y="685"/>
      <point x="590" y="695"/>
      <point x="539" y="649" type="curve"/>
      <point x="440" y="551"/>
      <point x="341" y="454"/>
      <point x="239" y="358" type="curve" smooth="yes"/>
      <point x="226" y="345"/>
      <point x="219" y="342"/>
      <point x="214" y="342" type="curve" smooth="yes"/>
      <point x="207" y="342"/>
      <point x="204" y="347"/>
      <point x="204" y="368" type="curve"/>
      <point x="170" y="368" type="line"/>
      <point x="170" y="207" type="line"/>
      <point x="204" y="207" type="line"/>
      <point x="204" y="259"/>
      <point x="209" y="305"/>
      <point x="234" y="326" type="curve" smooth="yes"/>
      <point x="306" y="388" type="line" smooth="yes"/>
      <point x="313" y="394"/>
      <point x="317" y="396"/>
      <point x="320" y="396" type="curve" smooth="yes"/>
      <point x="325" y="396"/>
      <point x="329" y="391"/>
      <point x="336" y="382" type="curve" smooth="yes"/>
      <point x="419" y="275"/>
      <point x="500" y="167"/>
      <point x="578" y="59" type="curve"/>
      <point x="621" y="5"/>
      <point x="596" y="15"/>
      <point x="481" y="15" type="curve"/>
      <point x="477" y="15"/>
      <point x="473" y="12"/>
      <point x="473" y="6" type="curve"/>
      <point x="473" y="-1"/>
      <point x="477" y="-3"/>
      <point x="483" y="-3" type="curve"/>
      <point x="593" y="-3"/>
      <point x="621" y="0"/>
    </contour>
    <contour>
      <point x="138" y="0" type="curve"/>
      <point x="138" y="71" type="line"/>
      <point x="141" y="10"/>
      <point x="114" y="13"/>
      <point x="49" y="13" type="curve"/>
      <point x="43" y="13"/>
      <point x="40" y="10"/>
      <point x="40" y="4" type="curve"/>
      <point x="40" y="-3"/>
      <point x="43" y="-5"/>
      <point x="49" y="-5" type="curve"/>
      <point x="107" y="-5"/>
      <point x="136" y="0"/>
      <point x="168" y="0" type="curve"/>
      <point x="178" y="0" type="line"/>
      <point x="208" y="0"/>
      <point x="236" y="-3"/>
      <point x="346" y="-3" type="curve"/>
      <point x="352" y="-3"/>
      <point x="356" y="-1"/>
      <point x="356" y="6" type="curve"/>
      <point x="356" y="12"/>
      <point x="352" y="15"/>
      <point x="348" y="15" type="curve"/>
      <point x="233" y="15"/>
      <point x="205" y="4"/>
      <point x="205" y="73" type="curve"/>
      <point x="203" y="209"/>
      <point x="203" y="491"/>
      <point x="205" y="627" type="curve"/>
      <point x="205" y="696"/>
      <point x="233" y="685"/>
      <point x="348" y="685" type="curve"/>
      <point x="352" y="685"/>
      <point x="356" y="688"/>
      <point x="356" y="694" type="curve"/>
      <point x="356" y="701"/>
      <point x="352" y="703"/>
      <point x="346" y="703" type="curve"/>
      <point x="236" y="703"/>
      <point x="208" y="700"/>
      <point x="178" y="700" type="curve"/>
      <point x="168" y="700" type="line"/>
      <point x="136" y="700"/>
      <point x="107" y="705"/>
      <point x="49" y="706" type="curve"/>
      <point x="43" y="706"/>
      <point x="40" y="704"/>
      <point x="40" y="697" type="curve"/>
      <point x="40" y="691"/>
      <point x="43" y="688"/>
      <point x="49" y="688" type="curve"/>
      <point x="114" y="687"/>
      <point x="141" y="690"/>
      <point x="140" y="629" type="curve"/>
      <point x="143" y="452"/>
      <point x="142" y="121"/>
    </contour>
  </outline>
</glyph>
<glyph name="L" format="2">
  <advance width="686"/>
  <unicode hex="004C"/>
  <anchor x="342" y="0" name="bottom"/>
  <anchor x="375" y="388" name="center"/>
  <anchor x="212" y="700" name="top"/>
  <anchor x="663" y="700" name="topright"/>
  <outline>
    <contour>
      <point x="168" y="0" type="curve"/>
      <point x="208" y="0" type="line"/>
      <point x="203" y="38"/>
      <point x="202" y="456"/>
      <point x="205" y="629" type="curve"/>
      <point x="204" y="690"/>
      <point x="239" y="687"/>
      <point x="324" y="687" type="curve"/>
      <point x="332" y="687"/>
      <point x="335" y="690"/>
      <point x="335" y="696" type="curve"/>
      <point x="335" y="703"/>
      <point x="332" y="705"/>
      <point x="324" y="705" type="curve"/>
      <point x="248" y="705"/>
      <point x="211" y="700"/>
      <point x="169" y="700" type="curve"/>
      <point x="168" y="700" type="line"/>
      <point x="136" y="700"/>
      <point x="107" y="705"/>
      <point x="49" y="706" type="curve"/>
      <point x="43" y="706"/>
      <point x="40" y="704"/>
      <point x="40" y="697" type="curve"/>
      <point x="40" y="691"/>
      <point x="43" y="688"/>
      <point x="49" y="688" type="curve"/>
      <point x="114" y="687"/>
      <point x="141" y="690"/>
      <point x="140" y="629" type="curve"/>
      <point x="142" y="479"/>
      <point x="142" y="220"/>
      <point x="140" y="71" type="curve"/>
      <point x="141" y="10"/>
      <point x="114" y="13"/>
      <point x="49" y="13" type="curve"/>
      <point x="43" y="13"/>
      <point x="40" y="10"/>
      <point x="40" y="4" type="curve"/>
      <point x="40" y="-3"/>
      <point x="43" y="-5"/>
      <point x="49" y="-5" type="curve"/>
      <point x="107" y="-5"/>
      <point x="136" y="0"/>
    </contour>
    <contour>
      <point x="650" y="-6" type="curve" smooth="yes"/>
      <point x="657" y="-6"/>
      <point x="662" y="-3"/>
      <point x="661" y="5" type="curve" smooth="yes"/>
      <point x="659" y="19"/>
      <point x="654" y="40"/>
      <point x="654" y="80" type="curve" smooth="yes"/>
      <point x="654" y="144"/>
      <point x="659" y="175"/>
      <point x="661" y="208" type="curve" smooth="yes"/>
      <point x="662" y="217"/>
      <point x="657" y="220"/>
      <point x="650" y="220" type="curve" smooth="yes"/>
      <point x="643" y="220"/>
      <point x="639" y="216"/>
      <point x="639" y="208" type="curve" smooth="yes"/>
      <point x="639" y="33"/>
      <point x="623" y="13"/>
      <point x="272" y="13" type="curve" smooth="yes"/>
      <point x="208" y="13"/>
      <point x="206" y="23"/>
      <point x="206" y="45" type="curve"/>
      <point x="191" y="45" type="line"/>
      <point x="191" y="0" type="line"/>
      <point x="630" y="0"/>
      <point x="638" y="-6"/>
    </contour>
  </outline>
</glyph>
<glyph name="M" format="2">
  <advance width="1076"/>
  <unicode hex="004D"/>
  <anchor x="535" y="0" name="bottom"/>
  <anchor x="535" y="700" name="top"/>
  <outline>
    <contour>
      <point x="155" y="700" type="curve"/>
      <point x="129" y="700" type="line"/>
      <point x="103" y="700"/>
      <point x="80" y="705"/>
      <point x="34" y="705" type="curve"/>
      <point x="29" y="705"/>
      <point x="27" y="703"/>
      <point x="27" y="696" type="curve"/>
      <point x="27" y="690"/>
      <point x="29" y="687"/>
      <point x="34" y="687" type="curve"/>
      <point x="86" y="687"/>
      <point x="112" y="692"/>
      <point x="138" y="637" type="curve"/>
      <point x="145" y="624" type="line"/>
      <point x="146" y="623"/>
      <point x="149" y="617"/>
      <point x="149" y="616" type="curve" smooth="yes"/>
      <point x="152" y="583"/>
      <point x="138" y="227"/>
      <point x="129" y="71" type="curve"/>
      <point x="126" y="10"/>
      <point x="99" y="13"/>
      <point x="34" y="13" type="curve"/>
      <point x="28" y="13"/>
      <point x="25" y="10"/>
      <point x="25" y="4" type="curve"/>
      <point x="25" y="-3"/>
      <point x="28" y="-5"/>
      <point x="34" y="-5" type="curve"/>
      <point x="92" y="-5"/>
      <point x="121" y="0"/>
      <point x="153" y="0" type="curve"/>
      <point x="158" y="0" type="line"/>
      <point x="188" y="0"/>
      <point x="216" y="-3"/>
      <point x="326" y="-3" type="curve"/>
      <point x="332" y="-3"/>
      <point x="336" y="-1"/>
      <point x="336" y="6" type="curve"/>
      <point x="336" y="12"/>
      <point x="332" y="15"/>
      <point x="328" y="15" type="curve"/>
      <point x="213" y="15"/>
      <point x="185" y="4"/>
      <point x="185" y="73" type="curve"/>
      <point x="179" y="232"/>
      <point x="175" y="391"/>
      <point x="172" y="551" type="curve" smooth="yes"/>
      <point x="172" y="569"/>
      <point x="172" y="581"/>
      <point x="176" y="581" type="curve" smooth="yes"/>
      <point x="179" y="581"/>
      <point x="192" y="561"/>
      <point x="201" y="544" type="curve" smooth="yes"/>
      <point x="310" y="364"/>
      <point x="418" y="182"/>
      <point x="525" y="-2" type="curve" smooth="yes"/>
      <point x="532" y="-13"/>
      <point x="534" y="-12"/>
      <point x="539" y="-12" type="curve" smooth="yes"/>
      <point x="540" y="-12" type="line" smooth="yes"/>
      <point x="546" y="-12"/>
      <point x="547" y="-13"/>
      <point x="554" y="-1" type="curve" smooth="yes"/>
      <point x="658" y="191"/>
      <point x="758" y="384"/>
      <point x="862" y="572" type="curve" smooth="yes"/>
      <point x="870" y="587"/>
      <point x="875" y="593"/>
      <point x="877" y="593" type="curve" smooth="yes"/>
      <point x="879" y="593"/>
      <point x="881" y="589"/>
      <point x="881" y="564" type="curve" smooth="yes"/>
      <point x="879" y="404"/>
      <point x="881" y="237"/>
      <point x="880" y="73" type="curve"/>
      <point x="882" y="4"/>
      <point x="854" y="15"/>
      <point x="739" y="13" type="curve"/>
      <point x="735" y="13"/>
      <point x="731" y="10"/>
      <point x="731" y="4" type="curve"/>
      <point x="731" y="-3"/>
      <point x="735" y="-5"/>
      <point x="741" y="-5" type="curve"/>
      <point x="851" y="-3"/>
      <point x="879" y="0"/>
      <point x="909" y="0" type="curve"/>
      <point x="918" y="0" type="line"/>
      <point x="950" y="0"/>
      <point x="979" y="-5"/>
      <point x="1037" y="-5" type="curve"/>
      <point x="1043" y="-5"/>
      <point x="1046" y="-3"/>
      <point x="1046" y="4" type="curve"/>
      <point x="1046" y="10"/>
      <point x="1043" y="13"/>
      <point x="1037" y="13" type="curve"/>
      <point x="972" y="13"/>
      <point x="945" y="10"/>
      <point x="946" y="71" type="curve"/>
      <point x="942" y="221"/>
      <point x="941" y="480"/>
      <point x="943" y="629" type="curve"/>
      <point x="941" y="690"/>
      <point x="968" y="687"/>
      <point x="1033" y="687" type="curve"/>
      <point x="1039" y="687"/>
      <point x="1042" y="690"/>
      <point x="1042" y="696" type="curve"/>
      <point x="1042" y="703"/>
      <point x="1039" y="705"/>
      <point x="1033" y="705" type="curve"/>
      <point x="975" y="705"/>
      <point x="946" y="700"/>
      <point x="914" y="700" type="curve"/>
      <point x="903" y="700" type="line"/>
      <point x="873" y="700"/>
      <point x="845" y="703"/>
      <point x="735" y="703" type="curve"/>
      <point x="729" y="703"/>
      <point x="725" y="701"/>
      <point x="725" y="694" type="curve"/>
      <point x="725" y="688"/>
      <point x="729" y="685"/>
      <point x="733" y="685" type="curve"/>
      <point x="848" y="685"/>
      <point x="874" y="695"/>
      <point x="842" y="634" type="curve"/>
      <point x="758" y="455"/>
      <point x="672" y="278"/>
      <point x="584" y="101" type="curve" smooth="yes"/>
      <point x="577" y="85"/>
      <point x="569" y="72"/>
      <point x="564" y="72" type="curve" smooth="yes"/>
      <point x="562" y="72"/>
      <point x="558" y="74"/>
      <point x="550" y="88" type="curve" smooth="yes"/>
      <point x="442" y="266"/>
      <point x="331" y="451"/>
      <point x="222" y="637" type="curve"/>
      <point x="185" y="695"/>
      <point x="210" y="685"/>
      <point x="325" y="685" type="curve"/>
      <point x="329" y="685"/>
      <point x="333" y="688"/>
      <point x="333" y="694" type="curve"/>
      <point x="333" y="701"/>
      <point x="329" y="703"/>
      <point x="323" y="703" type="curve"/>
      <point x="213" y="703"/>
      <point x="185" y="700"/>
    </contour>
  </outline>
</glyph>
<glyph name="N" format="2">
  <advance width="986"/>
  <unicode hex="004E"/>
  <anchor x="493" y="0" name="bottom"/>
  <anchor x="493" y="700" name="top"/>
  <outline>
    <contour>
      <point x="203" y="0" type="curve"/>
      <point x="220" y="0" type="line"/>
      <point x="250" y="0"/>
      <point x="278" y="-3"/>
      <point x="388" y="-3" type="curve"/>
      <point x="394" y="-3"/>
      <point x="398" y="-1"/>
      <point x="398" y="6" type="curve"/>
      <point x="398" y="12"/>
      <point x="394" y="15"/>
      <point x="390" y="15" type="curve"/>
      <point x="275" y="15"/>
      <point x="247" y="4"/>
      <point x="242" y="73" type="curve"/>
      <point x="222" y="272"/>
      <point x="224" y="455"/>
      <point x="220" y="542" type="curve" smooth="yes"/>
      <point x="219" y="567"/>
      <point x="220" y="583"/>
      <point x="228" y="583" type="curve" smooth="yes"/>
      <point x="231" y="583"/>
      <point x="237" y="576"/>
      <point x="251" y="561" type="curve" smooth="yes"/>
      <point x="417" y="391"/>
      <point x="583" y="222"/>
      <point x="749" y="52" type="curve"/>
      <point x="799" y="4"/>
      <point x="780" y="15"/>
      <point x="688" y="15" type="curve"/>
      <point x="685" y="15"/>
      <point x="682" y="12"/>
      <point x="682" y="6" type="curve"/>
      <point x="682" y="-1"/>
      <point x="685" y="-3"/>
      <point x="690" y="-3" type="curve"/>
      <point x="778" y="-3"/>
      <point x="800" y="0"/>
      <point x="824" y="0" type="curve"/>
      <point x="795" y="0" type="line"/>
      <point x="827" y="0"/>
      <point x="856" y="-5"/>
      <point x="914" y="-5" type="curve"/>
      <point x="920" y="-5"/>
      <point x="923" y="-3"/>
      <point x="923" y="4" type="curve"/>
      <point x="923" y="10"/>
      <point x="920" y="13"/>
      <point x="914" y="13" type="curve"/>
      <point x="849" y="13"/>
      <point x="822" y="10"/>
      <point x="822" y="71" type="curve"/>
      <point x="818" y="221"/>
      <point x="823" y="480"/>
      <point x="838" y="630" type="curve"/>
      <point x="844" y="690"/>
      <point x="872" y="687"/>
      <point x="937" y="687" type="curve"/>
      <point x="943" y="687"/>
      <point x="946" y="690"/>
      <point x="946" y="696" type="curve"/>
      <point x="946" y="703"/>
      <point x="943" y="705"/>
      <point x="937" y="705" type="curve"/>
      <point x="879" y="705"/>
      <point x="850" y="700"/>
      <point x="818" y="700" type="curve"/>
      <point x="801" y="700" type="line"/>
      <point x="771" y="700"/>
      <point x="743" y="703"/>
      <point x="633" y="703" type="curve"/>
      <point x="627" y="703"/>
      <point x="623" y="701"/>
      <point x="623" y="694" type="curve"/>
      <point x="623" y="688"/>
      <point x="627" y="685"/>
      <point x="631" y="685" type="curve"/>
      <point x="746" y="685"/>
      <point x="774" y="696"/>
      <point x="781" y="628" type="curve"/>
      <point x="800" y="456"/>
      <point x="793" y="248"/>
      <point x="796" y="148" type="curve" smooth="yes"/>
      <point x="797" y="118"/>
      <point x="794" y="108"/>
      <point x="788" y="108" type="curve" smooth="yes"/>
      <point x="781" y="108"/>
      <point x="775" y="115"/>
      <point x="762" y="129" type="curve" smooth="yes"/>
      <point x="593" y="301"/>
      <point x="424" y="474"/>
      <point x="253" y="648" type="curve"/>
      <point x="203" y="696"/>
      <point x="222" y="685"/>
      <point x="314" y="685" type="curve"/>
      <point x="317" y="685"/>
      <point x="320" y="688"/>
      <point x="320" y="694" type="curve"/>
      <point x="320" y="701"/>
      <point x="317" y="703"/>
      <point x="312" y="703" type="curve"/>
      <point x="224" y="703"/>
      <point x="202" y="700"/>
      <point x="178" y="700" type="curve"/>
      <point x="153" y="700" type="line"/>
      <point x="121" y="700"/>
      <point x="92" y="705"/>
      <point x="34" y="705" type="curve"/>
      <point x="28" y="705"/>
      <point x="25" y="703"/>
      <point x="25" y="696" type="curve"/>
      <point x="25" y="690"/>
      <point x="28" y="687"/>
      <point x="34" y="687" type="curve"/>
      <point x="99" y="687"/>
      <point x="132" y="695"/>
      <point x="173" y="649" type="curve"/>
      <point x="189" y="633" type="line" smooth="yes"/>
      <point x="192" y="630"/>
      <point x="195" y="626"/>
      <point x="195" y="619" type="curve" smooth="yes"/>
      <point x="198" y="560"/>
      <point x="194" y="221"/>
      <point x="183" y="70" type="curve"/>
      <point x="177" y="10"/>
      <point x="149" y="13"/>
      <point x="84" y="13" type="curve"/>
      <point x="78" y="13"/>
      <point x="75" y="10"/>
      <point x="75" y="4" type="curve"/>
      <point x="75" y="-3"/>
      <point x="78" y="-5"/>
      <point x="84" y="-5" type="curve"/>
      <point x="142" y="-5"/>
      <point x="171" y="0"/>
    </contour>
  </outline>
</glyph>
<glyph name="O" format="2">
  <advance width="825"/>
  <unicode hex="004F"/>
  <anchor x="413" y="0" name="bottom"/>
  <anchor x="413" y="350" name="center"/>
  <anchor x="711" y="10" name="ogonek"/>
  <anchor x="407" y="700" name="top"/>
  <anchor x="60" y="700" name="topleft"/>
  <anchor x="765" y="700" name="topright"/>
  <outline>
    <contour>
      <point x="416" y="-9" type="curve" smooth="yes"/>
      <point x="635" y="-9"/>
      <point x="803" y="157"/>
      <point x="798" y="366" type="curve" smooth="yes"/>
      <point x="793" y="571"/>
      <point x="638" y="709"/>
      <point x="409" y="709" type="curve" smooth="yes"/>
      <point x="191" y="709"/>
      <point x="23" y="546"/>
      <point x="27" y="340" type="curve" smooth="yes"/>
      <point x="30" y="131"/>
      <point x="185" y="-9"/>
    </contour>
    <contour>
      <point x="97" y="382" type="curve" smooth="yes"/>
      <point x="92" y="570"/>
      <point x="211" y="693"/>
      <point x="396" y="693" type="curve" smooth="yes"/>
      <point x="590" y="693"/>
      <point x="723" y="549"/>
      <point x="728" y="328" type="curve" smooth="yes"/>
      <point x="733" y="136"/>
      <point x="614" y="11"/>
      <point x="429" y="11" type="curve" smooth="yes"/>
      <point x="235" y="11"/>
      <point x="102" y="158"/>
    </contour>
  </outline>
</glyph>
<glyph name="P" format="2">
  <advance width="746"/>
  <unicode hex="0050"/>
  <anchor x="200" y="0" name="bottom"/>
  <anchor x="200" y="700" name="top"/>
  <outline>
    <contour>
      <point x="193" y="161" type="line"/>
      <point x="212" y="161" type="line"/>
      <point x="212" y="193"/>
      <point x="226" y="197"/>
      <point x="307" y="197" type="curve" smooth="yes"/>
      <point x="572" y="197"/>
      <point x="719" y="287"/>
      <point x="719" y="445" type="curve" smooth="yes"/>
      <point x="719" y="597"/>
      <point x="562" y="700"/>
      <point x="325" y="700" type="curve" smooth="yes"/>
      <point x="270" y="700"/>
      <point x="177" y="700"/>
      <point x="162" y="700" type="curve"/>
      <point x="193" y="641" type="line"/>
      <point x="207" y="641" type="line"/>
      <point x="206" y="681"/>
      <point x="220" y="687"/>
      <point x="295" y="687" type="curve" smooth="yes"/>
      <point x="521" y="687"/>
      <point x="647" y="601"/>
      <point x="647" y="443" type="curve" smooth="yes"/>
      <point x="647" y="285"/>
      <point x="540" y="214"/>
      <point x="309" y="214" type="curve" smooth="yes"/>
      <point x="225" y="214"/>
      <point x="210" y="221"/>
      <point x="210" y="266" type="curve"/>
      <point x="193" y="266" type="line"/>
    </contour>
    <contour>
      <point x="178" y="0" type="curve"/>
      <point x="188" y="0" type="line"/>
      <point x="220" y="0"/>
      <point x="249" y="-5"/>
      <point x="307" y="-5" type="curve"/>
      <point x="313" y="-5"/>
      <point x="316" y="-3"/>
      <point x="316" y="4" type="curve"/>
      <point x="316" y="10"/>
      <point x="313" y="13"/>
      <point x="307" y="13" type="curve"/>
      <point x="242" y="13"/>
      <point x="215" y="10"/>
      <point x="214" y="71" type="curve"/>
      <point x="209" y="243"/>
      <point x="204" y="662"/>
      <point x="208" y="700" type="curve"/>
      <point x="168" y="700" type="line"/>
      <point x="136" y="700"/>
      <point x="107" y="705"/>
      <point x="49" y="705" type="curve"/>
      <point x="43" y="705"/>
      <point x="40" y="703"/>
      <point x="40" y="696" type="curve"/>
      <point x="40" y="690"/>
      <point x="43" y="687"/>
      <point x="49" y="687" type="curve"/>
      <point x="114" y="687"/>
      <point x="141" y="690"/>
      <point x="141" y="629" type="curve"/>
      <point x="146" y="480"/>
      <point x="149" y="220"/>
      <point x="149" y="71" type="curve"/>
      <point x="151" y="10"/>
      <point x="124" y="13"/>
      <point x="59" y="13" type="curve"/>
      <point x="53" y="13"/>
      <point x="50" y="10"/>
      <point x="50" y="4" type="curve"/>
      <point x="50" y="-3"/>
      <point x="53" y="-5"/>
      <point x="59" y="-5" type="curve"/>
      <point x="117" y="-5"/>
      <point x="146" y="0"/>
    </contour>
  </outline>
</glyph>
<glyph name="Q" format="2">
  <advance width="825"/>
  <unicode hex="0051"/>
  <anchor x="413" y="0" name="bottom"/>
  <anchor x="413" y="700" name="top"/>
  <outline>
    <contour>
      <point x="635" y="-23" type="curve" smooth="yes"/>
      <point x="699" y="-23"/>
      <point x="752" y="5"/>
      <point x="766" y="60" type="curve" smooth="yes"/>
      <point x="769" y="77"/>
      <point x="766" y="79"/>
      <point x="759" y="79" type="curve" smooth="yes"/>
      <point x="752" y="79"/>
      <point x="749" y="77"/>
      <point x="747" y="67" type="curve" smooth="yes"/>
      <point x="734" y="14"/>
      <point x="693" y="5"/>
      <point x="669" y="5" type="curve" smooth="yes"/>
      <point x="648" y="5"/>
      <point x="628" y="13"/>
      <point x="609" y="23" type="curve" smooth="yes"/>
      <point x="600" y="28"/>
      <point x="600" y="34"/>
      <point x="610" y="40" type="curve" smooth="yes"/>
      <point x="726" y="104"/>
      <point x="802" y="225"/>
      <point x="798" y="366" type="curve" smooth="yes"/>
      <point x="793" y="571"/>
      <point x="638" y="709"/>
      <point x="409" y="709" type="curve" smooth="yes"/>
      <point x="191" y="709"/>
      <point x="23" y="546"/>
      <point x="27" y="340" type="curve" smooth="yes"/>
      <point x="28" y="281"/>
      <point x="41" y="229"/>
      <point x="63" y="182" type="curve" smooth="yes"/>
      <point x="66" y="175"/>
      <point x="65" y="172"/>
      <point x="61" y="170" type="curve" smooth="yes"/>
      <point x="54" y="167"/>
      <point x="38" y="162"/>
      <point x="38" y="155" type="curve" smooth="yes"/>
      <point x="38" y="151"/>
      <point x="43" y="150"/>
      <point x="46" y="150" type="curve" smooth="yes"/>
      <point x="52" y="150"/>
      <point x="59" y="153"/>
      <point x="67" y="157" type="curve" smooth="yes"/>
      <point x="75" y="161"/>
      <point x="75" y="161"/>
      <point x="79" y="153" type="curve"/>
      <point x="144" y="53"/>
      <point x="264" y="-9"/>
      <point x="416" y="-9" type="curve" smooth="yes"/>
      <point x="451" y="-9"/>
      <point x="486" y="-5"/>
      <point x="518" y="4" type="curve" smooth="yes"/>
      <point x="523" y="5"/>
      <point x="525" y="5"/>
      <point x="532" y="2" type="curve" smooth="yes"/>
      <point x="559" y="-12"/>
      <point x="595" y="-23"/>
    </contour>
    <contour>
      <point x="429" y="11" type="curve" smooth="yes"/>
      <point x="303" y="11"/>
      <point x="202" y="73"/>
      <point x="146" y="179" type="curve" smooth="yes"/>
      <point x="141" y="188"/>
      <point x="145" y="191"/>
      <point x="188" y="191" type="curve" smooth="yes"/>
      <point x="340" y="191"/>
      <point x="399" y="96"/>
      <point x="484" y="31" type="curve" smooth="yes"/>
      <point x="494" y="24"/>
      <point x="496" y="18"/>
      <point x="481" y="15" type="curve" smooth="yes"/>
      <point x="464" y="12"/>
      <point x="447" y="11"/>
    </contour>
    <contour>
      <point x="578" y="46" type="curve" smooth="yes"/>
      <point x="573" y="47"/>
      <point x="569" y="51"/>
      <point x="558" y="60" type="curve" smooth="yes"/>
      <point x="474" y="128"/>
      <point x="400" y="203"/>
      <point x="223" y="203" type="curve" smooth="yes"/>
      <point x="193" y="203"/>
      <point x="166" y="201"/>
      <point x="143" y="198" type="curve" smooth="yes"/>
      <point x="138" y="197"/>
      <point x="136" y="199"/>
      <point x="134" y="206" type="curve"/>
      <point x="111" y="256"/>
      <point x="99" y="316"/>
      <point x="97" y="382" type="curve" smooth="yes"/>
      <point x="92" y="570"/>
      <point x="211" y="693"/>
      <point x="396" y="693" type="curve" smooth="yes"/>
      <point x="590" y="693"/>
      <point x="723" y="549"/>
      <point x="728" y="328" type="curve" smooth="yes"/>
      <point x="732" y="204"/>
      <point x="682" y="106"/>
      <point x="596" y="54" type="curve" smooth="yes"/>
      <point x="587" y="48"/>
      <point x="583" y="45"/>
    </contour>
  </outline>
</glyph>
<glyph name="R" format="2">
  <advance width="801"/>
  <unicode hex="0052"/>
  <anchor x="421" y="0" name="bottom"/>
  <anchor x="391" y="700" name="top"/>
  <outline>
    <contour>
      <point x="150" y="699" type="curve"/>
      <point x="150" y="641" type="line"/>
      <point x="206" y="641" type="line"/>
      <point x="206" y="677"/>
      <point x="211" y="687"/>
      <point x="295" y="687" type="curve" smooth="yes"/>
      <point x="550" y="687"/>
      <point x="667" y="608"/>
      <point x="667" y="435" type="curve" smooth="yes"/>
      <point x="667" y="286"/>
      <point x="543" y="205"/>
      <point x="314" y="205" type="curve" smooth="yes"/>
      <point x="217" y="205"/>
      <point x="203" y="203"/>
      <point x="203" y="261" type="curve"/>
      <point x="183" y="261" type="line"/>
      <point x="183" y="124" type="line"/>
      <point x="204" y="124" type="line"/>
      <point x="204" y="184"/>
      <point x="211" y="187"/>
      <point x="314" y="187" type="curve" smooth="yes"/>
      <point x="442" y="187"/>
      <point x="524" y="151"/>
      <point x="579" y="69" type="curve" smooth="yes"/>
      <point x="616" y="13"/>
      <point x="650" y="-10"/>
      <point x="700" y="-10" type="curve" smooth="yes"/>
      <point x="749" y="-10"/>
      <point x="779" y="20"/>
      <point x="792" y="70" type="curve" smooth="yes"/>
      <point x="796" y="87"/>
      <point x="793" y="93"/>
      <point x="785" y="93" type="curve" smooth="yes"/>
      <point x="778" y="93"/>
      <point x="774" y="87"/>
      <point x="772" y="75" type="curve" smooth="yes"/>
      <point x="767" y="43"/>
      <point x="751" y="30"/>
      <point x="722" y="30" type="curve" smooth="yes"/>
      <point x="696" y="30"/>
      <point x="676" y="44"/>
      <point x="648" y="85" type="curve" smooth="yes"/>
      <point x="602" y="155"/>
      <point x="554" y="180"/>
      <point x="446" y="190" type="curve" smooth="yes"/>
      <point x="443" y="190"/>
      <point x="442" y="191"/>
      <point x="442" y="195" type="curve" smooth="yes"/>
      <point x="442" y="198"/>
      <point x="443" y="199"/>
      <point x="447" y="200" type="curve" smooth="yes"/>
      <point x="576" y="219"/>
      <point x="739" y="274"/>
      <point x="739" y="438" type="curve" smooth="yes"/>
      <point x="739" y="603"/>
      <point x="570" y="700"/>
      <point x="342" y="700" type="curve" smooth="yes"/>
      <point x="177" y="700"/>
      <point x="168" y="699"/>
      <point x="156" y="699" type="curve" smooth="yes"/>
      <point x="154" y="699"/>
      <point x="152" y="699"/>
    </contour>
    <contour>
      <point x="168" y="0" type="curve"/>
      <point x="178" y="0" type="line"/>
      <point x="208" y="0"/>
      <point x="236" y="-3"/>
      <point x="346" y="-3" type="curve"/>
      <point x="352" y="-3"/>
      <point x="356" y="-1"/>
      <point x="356" y="6" type="curve"/>
      <point x="356" y="12"/>
      <point x="352" y="15"/>
      <point x="348" y="15" type="curve"/>
      <point x="233" y="15"/>
      <point x="205" y="4"/>
      <point x="205" y="73" type="curve"/>
      <point x="202" y="247"/>
      <point x="203" y="662"/>
      <point x="208" y="700" type="curve"/>
      <point x="168" y="700" type="line"/>
      <point x="136" y="700"/>
      <point x="107" y="705"/>
      <point x="49" y="706" type="curve"/>
      <point x="43" y="706"/>
      <point x="40" y="704"/>
      <point x="40" y="697" type="curve"/>
      <point x="40" y="691"/>
      <point x="43" y="688"/>
      <point x="49" y="688" type="curve"/>
      <point x="114" y="687"/>
      <point x="141" y="690"/>
      <point x="140" y="629" type="curve"/>
      <point x="142" y="479"/>
      <point x="142" y="220"/>
      <point x="140" y="71" type="curve"/>
      <point x="141" y="10"/>
      <point x="114" y="13"/>
      <point x="49" y="13" type="curve"/>
      <point x="43" y="13"/>
      <point x="40" y="10"/>
      <point x="40" y="4" type="curve"/>
      <point x="40" y="-3"/>
      <point x="43" y="-5"/>
      <point x="49" y="-5" type="curve"/>
      <point x="107" y="-5"/>
      <point x="136" y="0"/>
    </contour>
  </outline>
</glyph>
<glyph name="S" format="2">
  <advance width="660"/>
  <unicode hex="0053"/>
  <anchor x="330" y="0" name="bottom"/>
  <anchor x="330" y="700" name="top"/>
  <outline>
    <contour>
      <point x="321" y="710" type="curve" smooth="yes"/>
      <point x="132" y="710"/>
      <point x="27" y="647"/>
      <point x="27" y="546" type="curve" smooth="yes"/>
      <point x="27" y="461"/>
      <point x="90" y="417"/>
      <point x="296" y="349" type="curve" smooth="yes"/>
      <point x="511" y="278"/>
      <point x="576" y="230"/>
      <point x="576" y="148" type="curve" smooth="yes"/>
      <point x="576" y="58"/>
      <point x="497" y="7"/>
      <point x="354" y="7" type="curve" smooth="yes"/>
      <point x="122" y="7"/>
      <point x="52" y="49"/>
      <point x="52" y="191" type="curve" smooth="yes"/>
      <point x="52" y="210"/>
      <point x="54" y="220"/>
      <point x="41" y="220" type="curve" smooth="yes"/>
      <point x="34" y="220"/>
      <point x="30" y="217"/>
      <point x="30" y="209" type="curve" smooth="yes"/>
      <point x="30" y="198"/>
      <point x="37" y="132"/>
      <point x="37" y="73" type="curve" smooth="yes"/>
      <point x="37" y="28"/>
      <point x="33" y="14"/>
      <point x="31" y="8" type="curve"/>
      <point x="28" y="-9"/>
      <point x="35" y="-10"/>
      <point x="41" y="-10" type="curve" smooth="yes"/>
      <point x="60" y="-10"/>
      <point x="50" y="12"/>
      <point x="72" y="12" type="curve" smooth="yes"/>
      <point x="146" y="12"/>
      <point x="186" y="-10"/>
      <point x="356" y="-10" type="curve" smooth="yes"/>
      <point x="534" y="-10"/>
      <point x="633" y="60"/>
      <point x="633" y="180" type="curve" smooth="yes"/>
      <point x="633" y="277"/>
      <point x="559" y="335"/>
      <point x="360" y="401" type="curve" smooth="yes"/>
      <point x="134" y="476"/>
      <point x="81" y="510"/>
      <point x="81" y="572" type="curve" smooth="yes"/>
      <point x="81" y="652"/>
      <point x="172" y="697"/>
      <point x="339" y="697" type="curve" smooth="yes"/>
      <point x="519" y="697"/>
      <point x="587" y="646"/>
      <point x="587" y="509" type="curve" smooth="yes"/>
      <point x="587" y="490"/>
      <point x="585" y="480"/>
      <point x="598" y="480" type="curve" smooth="yes"/>
      <point x="605" y="480"/>
      <point x="609" y="483"/>
      <point x="609" y="491" type="curve" smooth="yes"/>
      <point x="609" y="502"/>
      <point x="602" y="552"/>
      <point x="602" y="615" type="curve" smooth="yes"/>
      <point x="602" y="662"/>
      <point x="606" y="686"/>
      <point x="608" y="692" type="curve"/>
      <point x="611" y="709"/>
      <point x="604" y="710"/>
      <point x="598" y="710" type="curve" smooth="yes"/>
      <point x="579" y="710"/>
      <point x="589" y="688"/>
      <point x="567" y="688" type="curve" smooth="yes"/>
      <point x="504" y="688"/>
      <point x="468" y="710"/>
    </contour>
  </outline>
</glyph>
<glyph name="T" format="2">
  <advance width="768"/>
  <unicode hex="0054"/>
  <anchor x="384" y="0" name="bottom"/>
  <anchor x="384" y="350" name="center"/>
  <anchor x="384" y="700" name="top"/>
  <outline>
    <contour>
      <point x="379" y="0" type="curve"/>
      <point x="389" y="0" type="line"/>
      <point x="419" y="0"/>
      <point x="447" y="-3"/>
      <point x="557" y="-3" type="curve"/>
      <point x="563" y="-3"/>
      <point x="567" y="-1"/>
      <point x="567" y="6" type="curve"/>
      <point x="567" y="12"/>
      <point x="563" y="15"/>
      <point x="559" y="15" type="curve"/>
      <point x="444" y="15"/>
      <point x="416" y="4"/>
      <point x="417" y="73" type="curve"/>
      <point x="413" y="250"/>
      <point x="413" y="578"/>
      <point x="417" y="698" type="curve"/>
      <point x="351" y="698" type="line"/>
      <point x="355" y="578"/>
      <point x="355" y="250"/>
      <point x="351" y="73" type="curve"/>
      <point x="352" y="4"/>
      <point x="324" y="15"/>
      <point x="209" y="15" type="curve"/>
      <point x="205" y="15"/>
      <point x="201" y="12"/>
      <point x="201" y="6" type="curve"/>
      <point x="201" y="-1"/>
      <point x="205" y="-3"/>
      <point x="211" y="-3" type="curve"/>
      <point x="321" y="-3"/>
      <point x="349" y="0"/>
    </contour>
    <contour>
      <point x="727" y="706" type="curve" smooth="yes"/>
      <point x="715" y="706"/>
      <point x="707" y="698"/>
      <point x="403" y="698" type="curve"/>
      <point x="403" y="661" type="line"/>
      <point x="416" y="661" type="line"/>
      <point x="417" y="684"/>
      <point x="420" y="685"/>
      <point x="469" y="685" type="curve" smooth="yes"/>
      <point x="700" y="685"/>
      <point x="716" y="667"/>
      <point x="716" y="492" type="curve" smooth="yes"/>
      <point x="716" y="484"/>
      <point x="720" y="480"/>
      <point x="727" y="480" type="curve" smooth="yes"/>
      <point x="734" y="480"/>
      <point x="739" y="483"/>
      <point x="738" y="492" type="curve" smooth="yes"/>
      <point x="736" y="525"/>
      <point x="731" y="556"/>
      <point x="731" y="620" type="curve" smooth="yes"/>
      <point x="731" y="660"/>
      <point x="736" y="685"/>
      <point x="738" y="695" type="curve" smooth="yes"/>
      <point x="739" y="703"/>
      <point x="734" y="706"/>
    </contour>
    <contour>
      <point x="41" y="706" type="curve" smooth="yes"/>
      <point x="34" y="706"/>
      <point x="29" y="703"/>
      <point x="30" y="695" type="curve" smooth="yes"/>
      <point x="32" y="681"/>
      <point x="37" y="660"/>
      <point x="37" y="620" type="curve" smooth="yes"/>
      <point x="37" y="556"/>
      <point x="32" y="525"/>
      <point x="30" y="492" type="curve" smooth="yes"/>
      <point x="29" y="483"/>
      <point x="34" y="480"/>
      <point x="41" y="480" type="curve" smooth="yes"/>
      <point x="48" y="480"/>
      <point x="52" y="484"/>
      <point x="52" y="492" type="curve" smooth="yes"/>
      <point x="52" y="667"/>
      <point x="68" y="685"/>
      <point x="299" y="685" type="curve" smooth="yes"/>
      <point x="348" y="685"/>
      <point x="351" y="684"/>
      <point x="352" y="661" type="curve"/>
      <point x="364" y="661" type="line"/>
      <point x="364" y="698" type="line"/>
      <point x="61" y="698"/>
      <point x="53" y="706"/>
    </contour>
  </outline>
</glyph>
<glyph name="U" format="2">
  <advance width="863"/>
  <unicode hex="0055"/>
  <anchor x="433" y="0" name="bottom"/>
  <anchor x="737" y="10" name="ogonek"/>
  <anchor x="433" y="700" name="top"/>
  <anchor x="793" y="700" name="topright"/>
  <outline>
    <contour>
      <point x="132" y="629" type="curve"/>
      <point x="134" y="547"/>
      <point x="135" y="422"/>
      <point x="136" y="250" type="curve" smooth="yes"/>
      <point x="137" y="71"/>
      <point x="245" y="-9"/>
      <point x="440" y="-9" type="curve" smooth="yes"/>
      <point x="627" y="-9"/>
      <point x="709" y="60"/>
      <point x="709" y="263" type="curve" smooth="yes"/>
      <point x="709" y="354"/>
      <point x="715" y="519"/>
      <point x="726" y="630" type="curve"/>
      <point x="731" y="690"/>
      <point x="759" y="687"/>
      <point x="824" y="687" type="curve"/>
      <point x="830" y="687"/>
      <point x="833" y="690"/>
      <point x="833" y="696" type="curve"/>
      <point x="833" y="703"/>
      <point x="830" y="705"/>
      <point x="824" y="705" type="curve"/>
      <point x="766" y="705"/>
      <point x="737" y="700"/>
      <point x="705" y="700" type="curve"/>
      <point x="682" y="700" type="line"/>
      <point x="652" y="700"/>
      <point x="624" y="703"/>
      <point x="514" y="703" type="curve"/>
      <point x="508" y="703"/>
      <point x="504" y="701"/>
      <point x="504" y="694" type="curve"/>
      <point x="504" y="688"/>
      <point x="508" y="685"/>
      <point x="512" y="685" type="curve"/>
      <point x="627" y="685"/>
      <point x="655" y="696"/>
      <point x="663" y="628" type="curve"/>
      <point x="683" y="472"/>
      <point x="686" y="266"/>
      <point x="686" y="239" type="curve" smooth="yes"/>
      <point x="686" y="71"/>
      <point x="605" y="8"/>
      <point x="444" y="8" type="curve" smooth="yes"/>
      <point x="283" y="8"/>
      <point x="201" y="70"/>
      <point x="198" y="237" type="curve" smooth="yes"/>
      <point x="195" y="421"/>
      <point x="196" y="552"/>
      <point x="198" y="627" type="curve"/>
      <point x="198" y="696"/>
      <point x="226" y="685"/>
      <point x="341" y="685" type="curve"/>
      <point x="345" y="685"/>
      <point x="349" y="688"/>
      <point x="349" y="694" type="curve"/>
      <point x="349" y="701"/>
      <point x="345" y="703"/>
      <point x="339" y="703" type="curve"/>
      <point x="229" y="703"/>
      <point x="201" y="700"/>
      <point x="171" y="700" type="curve"/>
      <point x="158" y="700" type="line"/>
      <point x="126" y="700"/>
      <point x="97" y="705"/>
      <point x="39" y="705" type="curve"/>
      <point x="33" y="705"/>
      <point x="30" y="703"/>
      <point x="30" y="696" type="curve"/>
      <point x="30" y="690"/>
      <point x="33" y="687"/>
      <point x="39" y="687" type="curve"/>
      <point x="104" y="687"/>
      <point x="131" y="690"/>
    </contour>
  </outline>
</glyph>
<glyph name="V" format="2">
  <advance width="963"/>
  <unicode hex="0056"/>
  <anchor x="482" y="0" name="bottom"/>
  <anchor x="482" y="700" name="top"/>
  <outline>
    <contour>
      <point x="154" y="700" type="curve"/>
      <point x="138" y="700" type="line"/>
      <point x="106" y="700"/>
      <point x="77" y="705"/>
      <point x="19" y="705" type="curve"/>
      <point x="13" y="705"/>
      <point x="10" y="703"/>
      <point x="10" y="696" type="curve"/>
      <point x="10" y="690"/>
      <point x="13" y="687"/>
      <point x="19" y="687" type="curve"/>
      <point x="84" y="687"/>
      <point x="115" y="692"/>
      <point x="140" y="637" type="curve"/>
      <point x="250" y="423"/>
      <point x="360" y="209"/>
      <point x="466" y="0" type="curve"/>
      <point x="471" y="-8"/>
      <point x="472" y="-9"/>
      <point x="480" y="-9" type="curve" smooth="yes"/>
      <point x="484" y="-9" type="line" smooth="yes"/>
      <point x="492" y="-9"/>
      <point x="494" y="-7"/>
      <point x="498" y="0" type="curve" smooth="yes"/>
      <point x="604" y="209"/>
      <point x="713" y="423"/>
      <point x="823" y="637" type="curve"/>
      <point x="848" y="692"/>
      <point x="879" y="687"/>
      <point x="944" y="687" type="curve"/>
      <point x="950" y="687"/>
      <point x="953" y="690"/>
      <point x="953" y="696" type="curve"/>
      <point x="953" y="703"/>
      <point x="950" y="705"/>
      <point x="944" y="705" type="curve"/>
      <point x="886" y="705"/>
      <point x="857" y="700"/>
      <point x="825" y="700" type="curve"/>
      <point x="820" y="700" type="line"/>
      <point x="790" y="700"/>
      <point x="762" y="703"/>
      <point x="652" y="703" type="curve"/>
      <point x="646" y="703"/>
      <point x="642" y="701"/>
      <point x="642" y="694" type="curve"/>
      <point x="642" y="688"/>
      <point x="646" y="685"/>
      <point x="650" y="685" type="curve"/>
      <point x="765" y="685"/>
      <point x="791" y="695"/>
      <point x="761" y="633" type="curve"/>
      <point x="683" y="455"/>
      <point x="605" y="278"/>
      <point x="527" y="101" type="curve" smooth="yes"/>
      <point x="516" y="76"/>
      <point x="512" y="72"/>
      <point x="507" y="72" type="curve" smooth="yes"/>
      <point x="503" y="72"/>
      <point x="499" y="75"/>
      <point x="493" y="88" type="curve" smooth="yes"/>
      <point x="401" y="270"/>
      <point x="309" y="453"/>
      <point x="217" y="635" type="curve"/>
      <point x="183" y="695"/>
      <point x="209" y="685"/>
      <point x="324" y="685" type="curve"/>
      <point x="328" y="685"/>
      <point x="332" y="688"/>
      <point x="332" y="694" type="curve"/>
      <point x="332" y="701"/>
      <point x="328" y="703"/>
      <point x="322" y="703" type="curve"/>
      <point x="212" y="703"/>
      <point x="184" y="700"/>
    </contour>
  </outline>
</glyph>
<glyph name="W" format="2">
  <advance width="1483"/>
  <unicode hex="0057"/>
  <anchor x="737" y="0" name="bottom"/>
  <anchor x="737" y="700" name="top"/>
  <outline>
    <contour>
      <point x="472" y="-9" type="curve" smooth="yes"/>
      <point x="487" y="-9" type="line" smooth="yes"/>
      <point x="488" y="-9"/>
      <point x="492" y="-9"/>
      <point x="492" y="-7" type="curve"/>
      <point x="569" y="165"/>
      <point x="647" y="336"/>
      <point x="724" y="506" type="curve" smooth="yes"/>
      <point x="735" y="533"/>
      <point x="738" y="536"/>
      <point x="740" y="536" type="curve" smooth="yes"/>
      <point x="743" y="536"/>
      <point x="748" y="530"/>
      <point x="758" y="505" type="curve" smooth="yes"/>
      <point x="835" y="335"/>
      <point x="913" y="165"/>
      <point x="990" y="-7" type="curve"/>
      <point x="990" y="-9"/>
      <point x="994" y="-9"/>
      <point x="995" y="-9" type="curve" smooth="yes"/>
      <point x="1010" y="-9" type="line" smooth="yes"/>
      <point x="1011" y="-9"/>
      <point x="1015" y="-9"/>
      <point x="1015" y="-7" type="curve"/>
      <point x="1124" y="209"/>
      <point x="1233" y="423"/>
      <point x="1343" y="637" type="curve"/>
      <point x="1368" y="692"/>
      <point x="1399" y="687"/>
      <point x="1464" y="687" type="curve"/>
      <point x="1470" y="687"/>
      <point x="1473" y="690"/>
      <point x="1473" y="696" type="curve"/>
      <point x="1473" y="703"/>
      <point x="1470" y="705"/>
      <point x="1464" y="705" type="curve"/>
      <point x="1406" y="705"/>
      <point x="1377" y="700"/>
      <point x="1345" y="700" type="curve"/>
      <point x="1344" y="700" type="line"/>
      <point x="1314" y="700"/>
      <point x="1286" y="703"/>
      <point x="1176" y="703" type="curve"/>
      <point x="1170" y="703"/>
      <point x="1166" y="701"/>
      <point x="1166" y="694" type="curve"/>
      <point x="1166" y="688"/>
      <point x="1170" y="685"/>
      <point x="1174" y="685" type="curve"/>
      <point x="1289" y="685"/>
      <point x="1315" y="695"/>
      <point x="1284" y="633" type="curve"/>
      <point x="1206" y="458"/>
      <point x="1127" y="283"/>
      <point x="1049" y="109" type="curve" smooth="yes"/>
      <point x="1042" y="92"/>
      <point x="1034" y="72"/>
      <point x="1029" y="72" type="curve" smooth="yes"/>
      <point x="1023" y="72"/>
      <point x="1015" y="91"/>
      <point x="1006" y="113" type="curve" smooth="yes"/>
      <point x="929" y="286"/>
      <point x="852" y="459"/>
      <point x="775" y="633" type="curve"/>
      <point x="744" y="695"/>
      <point x="770" y="685"/>
      <point x="885" y="685" type="curve"/>
      <point x="889" y="685"/>
      <point x="893" y="688"/>
      <point x="893" y="694" type="curve"/>
      <point x="893" y="701"/>
      <point x="889" y="703"/>
      <point x="883" y="703" type="curve"/>
      <point x="773" y="703"/>
      <point x="745" y="700"/>
      <point x="715" y="700" type="curve"/>
      <point x="705" y="700" type="line"/>
      <point x="675" y="700"/>
      <point x="647" y="703"/>
      <point x="537" y="703" type="curve"/>
      <point x="531" y="703"/>
      <point x="527" y="701"/>
      <point x="527" y="694" type="curve"/>
      <point x="527" y="688"/>
      <point x="531" y="685"/>
      <point x="535" y="685" type="curve"/>
      <point x="650" y="685"/>
      <point x="679" y="697"/>
      <point x="703" y="632" type="curve"/>
      <point x="718" y="596" type="line"/>
      <point x="652" y="433"/>
      <point x="585" y="271"/>
      <point x="519" y="110" type="curve" smooth="yes"/>
      <point x="513" y="93"/>
      <point x="506" y="73"/>
      <point x="502" y="73" type="curve" smooth="yes"/>
      <point x="497" y="73"/>
      <point x="489" y="91"/>
      <point x="479" y="112" type="curve" smooth="yes"/>
      <point x="391" y="286"/>
      <point x="303" y="461"/>
      <point x="215" y="635" type="curve"/>
      <point x="181" y="695"/>
      <point x="207" y="685"/>
      <point x="322" y="685" type="curve"/>
      <point x="326" y="685"/>
      <point x="330" y="688"/>
      <point x="330" y="694" type="curve"/>
      <point x="330" y="701"/>
      <point x="326" y="703"/>
      <point x="320" y="703" type="curve"/>
      <point x="210" y="703"/>
      <point x="182" y="700"/>
      <point x="152" y="700" type="curve"/>
      <point x="138" y="700" type="line"/>
      <point x="106" y="700"/>
      <point x="77" y="705"/>
      <point x="19" y="705" type="curve"/>
      <point x="13" y="705"/>
      <point x="10" y="703"/>
      <point x="10" y="696" type="curve"/>
      <point x="10" y="690"/>
      <point x="13" y="687"/>
      <point x="19" y="687" type="curve"/>
      <point x="84" y="687"/>
      <point x="115" y="692"/>
      <point x="140" y="637" type="curve"/>
      <point x="249" y="423"/>
      <point x="358" y="209"/>
      <point x="467" y="-7" type="curve"/>
      <point x="467" y="-9"/>
      <point x="471" y="-9"/>
    </contour>
  </outline>
</glyph>
<glyph name="X" format="2">
  <advance width="932"/>
  <unicode hex="0058"/>
  <guideline x="-7" y="575" angle="90"/>
  <guideline x="913" y="575" angle="90"/>
  <anchor x="463" y="0" name="bottom"/>
  <anchor x="463" y="700" name="top"/>
  <outline>
    <contour>
      <point x="138" y="0" type="curve"/>
      <point x="147" y="0" type="line"/>
      <point x="177" y="0"/>
      <point x="205" y="-3"/>
      <point x="315" y="-3" type="curve"/>
      <point x="321" y="-3"/>
      <point x="325" y="-1"/>
      <point x="325" y="6" type="curve"/>
      <point x="325" y="12"/>
      <point x="321" y="15"/>
      <point x="317" y="15" type="curve"/>
      <point x="202" y="15"/>
      <point x="177" y="5"/>
      <point x="221" y="58" type="curve"/>
      <point x="292" y="149"/>
      <point x="364" y="240"/>
      <point x="432" y="330" type="curve" smooth="yes"/>
      <point x="441" y="341"/>
      <point x="447" y="341"/>
      <point x="458" y="330" type="curve" smooth="yes"/>
      <point x="543" y="241"/>
      <point x="628" y="147"/>
      <point x="715" y="53" type="curve"/>
      <point x="764" y="5"/>
      <point x="740" y="15"/>
      <point x="625" y="15" type="curve"/>
      <point x="621" y="15"/>
      <point x="617" y="12"/>
      <point x="617" y="6" type="curve"/>
      <point x="617" y="-1"/>
      <point x="621" y="-3"/>
      <point x="627" y="-3" type="curve"/>
      <point x="737" y="-3"/>
      <point x="765" y="0"/>
      <point x="795" y="0" type="curve"/>
      <point x="822" y="0" type="line"/>
      <point x="854" y="0"/>
      <point x="883" y="-4"/>
      <point x="921" y="-4" type="curve" smooth="yes"/>
      <point x="927" y="-4"/>
      <point x="932" y="-2"/>
      <point x="932" y="5" type="curve" smooth="yes"/>
      <point x="932" y="11"/>
      <point x="927" y="14"/>
      <point x="921" y="14" type="curve" smooth="yes"/>
      <point x="876" y="14"/>
      <point x="843" y="5"/>
      <point x="772" y="81" type="curve" smooth="yes"/>
      <point x="700" y="158"/>
      <point x="602" y="263"/>
      <point x="502" y="370" type="curve" smooth="yes"/>
      <point x="494" y="378"/>
      <point x="495" y="387"/>
      <point x="505" y="397" type="curve" smooth="yes"/>
      <point x="583" y="482"/>
      <point x="666" y="565"/>
      <point x="746" y="648" type="curve"/>
      <point x="786" y="694"/>
      <point x="819" y="687"/>
      <point x="884" y="687" type="curve"/>
      <point x="890" y="687"/>
      <point x="893" y="690"/>
      <point x="893" y="696" type="curve"/>
      <point x="893" y="703"/>
      <point x="890" y="705"/>
      <point x="884" y="705" type="curve"/>
      <point x="826" y="705"/>
      <point x="797" y="700"/>
      <point x="765" y="700" type="curve"/>
      <point x="755" y="700" type="line"/>
      <point x="725" y="700"/>
      <point x="697" y="703"/>
      <point x="587" y="703" type="curve"/>
      <point x="581" y="703"/>
      <point x="577" y="701"/>
      <point x="577" y="694" type="curve"/>
      <point x="577" y="688"/>
      <point x="581" y="685"/>
      <point x="585" y="685" type="curve"/>
      <point x="700" y="685"/>
      <point x="725" y="695"/>
      <point x="680" y="643" type="curve"/>
      <point x="616" y="562"/>
      <point x="552" y="481"/>
      <point x="487" y="407" type="curve" smooth="yes"/>
      <point x="477" y="395"/>
      <point x="471" y="395"/>
      <point x="461" y="407" type="curve" smooth="yes"/>
      <point x="391" y="486"/>
      <point x="319" y="565"/>
      <point x="247" y="646" type="curve"/>
      <point x="199" y="695"/>
      <point x="223" y="685"/>
      <point x="338" y="685" type="curve"/>
      <point x="342" y="685"/>
      <point x="346" y="688"/>
      <point x="346" y="694" type="curve"/>
      <point x="346" y="701"/>
      <point x="342" y="703"/>
      <point x="336" y="703" type="curve"/>
      <point x="226" y="703"/>
      <point x="198" y="700"/>
      <point x="168" y="700" type="curve"/>
      <point x="143" y="700" type="line"/>
      <point x="111" y="700"/>
      <point x="82" y="705"/>
      <point x="24" y="705" type="curve"/>
      <point x="18" y="705"/>
      <point x="15" y="703"/>
      <point x="15" y="696" type="curve"/>
      <point x="15" y="690"/>
      <point x="18" y="687"/>
      <point x="24" y="687" type="curve"/>
      <point x="89" y="687"/>
      <point x="122" y="694"/>
      <point x="161" y="648" type="curve"/>
      <point x="247" y="556"/>
      <point x="330" y="464"/>
      <point x="415" y="371" type="curve" smooth="yes"/>
      <point x="425" y="360"/>
      <point x="427" y="353"/>
      <point x="419" y="345" type="curve" smooth="yes"/>
      <point x="330" y="248"/>
      <point x="242" y="150"/>
      <point x="155" y="53" type="curve"/>
      <point x="117" y="6"/>
      <point x="84" y="13"/>
      <point x="19" y="13" type="curve"/>
      <point x="13" y="13"/>
      <point x="10" y="10"/>
      <point x="10" y="4" type="curve"/>
      <point x="10" y="-3"/>
      <point x="13" y="-5"/>
      <point x="19" y="-5" type="curve"/>
      <point x="77" y="-5"/>
      <point x="106" y="0"/>
    </contour>
  </outline>
</glyph>
<glyph name="Y" format="2">
  <advance width="939"/>
  <unicode hex="0059"/>
  <anchor x="471" y="0" name="bottom"/>
  <anchor x="471" y="700" name="top"/>
  <anchor x="251" y="700" name="topleft"/>
  <outline>
    <contour>
      <point x="153" y="700" type="curve"/>
      <point x="138" y="700" type="line"/>
      <point x="106" y="700"/>
      <point x="77" y="705"/>
      <point x="19" y="705" type="curve"/>
      <point x="13" y="705"/>
      <point x="10" y="703"/>
      <point x="10" y="696" type="curve"/>
      <point x="10" y="690"/>
      <point x="13" y="687"/>
      <point x="19" y="687" type="curve"/>
      <point x="84" y="687"/>
      <point x="116" y="694"/>
      <point x="151" y="643" type="curve"/>
      <point x="244" y="521"/>
      <point x="339" y="399"/>
      <point x="433" y="275" type="curve" smooth="yes"/>
      <point x="437" y="270"/>
      <point x="439" y="265"/>
      <point x="439" y="256" type="curve" smooth="yes"/>
      <point x="439" y="185"/>
      <point x="439" y="119"/>
      <point x="439" y="71" type="curve"/>
      <point x="440" y="10"/>
      <point x="413" y="13"/>
      <point x="348" y="13" type="curve"/>
      <point x="342" y="13"/>
      <point x="339" y="10"/>
      <point x="339" y="4" type="curve"/>
      <point x="339" y="-3"/>
      <point x="342" y="-5"/>
      <point x="348" y="-5" type="curve"/>
      <point x="406" y="-5"/>
      <point x="435" y="0"/>
      <point x="467" y="0" type="curve"/>
      <point x="477" y="0" type="line"/>
      <point x="509" y="0"/>
      <point x="538" y="-5"/>
      <point x="596" y="-5" type="curve"/>
      <point x="602" y="-5"/>
      <point x="605" y="-3"/>
      <point x="605" y="4" type="curve"/>
      <point x="605" y="10"/>
      <point x="602" y="13"/>
      <point x="596" y="13" type="curve"/>
      <point x="531" y="13"/>
      <point x="504" y="10"/>
      <point x="503" y="71" type="curve"/>
      <point x="502" y="122"/>
      <point x="501" y="187"/>
      <point x="500" y="255" type="curve" smooth="yes"/>
      <point x="500" y="264"/>
      <point x="502" y="269"/>
      <point x="505" y="274" type="curve"/>
      <point x="600" y="398"/>
      <point x="694" y="521"/>
      <point x="788" y="644" type="curve"/>
      <point x="823" y="694"/>
      <point x="855" y="687"/>
      <point x="920" y="687" type="curve"/>
      <point x="926" y="687"/>
      <point x="929" y="690"/>
      <point x="929" y="696" type="curve"/>
      <point x="929" y="703"/>
      <point x="926" y="705"/>
      <point x="920" y="705" type="curve"/>
      <point x="862" y="705"/>
      <point x="833" y="700"/>
      <point x="801" y="700" type="curve"/>
      <point x="800" y="700" type="line"/>
      <point x="770" y="700"/>
      <point x="742" y="703"/>
      <point x="632" y="703" type="curve"/>
      <point x="626" y="703"/>
      <point x="622" y="701"/>
      <point x="622" y="694" type="curve"/>
      <point x="622" y="688"/>
      <point x="626" y="685"/>
      <point x="630" y="685" type="curve"/>
      <point x="745" y="685"/>
      <point x="770" y="695"/>
      <point x="730" y="639" type="curve"/>
      <point x="662" y="536"/>
      <point x="594" y="434"/>
      <point x="526" y="332" type="curve" smooth="yes"/>
      <point x="504" y="298"/>
      <point x="495" y="297"/>
      <point x="490" y="297" type="curve" smooth="yes"/>
      <point x="482" y="297"/>
      <point x="471" y="303"/>
      <point x="441" y="344" type="curve" smooth="yes"/>
      <point x="370" y="443"/>
      <point x="298" y="541"/>
      <point x="226" y="641" type="curve"/>
      <point x="183" y="695"/>
      <point x="208" y="685"/>
      <point x="323" y="685" type="curve"/>
      <point x="327" y="685"/>
      <point x="331" y="688"/>
      <point x="331" y="694" type="curve"/>
      <point x="331" y="701"/>
      <point x="327" y="703"/>
      <point x="321" y="703" type="curve"/>
      <point x="211" y="703"/>
      <point x="183" y="700"/>
    </contour>
  </outline>
</glyph>
<glyph name="Z" format="2">
  <advance width="754"/>
  <unicode hex="005A"/>
  <anchor x="382" y="0" name="bottom"/>
  <anchor x="382" y="350" name="center"/>
  <anchor x="382" y="700" name="top"/>
  <outline>
    <contour>
      <point x="128" y="0" type="curve"/>
      <point x="179" y="0" type="line"/>
      <point x="200" y="42"/>
      <point x="485" y="479"/>
      <point x="595" y="642" type="curve"/>
      <point x="628" y="693"/>
      <point x="660" y="687"/>
      <point x="725" y="687" type="curve"/>
      <point x="731" y="687"/>
      <point x="734" y="690"/>
      <point x="734" y="696" type="curve"/>
      <point x="734" y="703"/>
      <point x="731" y="705"/>
      <point x="725" y="705" type="curve"/>
      <point x="667" y="705"/>
      <point x="638" y="700"/>
      <point x="606" y="700" type="curve"/>
      <point x="556" y="700" type="line"/>
      <point x="479" y="574"/>
      <point x="255" y="231"/>
      <point x="138" y="59" type="curve"/>
      <point x="106" y="7"/>
      <point x="74" y="13"/>
      <point x="9" y="13" type="curve"/>
      <point x="3" y="13"/>
      <point x="0" y="10"/>
      <point x="0" y="4" type="curve"/>
      <point x="0" y="-3"/>
      <point x="3" y="-5"/>
      <point x="9" y="-5" type="curve"/>
      <point x="67" y="-5"/>
      <point x="96" y="0"/>
    </contour>
    <contour>
      <point x="87" y="706" type="curve" smooth="yes"/>
      <point x="80" y="706"/>
      <point x="75" y="703"/>
      <point x="76" y="695" type="curve" smooth="yes"/>
      <point x="78" y="681"/>
      <point x="83" y="660"/>
      <point x="83" y="620" type="curve" smooth="yes"/>
      <point x="83" y="556"/>
      <point x="78" y="525"/>
      <point x="76" y="492" type="curve" smooth="yes"/>
      <point x="75" y="483"/>
      <point x="80" y="480"/>
      <point x="87" y="480" type="curve" smooth="yes"/>
      <point x="94" y="480"/>
      <point x="98" y="484"/>
      <point x="98" y="492" type="curve" smooth="yes"/>
      <point x="98" y="666"/>
      <point x="87" y="687"/>
      <point x="489" y="687" type="curve" smooth="yes"/>
      <point x="538" y="687"/>
      <point x="548" y="684"/>
      <point x="497" y="604" type="curve"/>
      <point x="565" y="664" type="line"/>
      <point x="565" y="700" type="line"/>
      <point x="79" y="700"/>
      <point x="98" y="706"/>
    </contour>
    <contour>
      <point x="664" y="-6" type="curve" smooth="yes"/>
      <point x="671" y="-6"/>
      <point x="676" y="-3"/>
      <point x="675" y="5" type="curve" smooth="yes"/>
      <point x="673" y="19"/>
      <point x="668" y="40"/>
      <point x="668" y="80" type="curve" smooth="yes"/>
      <point x="668" y="144"/>
      <point x="673" y="175"/>
      <point x="675" y="208" type="curve" smooth="yes"/>
      <point x="676" y="217"/>
      <point x="671" y="220"/>
      <point x="664" y="220" type="curve" smooth="yes"/>
      <point x="657" y="220"/>
      <point x="653" y="216"/>
      <point x="653" y="208" type="curve" smooth="yes"/>
      <point x="653" y="34"/>
      <point x="664" y="14"/>
      <point x="245" y="14" type="curve" smooth="yes"/>
      <point x="185" y="14"/>
      <point x="201" y="38"/>
      <point x="237" y="96" type="curve"/>
      <point x="169" y="36" type="line"/>
      <point x="169" y="0" type="line"/>
      <point x="672" y="0"/>
      <point x="653" y="-6"/>
    </contour>
  </outline>
</glyph>
<glyph name="bracketleft" format="2">
  <advance width="169"/>
  <unicode hex="005B"/>
  <outline>
    <component base="_bracketside" xOffset="-165" yOffset="65" identifier="A1FFCC62"/>
    <contour>
      <point x="27" y="339" type="line"/>
      <point x="27" y="103" type="line" smooth="yes"/>
      <point x="27" y="-47"/>
      <point x="51" y="-97"/>
      <point x="127" y="-97" type="curve" smooth="yes"/>
      <point x="142" y="-97" type="line" smooth="yes"/>
      <point x="153" y="-97"/>
      <point x="162" y="-96"/>
      <point x="162" y="-90" type="curve" smooth="yes"/>
      <point x="162" y="-87"/>
      <point x="158" y="-84"/>
      <point x="147" y="-84" type="curve" smooth="yes"/>
      <point x="101" y="-84"/>
      <point x="84" y="-43"/>
      <point x="84" y="79" type="curve" smooth="yes"/>
      <point x="84" y="339" type="line"/>
    </contour>
  </outline>
</glyph>
<glyph name="backslash" format="2">
  <advance width="754"/>
  <unicode hex="005C"/>
  <outline>
    <contour>
      <point x="727" y="-10" type="curve" smooth="yes"/>
      <point x="732" y="-10"/>
      <point x="741" y="-7"/>
      <point x="735" y="0" type="curve" smooth="yes"/>
      <point x="519" y="220"/>
      <point x="304" y="442"/>
      <point x="88" y="664" type="curve" smooth="yes"/>
      <point x="71" y="682"/>
      <point x="46" y="710"/>
      <point x="27" y="710" type="curve" smooth="yes"/>
      <point x="22" y="710"/>
      <point x="14" y="708"/>
      <point x="21" y="700" type="curve" smooth="yes"/>
      <point x="237" y="480"/>
      <point x="452" y="258"/>
      <point x="668" y="36" type="curve" smooth="yes"/>
      <point x="685" y="18"/>
      <point x="706" y="-10"/>
    </contour>
  </outline>
</glyph>
<glyph name="bracketright" format="2">
  <advance width="169"/>
  <unicode hex="005D"/>
  <outline>
    <contour>
      <point x="142" y="339" type="line"/>
      <point x="142" y="575" type="line" smooth="yes"/>
      <point x="142" y="725"/>
      <point x="118" y="775"/>
      <point x="42" y="775" type="curve" smooth="yes"/>
      <point x="27" y="775" type="line" smooth="yes"/>
      <point x="16" y="775"/>
      <point x="7" y="774"/>
      <point x="7" y="768" type="curve" smooth="yes"/>
      <point x="7" y="765"/>
      <point x="11" y="762"/>
      <point x="22" y="762" type="curve" smooth="yes"/>
      <point x="68" y="762"/>
      <point x="85" y="721"/>
      <point x="85" y="599" type="curve" smooth="yes"/>
      <point x="85" y="339" type="line"/>
    </contour>
    <component base="_bracketside" xScale="-1" yScale="-1" xOffset="334" yOffset="613" identifier="AD4C2B25"/>
  </outline>
</glyph>
<glyph name="asciicircum" format="2">
  <advance width="343"/>
  <unicode hex="005E"/>
  <outline>
    <contour>
      <point x="28" y="499" type="curve" smooth="yes"/>
      <point x="46" y="499"/>
      <point x="110" y="572"/>
      <point x="142" y="600" type="curve" smooth="yes"/>
      <point x="149" y="606"/>
      <point x="156" y="613"/>
      <point x="162" y="613" type="curve" smooth="yes"/>
      <point x="168" y="613"/>
      <point x="172" y="608"/>
      <point x="181" y="600" type="curve" smooth="yes"/>
      <point x="209" y="576"/>
      <point x="277" y="499"/>
      <point x="305" y="499" type="curve" smooth="yes"/>
      <point x="313" y="499"/>
      <point x="316" y="502"/>
      <point x="316" y="505" type="curve" smooth="yes"/>
      <point x="316" y="518"/>
      <point x="241" y="559"/>
      <point x="203" y="644" type="curve" smooth="yes"/>
      <point x="195" y="660"/>
      <point x="193" y="676"/>
      <point x="175" y="676" type="curve" smooth="yes"/>
      <point x="161" y="676"/>
      <point x="153" y="666"/>
      <point x="140" y="646" type="curve" smooth="yes"/>
      <point x="92" y="569"/>
      <point x="17" y="517"/>
      <point x="17" y="505" type="curve" smooth="yes"/>
      <point x="17" y="502"/>
      <point x="20" y="499"/>
    </contour>
  </outline>
</glyph>
<glyph name="underscore" format="2">
  <advance width="285"/>
  <unicode hex="005F"/>
  <outline>
    <contour>
      <point x="29" y="-74" type="curve" smooth="yes"/>
      <point x="93" y="-72"/>
      <point x="187" y="-72"/>
      <point x="251" y="-74" type="curve" smooth="yes"/>
      <point x="261" y="-74"/>
      <point x="264" y="-69"/>
      <point x="265" y="-62" type="curve" smooth="yes"/>
      <point x="266" y="-52"/>
      <point x="268" y="-32"/>
      <point x="268" y="-29" type="curve" smooth="yes"/>
      <point x="268" y="-25"/>
      <point x="264" y="-21"/>
      <point x="256" y="-21" type="curve" smooth="yes"/>
      <point x="192" y="-23"/>
      <point x="98" y="-23"/>
      <point x="34" y="-21" type="curve" smooth="yes"/>
      <point x="24" y="-21"/>
      <point x="21" y="-26"/>
      <point x="20" y="-33" type="curve" smooth="yes"/>
      <point x="19" y="-43"/>
      <point x="17" y="-63"/>
      <point x="17" y="-66" type="curve" smooth="yes"/>
      <point x="17" y="-70"/>
      <point x="21" y="-74"/>
    </contour>
  </outline>
</glyph>
<glyph name="a" format="2">
  <advance width="708"/>
  <unicode hex="0061"/>
  <anchor x="369" y="0" name="bottom"/>
  <anchor x="657" y="10" name="ogonek"/>
  <anchor x="339" y="500" name="top"/>
  <outline>
    <contour>
      <point x="521" y="376" type="curve" smooth="yes"/>
      <point x="521" y="230" type="line" smooth="yes"/>
      <point x="521" y="218"/>
      <point x="519" y="212"/>
      <point x="507" y="212" type="curve" smooth="yes"/>
      <point x="163" y="212"/>
      <point x="50" y="161"/>
      <point x="50" y="89" type="curve" smooth="yes"/>
      <point x="50" y="27"/>
      <point x="137" y="-10"/>
      <point x="281" y="-10" type="curve" smooth="yes"/>
      <point x="381" y="-10"/>
      <point x="440" y="7"/>
      <point x="483" y="42" type="curve" smooth="yes"/>
      <point x="506" y="61"/>
      <point x="513" y="73"/>
      <point x="516" y="73" type="curve" smooth="yes"/>
      <point x="520" y="73"/>
      <point x="520" y="61"/>
      <point x="521" y="51" type="curve" smooth="yes"/>
      <point x="526" y="13"/>
      <point x="553" y="-10"/>
      <point x="596" y="-10" type="curve" smooth="yes"/>
      <point x="645" y="-10"/>
      <point x="672" y="15"/>
      <point x="687" y="110" type="curve" smooth="yes"/>
      <point x="688" y="120"/>
      <point x="692" y="133"/>
      <point x="679" y="133" type="curve" smooth="yes"/>
      <point x="671" y="133"/>
      <point x="669" y="132"/>
      <point x="668" y="115" type="curve" smooth="yes"/>
      <point x="662" y="53"/>
      <point x="648" y="30"/>
      <point x="620" y="30" type="curve" smooth="yes"/>
      <point x="592" y="30"/>
      <point x="579" y="56"/>
      <point x="579" y="124" type="curve" smooth="yes"/>
      <point x="579" y="380" type="line" smooth="yes"/>
      <point x="579" y="477"/>
      <point x="565" y="510"/>
      <point x="469" y="510" type="curve" smooth="yes"/>
      <point x="320" y="510"/>
      <point x="66" y="414"/>
      <point x="66" y="295" type="curve" smooth="yes"/>
      <point x="66" y="279"/>
      <point x="78" y="263"/>
      <point x="99" y="263" type="curve" smooth="yes"/>
      <point x="122" y="263"/>
      <point x="135" y="281"/>
      <point x="135" y="312" type="curve" smooth="yes"/>
      <point x="135" y="411"/>
      <point x="264" y="480"/>
      <point x="418" y="480" type="curve" smooth="yes"/>
      <point x="510" y="480"/>
      <point x="521" y="455"/>
    </contour>
    <contour>
      <point x="125" y="95" type="curve" smooth="yes"/>
      <point x="125" y="159"/>
      <point x="241" y="199"/>
      <point x="510" y="196" type="curve" smooth="yes"/>
      <point x="516" y="196"/>
      <point x="521" y="194"/>
      <point x="521" y="182" type="curve" smooth="yes"/>
      <point x="521" y="162" type="line" smooth="yes"/>
      <point x="521" y="61"/>
      <point x="450" y="18"/>
      <point x="308" y="18" type="curve" smooth="yes"/>
      <point x="190" y="18"/>
      <point x="125" y="47"/>
    </contour>
  </outline>
</glyph>
<glyph name="c" format="2">
  <advance width="598"/>
  <unicode hex="0063"/>
  <anchor x="306" y="0" name="bottom"/>
  <anchor x="329" y="500" name="top"/>
  <outline>
    <contour>
      <point x="562" y="206" type="curve" smooth="yes"/>
      <point x="552" y="206"/>
      <point x="550" y="200"/>
      <point x="549" y="186" type="curve" smooth="yes"/>
      <point x="543" y="92"/>
      <point x="464" y="35"/>
      <point x="344" y="35" type="curve" smooth="yes"/>
      <point x="201" y="35"/>
      <point x="108" y="123"/>
      <point x="103" y="265" type="curve" smooth="yes"/>
      <point x="98" y="409"/>
      <point x="181" y="498"/>
      <point x="317" y="498" type="curve" smooth="yes"/>
      <point x="484" y="498"/>
      <point x="539" y="452"/>
      <point x="539" y="310" type="curve" smooth="yes"/>
      <point x="539" y="301"/>
      <point x="544" y="299"/>
      <point x="551" y="299" type="curve" smooth="yes"/>
      <point x="558" y="299"/>
      <point x="561" y="301"/>
      <point x="561" y="310" type="curve" smooth="yes"/>
      <point x="561" y="327"/>
      <point x="551" y="348"/>
      <point x="551" y="416" type="curve" smooth="yes"/>
      <point x="551" y="476"/>
      <point x="556" y="487"/>
      <point x="556" y="498" type="curve" smooth="yes"/>
      <point x="556" y="507"/>
      <point x="552" y="510"/>
      <point x="545" y="510" type="curve" smooth="yes"/>
      <point x="531" y="510"/>
      <point x="538" y="493"/>
      <point x="511" y="493" type="curve" smooth="yes"/>
      <point x="462" y="493"/>
      <point x="407" y="510"/>
      <point x="331" y="510" type="curve" smooth="yes"/>
      <point x="154" y="510"/>
      <point x="33" y="393"/>
      <point x="37" y="230" type="curve" smooth="yes"/>
      <point x="40" y="90"/>
      <point x="156" y="-10"/>
      <point x="319" y="-10" type="curve" smooth="yes"/>
      <point x="468" y="-10"/>
      <point x="551" y="55"/>
      <point x="569" y="184" type="curve" smooth="yes"/>
      <point x="571" y="200"/>
      <point x="573" y="206"/>
    </contour>
  </outline>
</glyph>
<glyph name="e" format="2">
  <advance width="636"/>
  <unicode hex="0065"/>
  <anchor x="319" y="0" name="bottom"/>
  <anchor x="463" y="10" name="ogonek"/>
  <anchor x="319" y="500" name="top"/>
  <outline>
    <contour>
      <point x="158" y="289" type="curve" smooth="yes"/>
      <point x="563" y="287" type="line" smooth="yes"/>
      <point x="596" y="287"/>
      <point x="603" y="291"/>
      <point x="598" y="329" type="curve" smooth="yes"/>
      <point x="587" y="434"/>
      <point x="476" y="510"/>
      <point x="329" y="510" type="curve" smooth="yes"/>
      <point x="153" y="510"/>
      <point x="33" y="398"/>
      <point x="37" y="240" type="curve" smooth="yes"/>
      <point x="41" y="87"/>
      <point x="154" y="-10"/>
      <point x="330" y="-10" type="curve" smooth="yes"/>
      <point x="483" y="-10"/>
      <point x="578" y="59"/>
      <point x="593" y="181" type="curve" smooth="yes"/>
      <point x="594" y="193"/>
      <point x="598" y="206"/>
      <point x="585" y="206" type="curve" smooth="yes"/>
      <point x="577" y="206"/>
      <point x="574" y="203"/>
      <point x="573" y="184" type="curve" smooth="yes"/>
      <point x="566" y="93"/>
      <point x="481" y="35"/>
      <point x="354" y="35" type="curve" smooth="yes"/>
      <point x="208" y="35"/>
      <point x="112" y="117"/>
      <point x="104" y="249" type="curve" smooth="yes"/>
      <point x="102" y="284"/>
      <point x="100" y="289"/>
    </contour>
    <contour>
      <point x="111" y="348" type="curve" smooth="yes"/>
      <point x="128" y="441"/>
      <point x="210" y="498"/>
      <point x="323" y="498" type="curve" smooth="yes"/>
      <point x="442" y="498"/>
      <point x="521" y="440"/>
      <point x="528" y="345" type="curve" smooth="yes"/>
      <point x="531" y="311"/>
      <point x="528" y="309"/>
      <point x="461" y="308" type="curve" smooth="yes"/>
      <point x="158" y="305" type="line" smooth="yes"/>
      <point x="105" y="304"/>
      <point x="106" y="320"/>
    </contour>
  </outline>
</glyph>
<glyph name="f" format="2">
  <advance width="443"/>
  <unicode hex="0066"/>
  <anchor x="176" y="0" name="bottom"/>
  <anchor x="176" y="758" name="top"/>
  <outline>
    <component base="_stem.short" xOffset="61" identifier="EEC36E7D"/>
    <contour>
      <point x="137" y="90" type="line"/>
      <point x="137" y="111" type="line"/>
      <point x="138" y="7"/>
      <point x="115" y="13"/>
      <point x="48" y="13" type="curve"/>
      <point x="43" y="13"/>
      <point x="40" y="11"/>
      <point x="40" y="5" type="curve"/>
      <point x="40" y="-2"/>
      <point x="43" y="-4"/>
      <point x="49" y="-4" type="curve"/>
      <point x="110" y="-4"/>
      <point x="134" y="0"/>
      <point x="154" y="0" type="curve"/>
      <point x="170" y="0" type="line"/>
      <point x="198" y="0"/>
      <point x="235" y="-5"/>
      <point x="387" y="-7" type="curve"/>
      <point x="396" y="-7"/>
      <point x="400" y="-5"/>
      <point x="400" y="2" type="curve"/>
      <point x="400" y="8"/>
      <point x="396" y="10"/>
      <point x="389" y="10" type="curve"/>
      <point x="228" y="13"/>
      <point x="193" y="6"/>
      <point x="195" y="111" type="curve"/>
      <point x="195" y="90" type="line"/>
    </contour>
    <contour>
      <point x="137" y="447" type="curve" smooth="yes"/>
      <point x="137" y="347" type="line"/>
      <point x="195" y="347" type="line"/>
      <point x="195" y="444" type="line" smooth="yes"/>
      <point x="195" y="482"/>
      <point x="221" y="473"/>
      <point x="348" y="473" type="curve" smooth="yes"/>
      <point x="361" y="473"/>
      <point x="369" y="475"/>
      <point x="369" y="484" type="curve" smooth="yes"/>
      <point x="369" y="492"/>
      <point x="362" y="494"/>
      <point x="348" y="494" type="curve" smooth="yes"/>
      <point x="213" y="494"/>
      <point x="194" y="485"/>
      <point x="194" y="522" type="curve" smooth="yes"/>
      <point x="194" y="546"/>
      <point x="194" y="568"/>
      <point x="194" y="579" type="curve" smooth="yes"/>
      <point x="194" y="654"/>
      <point x="222" y="677"/>
      <point x="270" y="677" type="curve" smooth="yes"/>
      <point x="330" y="677"/>
      <point x="367" y="649"/>
      <point x="405" y="649" type="curve" smooth="yes"/>
      <point x="429" y="649"/>
      <point x="441" y="658"/>
      <point x="441" y="675" type="curve" smooth="yes"/>
      <point x="441" y="699"/>
      <point x="412" y="711"/>
      <point x="361" y="711" type="curve" smooth="yes"/>
      <point x="226" y="711"/>
      <point x="137" y="642"/>
      <point x="137" y="540" type="curve" smooth="yes"/>
      <point x="137" y="529" type="line" smooth="yes"/>
      <point x="137" y="504"/>
      <point x="128" y="499"/>
      <point x="102" y="496" type="curve" smooth="yes"/>
      <point x="74" y="493"/>
      <point x="47" y="496"/>
      <point x="47" y="482" type="curve" smooth="yes"/>
      <point x="47" y="474"/>
      <point x="54" y="474"/>
      <point x="70" y="474" type="curve" smooth="yes"/>
      <point x="102" y="474"/>
      <point x="137" y="483"/>
    </contour>
  </outline>
</glyph>
<glyph name="g" format="2">
  <advance width="723"/>
  <unicode hex="0067"/>
  <anchor x="354" y="500" name="top"/>
  <outline>
    <contour>
      <point x="316" y="139" type="curve" smooth="yes"/>
      <point x="474" y="139"/>
      <point x="581" y="220"/>
      <point x="581" y="333" type="curve" smooth="yes"/>
      <point x="581" y="366"/>
      <point x="565" y="395"/>
      <point x="553" y="414" type="curve" smooth="yes"/>
      <point x="549" y="420"/>
      <point x="544" y="428"/>
      <point x="543" y="435" type="curve" smooth="yes"/>
      <point x="539" y="460"/>
      <point x="560" y="475"/>
      <point x="594" y="475" type="curve" smooth="yes"/>
      <point x="613" y="475"/>
      <point x="628" y="462"/>
      <point x="635" y="442" type="curve" smooth="yes"/>
      <point x="641" y="427"/>
      <point x="655" y="417"/>
      <point x="675" y="417" type="curve" smooth="yes"/>
      <point x="698" y="417"/>
      <point x="711" y="432"/>
      <point x="711" y="451" type="curve" smooth="yes"/>
      <point x="711" y="483"/>
      <point x="675" y="510"/>
      <point x="628" y="510" type="curve" smooth="yes"/>
      <point x="594" y="510"/>
      <point x="561" y="495"/>
      <point x="536" y="474" type="curve" smooth="yes"/>
      <point x="519" y="459"/>
      <point x="507" y="456"/>
      <point x="490" y="468" type="curve" smooth="yes"/>
      <point x="446" y="496"/>
      <point x="385" y="510"/>
      <point x="314" y="510" type="curve" smooth="yes"/>
      <point x="154" y="510"/>
      <point x="45" y="430"/>
      <point x="45" y="316" type="curve" smooth="yes"/>
      <point x="45" y="243"/>
      <point x="111" y="183"/>
      <point x="207" y="151" type="curve" smooth="yes"/>
      <point x="213" y="149"/>
      <point x="215" y="149"/>
      <point x="215" y="145" type="curve" smooth="yes"/>
      <point x="215" y="141"/>
      <point x="213" y="138"/>
      <point x="210" y="136" type="curve" smooth="yes"/>
      <point x="199" y="127"/>
      <point x="190" y="121"/>
      <point x="161" y="109" type="curve" smooth="yes"/>
      <point x="122" y="92"/>
      <point x="106" y="88"/>
      <point x="74" y="76" type="curve" smooth="yes"/>
      <point x="65" y="73"/>
      <point x="61" y="69"/>
      <point x="61" y="66" type="curve" smooth="yes"/>
      <point x="61" y="59"/>
      <point x="71" y="58"/>
      <point x="82" y="62" type="curve" smooth="yes"/>
      <point x="107" y="71"/>
      <point x="125" y="75"/>
      <point x="141" y="74" type="curve" smooth="yes"/>
      <point x="162" y="72"/>
      <point x="173" y="61"/>
      <point x="173" y="38" type="curve" smooth="yes"/>
      <point x="173" y="18"/>
      <point x="-1" y="-9"/>
      <point x="-1" y="-79" type="curve" smooth="yes"/>
      <point x="-1" y="-151"/>
      <point x="113" y="-201"/>
      <point x="284" y="-201" type="curve" smooth="yes"/>
      <point x="519" y="-201"/>
      <point x="651" y="-144"/>
      <point x="649" y="-45" type="curve" smooth="yes"/>
      <point x="647" y="34"/>
      <point x="565" y="65"/>
      <point x="320" y="65" type="curve" smooth="yes"/>
      <point x="226" y="65"/>
      <point x="205" y="68"/>
      <point x="205" y="88" type="curve" smooth="yes"/>
      <point x="205" y="102"/>
      <point x="215" y="116"/>
      <point x="229" y="122" type="curve" smooth="yes"/>
      <point x="251" y="134"/>
      <point x="278" y="139"/>
    </contour>
    <contour>
      <point x="65" y="-64" type="curve" smooth="yes"/>
      <point x="65" y="-10"/>
      <point x="144" y="11"/>
      <point x="318" y="11" type="curve" smooth="yes"/>
      <point x="523" y="11"/>
      <point x="591" y="-8"/>
      <point x="591" y="-62" type="curve" smooth="yes"/>
      <point x="591" y="-141"/>
      <point x="497" y="-184"/>
      <point x="324" y="-184" type="curve" smooth="yes"/>
      <point x="157" y="-184"/>
      <point x="65" y="-140"/>
    </contour>
    <contour>
      <point x="110" y="338" type="curve" smooth="yes"/>
      <point x="110" y="435"/>
      <point x="184" y="497"/>
      <point x="296" y="497" type="curve" smooth="yes"/>
      <point x="428" y="497"/>
      <point x="516" y="419"/>
      <point x="516" y="299" type="curve" smooth="yes"/>
      <point x="516" y="211"/>
      <point x="445" y="155"/>
      <point x="338" y="155" type="curve" smooth="yes"/>
      <point x="201" y="155"/>
      <point x="110" y="227"/>
    </contour>
  </outline>
</glyph>
<glyph name="j" format="2">
  <advance width="259"/>
  <unicode hex="006A"/>
  <outline>
    <contour>
      <point x="-1" y="-197" type="curve" smooth="yes"/>
      <point x="121" y="-197"/>
      <point x="177" y="-138"/>
      <point x="177" y="-10" type="curve" smooth="yes"/>
      <point x="177" y="50"/>
      <point x="176" y="128"/>
      <point x="176" y="214" type="curve" smooth="yes"/>
      <point x="176" y="452"/>
      <point x="186" y="488"/>
      <point x="186" y="497" type="curve" smooth="yes"/>
      <point x="186" y="504"/>
      <point x="180" y="506"/>
      <point x="175" y="506" type="curve" smooth="yes"/>
      <point x="160" y="506"/>
      <point x="160" y="486"/>
      <point x="103" y="464" type="curve" smooth="yes"/>
      <point x="51" y="444"/>
      <point x="22" y="448"/>
      <point x="22" y="437" type="curve" smooth="yes"/>
      <point x="22" y="431"/>
      <point x="27" y="429"/>
      <point x="34" y="429" type="curve" smooth="yes"/>
      <point x="111" y="429"/>
      <point x="117" y="432"/>
      <point x="117" y="392" type="curve" smooth="yes"/>
      <point x="117" y="375"/>
      <point x="119" y="236"/>
      <point x="118" y="168" type="curve" smooth="yes"/>
      <point x="117" y="100"/>
      <point x="119" y="37"/>
      <point x="119" y="-13" type="curve" smooth="yes"/>
      <point x="119" y="-117"/>
      <point x="84" y="-174"/>
      <point x="2" y="-174" type="curve" smooth="yes"/>
      <point x="-65" y="-174"/>
      <point x="-83" y="-98"/>
      <point x="-125" y="-98" type="curve" smooth="yes"/>
      <point x="-144" y="-98"/>
      <point x="-155" y="-111"/>
      <point x="-155" y="-128" type="curve" smooth="yes"/>
      <point x="-155" y="-167"/>
      <point x="-76" y="-197"/>
    </contour>
    <component base="uni0307" xOffset="44"/>
  </outline>
</glyph>
<glyph name="k" format="2">
  <advance width="766"/>
  <unicode hex="006B"/>
  <anchor x="361" y="0" name="bottom"/>
  <anchor x="361" y="758" name="top"/>
  <outline>
    <contour>
      <point x="112" y="597" type="curve" smooth="yes"/>
      <point x="112" y="80" type="line"/>
      <point x="170" y="80" type="line"/>
      <point x="170" y="139" type="line" smooth="yes"/>
      <point x="170" y="180"/>
      <point x="169" y="193"/>
      <point x="193" y="208" type="curve" smooth="yes"/>
      <point x="315" y="286" type="line" smooth="yes"/>
      <point x="331" y="297"/>
      <point x="331" y="297"/>
      <point x="349" y="278" type="curve" smooth="yes"/>
      <point x="409" y="213"/>
      <point x="470" y="147"/>
      <point x="531" y="81" type="curve"/>
      <point x="605" y="6"/>
      <point x="585" y="13"/>
      <point x="470" y="13" type="curve"/>
      <point x="465" y="13"/>
      <point x="462" y="11"/>
      <point x="462" y="5" type="curve"/>
      <point x="462" y="-2"/>
      <point x="465" y="-4"/>
      <point x="471" y="-4" type="curve"/>
      <point x="580" y="-4"/>
      <point x="606" y="0"/>
      <point x="626" y="0" type="curve"/>
      <point x="662" y="0" type="line"/>
      <point x="682" y="0"/>
      <point x="706" y="-4"/>
      <point x="767" y="-4" type="curve"/>
      <point x="773" y="-4"/>
      <point x="776" y="-2"/>
      <point x="776" y="5" type="curve"/>
      <point x="776" y="11"/>
      <point x="773" y="13"/>
      <point x="768" y="13" type="curve"/>
      <point x="701" y="13"/>
      <point x="674" y="3"/>
      <point x="605" y="81" type="curve"/>
      <point x="534" y="157"/>
      <point x="463" y="233"/>
      <point x="391" y="310" type="curve" smooth="yes"/>
      <point x="384" y="317"/>
      <point x="385" y="325"/>
      <point x="391" y="329" type="curve" smooth="yes"/>
      <point x="451" y="368"/>
      <point x="509" y="407"/>
      <point x="574" y="446" type="curve"/>
      <point x="663" y="499"/>
      <point x="691" y="487"/>
      <point x="758" y="487" type="curve"/>
      <point x="763" y="487"/>
      <point x="766" y="489"/>
      <point x="766" y="495" type="curve"/>
      <point x="766" y="502"/>
      <point x="763" y="504"/>
      <point x="757" y="504" type="curve"/>
      <point x="696" y="504"/>
      <point x="672" y="500"/>
      <point x="652" y="500" type="curve"/>
      <point x="587" y="500" type="line"/>
      <point x="567" y="500"/>
      <point x="541" y="504"/>
      <point x="432" y="504" type="curve"/>
      <point x="426" y="504"/>
      <point x="423" y="502"/>
      <point x="423" y="495" type="curve"/>
      <point x="423" y="489"/>
      <point x="426" y="487"/>
      <point x="431" y="487" type="curve"/>
      <point x="546" y="487"/>
      <point x="565" y="494"/>
      <point x="480" y="432" type="curve"/>
      <point x="387" y="362"/>
      <point x="285" y="293"/>
      <point x="184" y="223" type="curve" smooth="yes"/>
      <point x="169" y="213"/>
      <point x="167" y="214"/>
      <point x="167" y="229" type="curve" smooth="yes"/>
      <point x="168" y="447" type="line" smooth="yes"/>
      <point x="169" y="645"/>
      <point x="172" y="690"/>
      <point x="172" y="702" type="curve" smooth="yes"/>
      <point x="172" y="709"/>
      <point x="166" y="711"/>
      <point x="161" y="711" type="curve" smooth="yes"/>
      <point x="149" y="711"/>
      <point x="147" y="699"/>
      <point x="118" y="679" type="curve" smooth="yes"/>
      <point x="82" y="653"/>
      <point x="62" y="658"/>
      <point x="62" y="646" type="curve" smooth="yes"/>
      <point x="62" y="640"/>
      <point x="68" y="638"/>
      <point x="73" y="638" type="curve" smooth="yes"/>
      <point x="101" y="638"/>
      <point x="112" y="628"/>
    </contour>
    <component base="_stem.foot" xOffset="46"/>
  </outline>
</glyph>
<glyph name="l" format="2">
  <advance width="342"/>
  <unicode hex="006C"/>
  <anchor x="186" y="0" name="bottom"/>
  <anchor x="290" y="400" name="center"/>
  <anchor x="186" y="758" name="top"/>
  <anchor x="352" y="758" name="topright"/>
  <outline>
    <contour>
      <point x="132" y="455" type="curve" smooth="yes"/>
      <point x="132" y="339" type="line"/>
      <point x="190" y="339" type="line"/>
      <point x="190" y="455" type="line" smooth="yes"/>
      <point x="190" y="656"/>
      <point x="200" y="693"/>
      <point x="200" y="702" type="curve" smooth="yes"/>
      <point x="200" y="709"/>
      <point x="194" y="711"/>
      <point x="189" y="711" type="curve" smooth="yes"/>
      <point x="174" y="711"/>
      <point x="174" y="691"/>
      <point x="117" y="669" type="curve" smooth="yes"/>
      <point x="65" y="648"/>
      <point x="36" y="653"/>
      <point x="36" y="641" type="curve" smooth="yes"/>
      <point x="36" y="637"/>
      <point x="41" y="634"/>
      <point x="48" y="634" type="curve" smooth="yes"/>
      <point x="125" y="634"/>
      <point x="132" y="637"/>
      <point x="132" y="597" type="curve" smooth="yes"/>
      <point x="132" y="584"/>
      <point x="132" y="558"/>
    </contour>
    <component base="_stem.short" xOffset="56"/>
    <component base="_stem.foot" xOffset="66"/>
  </outline>
</glyph>
<glyph name="m" format="2">
  <advance width="1271"/>
  <unicode hex="006D"/>
  <anchor x="636" y="0" name="bottom"/>
  <anchor x="636" y="500" name="top"/>
  <outline>
    <component base="_stem.short.top" xOffset="60" identifier="9821227B"/>
    <component base="_stem.short" xOffset="61" identifier="047D6A10"/>
    <contour>
      <point x="630" y="0" type="curve"/>
      <point x="650" y="0" type="line"/>
      <point x="669" y="0"/>
      <point x="694" y="-4"/>
      <point x="797" y="-4" type="curve"/>
      <point x="803" y="-4"/>
      <point x="806" y="-2"/>
      <point x="806" y="5" type="curve"/>
      <point x="806" y="11"/>
      <point x="803" y="13"/>
      <point x="798" y="13" type="curve"/>
      <point x="689" y="13"/>
      <point x="665" y="6"/>
      <point x="668" y="111" type="curve"/>
      <point x="668" y="192"/>
      <point x="668" y="259"/>
      <point x="668" y="290" type="curve" smooth="yes"/>
      <point x="668" y="442"/>
      <point x="601" y="510"/>
      <point x="447" y="510" type="curve" smooth="yes"/>
      <point x="328" y="510"/>
      <point x="252" y="463"/>
      <point x="199" y="359" type="curve" smooth="yes"/>
      <point x="195" y="351"/>
      <point x="193" y="348"/>
      <point x="192" y="348" type="curve" smooth="yes"/>
      <point x="163" y="348" type="line"/>
      <point x="163" y="227" type="line"/>
      <point x="195" y="227" type="line"/>
      <point x="195" y="380"/>
      <point x="284" y="474"/>
      <point x="427" y="474" type="curve" smooth="yes"/>
      <point x="560" y="474"/>
      <point x="612" y="420"/>
      <point x="612" y="275" type="curve" smooth="yes"/>
      <point x="612" y="111" type="line"/>
      <point x="615" y="6"/>
      <point x="591" y="13"/>
      <point x="482" y="13" type="curve"/>
      <point x="477" y="13"/>
      <point x="474" y="11"/>
      <point x="474" y="5" type="curve"/>
      <point x="474" y="-2"/>
      <point x="477" y="-4"/>
      <point x="483" y="-4" type="curve"/>
      <point x="586" y="-4"/>
      <point x="611" y="0"/>
    </contour>
    <component base="_stem.foot" xOffset="71"/>
    <component base="_n.side" xScale="0.95" xOffset="550"/>
  </outline>
</glyph>
<glyph name="n" format="2">
  <advance width="828"/>
  <unicode hex="006E"/>
  <anchor x="414" y="0" name="bottom"/>
  <anchor x="414" y="500" name="top"/>
  <outline>
    <contour>
      <point x="137" y="392" type="curve" smooth="yes"/>
      <point x="137" y="90" type="line"/>
      <point x="137" y="111" type="line"/>
      <point x="138" y="7"/>
      <point x="115" y="13"/>
      <point x="48" y="13" type="curve"/>
      <point x="43" y="13"/>
      <point x="40" y="11"/>
      <point x="40" y="5" type="curve"/>
      <point x="40" y="-2"/>
      <point x="43" y="-4"/>
      <point x="49" y="-4" type="curve"/>
      <point x="110" y="-4"/>
      <point x="134" y="0"/>
      <point x="154" y="0" type="curve"/>
      <point x="178" y="0" type="line"/>
      <point x="198" y="0"/>
      <point x="224" y="-4"/>
      <point x="333" y="-5" type="curve"/>
      <point x="339" y="-5"/>
      <point x="342" y="-3"/>
      <point x="342" y="4" type="curve"/>
      <point x="342" y="10"/>
      <point x="339" y="12"/>
      <point x="334" y="12" type="curve"/>
      <point x="219" y="13"/>
      <point x="194" y="6"/>
      <point x="195" y="111" type="curve"/>
      <point x="195" y="90" type="line"/>
      <point x="195" y="227" type="line" smooth="yes"/>
      <point x="195" y="380"/>
      <point x="289" y="474"/>
      <point x="439" y="474" type="curve" smooth="yes"/>
      <point x="580" y="474"/>
      <point x="634" y="420"/>
      <point x="634" y="275" type="curve" smooth="yes"/>
      <point x="634" y="111" type="line"/>
      <point x="637" y="6"/>
      <point x="612" y="13"/>
      <point x="497" y="13" type="curve"/>
      <point x="492" y="13"/>
      <point x="489" y="11"/>
      <point x="489" y="5" type="curve"/>
      <point x="489" y="-2"/>
      <point x="492" y="-4"/>
      <point x="498" y="-4" type="curve"/>
      <point x="607" y="-4"/>
      <point x="633" y="0"/>
      <point x="653" y="0" type="curve"/>
      <point x="674" y="0" type="line"/>
      <point x="694" y="0"/>
      <point x="718" y="-4"/>
      <point x="779" y="-4" type="curve"/>
      <point x="785" y="-4"/>
      <point x="788" y="-2"/>
      <point x="788" y="5" type="curve"/>
      <point x="788" y="11"/>
      <point x="785" y="13"/>
      <point x="780" y="13" type="curve"/>
      <point x="713" y="13"/>
      <point x="690" y="7"/>
      <point x="693" y="111" type="curve"/>
      <point x="693" y="290" type="line" smooth="yes"/>
      <point x="693" y="442"/>
      <point x="622" y="510"/>
      <point x="460" y="510" type="curve" smooth="yes"/>
      <point x="335" y="510"/>
      <point x="247" y="463"/>
      <point x="199" y="359" type="curve" smooth="yes"/>
      <point x="196" y="353"/>
      <point x="195" y="348"/>
      <point x="192" y="348" type="curve" smooth="yes"/>
      <point x="189" y="348"/>
      <point x="189" y="354"/>
      <point x="189" y="360" type="curve" smooth="yes"/>
      <point x="189" y="453"/>
      <point x="205" y="489"/>
      <point x="205" y="497" type="curve" smooth="yes"/>
      <point x="205" y="504"/>
      <point x="199" y="506"/>
      <point x="194" y="506" type="curve" smooth="yes"/>
      <point x="179" y="506"/>
      <point x="179" y="486"/>
      <point x="122" y="464" type="curve" smooth="yes"/>
      <point x="70" y="443"/>
      <point x="41" y="448"/>
      <point x="41" y="436" type="curve" smooth="yes"/>
      <point x="41" y="432"/>
      <point x="46" y="429"/>
      <point x="53" y="429" type="curve" smooth="yes"/>
      <point x="130" y="429"/>
      <point x="137" y="432"/>
    </contour>
  </outline>
</glyph>
<glyph name="o" format="2">
  <advance width="705"/>
  <unicode hex="006F"/>
  <anchor x="353" y="0" name="bottom"/>
  <anchor x="353" y="250" name="center"/>
  <anchor x="619" y="10" name="ogonek"/>
  <anchor x="353" y="500" name="top"/>
  <anchor x="665" y="500" name="topright"/>
  <outline>
    <contour>
      <point x="356" y="-10" type="curve" smooth="yes"/>
      <point x="536" y="-10"/>
      <point x="673" y="108"/>
      <point x="668" y="257" type="curve" smooth="yes"/>
      <point x="663" y="408"/>
      <point x="536" y="510"/>
      <point x="349" y="510" type="curve" smooth="yes"/>
      <point x="170" y="510"/>
      <point x="33" y="392"/>
      <point x="37" y="243" type="curve" smooth="yes"/>
      <point x="40" y="92"/>
      <point x="167" y="-10"/>
    </contour>
    <contour>
      <point x="103" y="267" type="curve" smooth="yes"/>
      <point x="98" y="407"/>
      <point x="192" y="498"/>
      <point x="338" y="498" type="curve" smooth="yes"/>
      <point x="491" y="498"/>
      <point x="597" y="393"/>
      <point x="602" y="232" type="curve" smooth="yes"/>
      <point x="606" y="94"/>
      <point x="513" y="5"/>
      <point x="370" y="5" type="curve" smooth="yes"/>
      <point x="215" y="5"/>
      <point x="108" y="108"/>
    </contour>
  </outline>
</glyph>
<glyph name="p" format="2">
  <advance width="745"/>
  <unicode hex="0070"/>
  <anchor x="373" y="0" name="bottom"/>
  <anchor x="373" y="500" name="top"/>
  <outline>
    <contour>
      <point x="708" y="256" type="curve" smooth="yes"/>
      <point x="708" y="407"/>
      <point x="593" y="510"/>
      <point x="430" y="510" type="curve" smooth="yes"/>
      <point x="327" y="510"/>
      <point x="244" y="468"/>
      <point x="196" y="395" type="curve" smooth="yes"/>
      <point x="187" y="381"/>
      <point x="186" y="379"/>
      <point x="182" y="379" type="curve" smooth="yes"/>
      <point x="178" y="379"/>
      <point x="178" y="386"/>
      <point x="178" y="396" type="curve" smooth="yes"/>
      <point x="178" y="425"/>
      <point x="191" y="503"/>
      <point x="149" y="500" type="curve" smooth="yes"/>
      <point x="141" y="499" type="line"/>
      <point x="121" y="498"/>
      <point x="97" y="500"/>
      <point x="36" y="496" type="curve"/>
      <point x="30" y="495"/>
      <point x="27" y="493"/>
      <point x="28" y="486" type="curve"/>
      <point x="28" y="480"/>
      <point x="31" y="478"/>
      <point x="36" y="479" type="curve"/>
      <point x="103" y="484"/>
      <point x="125" y="491"/>
      <point x="123" y="387" type="curve"/>
      <point x="124" y="336"/>
      <point x="125" y="284"/>
      <point x="125" y="214" type="curve" smooth="yes"/>
      <point x="125" y="0" type="line"/>
      <point x="177" y="0" type="line"/>
      <point x="177" y="113" type="line" smooth="yes"/>
      <point x="177" y="117"/>
      <point x="177" y="121"/>
      <point x="180" y="121" type="curve" smooth="yes"/>
      <point x="182" y="121"/>
      <point x="184" y="118"/>
      <point x="192" y="103" type="curve" smooth="yes"/>
      <point x="232" y="32"/>
      <point x="316" y="-10"/>
      <point x="422" y="-10" type="curve" smooth="yes"/>
      <point x="590" y="-10"/>
      <point x="708" y="104"/>
    </contour>
    <contour>
      <point x="643" y="235" type="curve" smooth="yes"/>
      <point x="643" y="85"/>
      <point x="564" y="2"/>
      <point x="424" y="2" type="curve" smooth="yes"/>
      <point x="276" y="2"/>
      <point x="183" y="98"/>
      <point x="183" y="254" type="curve" smooth="yes"/>
      <point x="183" y="268" type="line" smooth="yes"/>
      <point x="183" y="393"/>
      <point x="276" y="476"/>
      <point x="416" y="476" type="curve" smooth="yes"/>
      <point x="555" y="476"/>
      <point x="643" y="383"/>
    </contour>
    <contour>
      <point x="125" y="49" type="line"/>
      <point x="125" y="28"/>
      <point x="125" y="-26"/>
      <point x="124" y="-85" type="curve"/>
      <point x="123" y="-189"/>
      <point x="100" y="-183"/>
      <point x="33" y="-183" type="curve"/>
      <point x="28" y="-183"/>
      <point x="25" y="-185"/>
      <point x="25" y="-191" type="curve"/>
      <point x="25" y="-198"/>
      <point x="28" y="-200"/>
      <point x="34" y="-200" type="curve"/>
      <point x="95" y="-200"/>
      <point x="119" y="-196"/>
      <point x="139" y="-196" type="curve"/>
      <point x="154" y="-196" type="line"/>
      <point x="186" y="-196"/>
      <point x="224" y="-200"/>
      <point x="322" y="-200" type="curve"/>
      <point x="331" y="-200"/>
      <point x="336" y="-198"/>
      <point x="336" y="-191" type="curve"/>
      <point x="336" y="-185"/>
      <point x="331" y="-183"/>
      <point x="323" y="-183" type="curve"/>
      <point x="216" y="-183"/>
      <point x="179" y="-189"/>
      <point x="179" y="-85" type="curve"/>
      <point x="178" y="-52"/>
      <point x="177" y="-21"/>
      <point x="177" y="0" type="curve" smooth="yes"/>
      <point x="177" y="49" type="line"/>
    </contour>
  </outline>
</glyph>
<glyph name="q" format="2">
  <advance width="740"/>
  <unicode hex="0071"/>
  <anchor x="520" y="0" name="bottom"/>
  <anchor x="520" y="500" name="top"/>
  <outline>
    <component base="_b.bowl" xScale="-1" yScale="-1" xOffset="686" yOffset="500" identifier="D5C940B9"/>
    <contour>
      <point x="620" y="49" type="curve"/>
      <point x="568" y="49" type="line"/>
      <point x="568" y="0" type="line" smooth="yes"/>
      <point x="568" y="-21"/>
      <point x="568" y="-52"/>
      <point x="567" y="-85" type="curve"/>
      <point x="568" y="-189"/>
      <point x="531" y="-183"/>
      <point x="424" y="-183" type="curve"/>
      <point x="416" y="-183"/>
      <point x="411" y="-185"/>
      <point x="411" y="-191" type="curve"/>
      <point x="411" y="-198"/>
      <point x="416" y="-200"/>
      <point x="425" y="-200" type="curve"/>
      <point x="523" y="-200"/>
      <point x="561" y="-196"/>
      <point x="593" y="-196" type="curve"/>
      <point x="606" y="-196" type="line"/>
      <point x="626" y="-196"/>
      <point x="650" y="-200"/>
      <point x="711" y="-200" type="curve"/>
      <point x="717" y="-200"/>
      <point x="720" y="-198"/>
      <point x="720" y="-191" type="curve"/>
      <point x="720" y="-185"/>
      <point x="717" y="-183"/>
      <point x="712" y="-183" type="curve"/>
      <point x="645" y="-183"/>
      <point x="622" y="-189"/>
      <point x="621" y="-85" type="curve"/>
      <point x="620" y="-26"/>
      <point x="620" y="28"/>
    </contour>
  </outline>
</glyph>
<glyph name="r" format="2">
  <advance width="512"/>
  <unicode hex="0072"/>
  <anchor x="216" y="0" name="bottom"/>
  <anchor x="255" y="500" name="top"/>
  <outline>
    <contour>
      <point x="139" y="392" type="curve" smooth="yes"/>
      <point x="139" y="120" type="line"/>
      <point x="139" y="111" type="line"/>
      <point x="138" y="7"/>
      <point x="115" y="13"/>
      <point x="48" y="13" type="curve"/>
      <point x="43" y="13"/>
      <point x="40" y="11"/>
      <point x="40" y="5" type="curve"/>
      <point x="40" y="-2"/>
      <point x="43" y="-4"/>
      <point x="49" y="-4" type="curve"/>
      <point x="110" y="-4"/>
      <point x="134" y="0"/>
      <point x="154" y="0" type="curve"/>
      <point x="174" y="0" type="line"/>
      <point x="202" y="0"/>
      <point x="239" y="-4"/>
      <point x="391" y="-4" type="curve"/>
      <point x="400" y="-4"/>
      <point x="404" y="-2"/>
      <point x="404" y="5" type="curve"/>
      <point x="404" y="11"/>
      <point x="400" y="13"/>
      <point x="393" y="13" type="curve"/>
      <point x="232" y="13"/>
      <point x="197" y="6"/>
      <point x="197" y="111" type="curve"/>
      <point x="197" y="120" type="line"/>
      <point x="197" y="208" type="line" smooth="yes"/>
      <point x="197" y="369"/>
      <point x="261" y="450"/>
      <point x="380" y="450" type="curve" smooth="yes"/>
      <point x="415" y="450"/>
      <point x="422" y="445"/>
      <point x="440" y="445" type="curve" smooth="yes"/>
      <point x="459" y="445"/>
      <point x="472" y="459"/>
      <point x="472" y="477" type="curve" smooth="yes"/>
      <point x="472" y="497"/>
      <point x="456" y="510"/>
      <point x="433" y="510" type="curve" smooth="yes"/>
      <point x="337" y="510"/>
      <point x="254" y="458"/>
      <point x="205" y="367" type="curve" smooth="yes"/>
      <point x="201" y="359"/>
      <point x="197" y="348"/>
      <point x="194" y="348" type="curve" smooth="yes"/>
      <point x="192" y="348"/>
      <point x="191" y="351"/>
      <point x="191" y="360" type="curve" smooth="yes"/>
      <point x="191" y="453"/>
      <point x="207" y="489"/>
      <point x="207" y="497" type="curve" smooth="yes"/>
      <point x="207" y="504"/>
      <point x="201" y="506"/>
      <point x="196" y="506" type="curve" smooth="yes"/>
      <point x="181" y="506"/>
      <point x="181" y="486"/>
      <point x="124" y="464" type="curve" smooth="yes"/>
      <point x="72" y="443"/>
      <point x="43" y="448"/>
      <point x="43" y="436" type="curve" smooth="yes"/>
      <point x="43" y="432"/>
      <point x="48" y="429"/>
      <point x="55" y="429" type="curve" smooth="yes"/>
      <point x="132" y="429"/>
      <point x="139" y="432"/>
    </contour>
  </outline>
</glyph>
<glyph name="t" format="2">
  <advance width="397"/>
  <unicode hex="0074"/>
  <guideline x="63" y="455" angle="90"/>
  <anchor x="194" y="0" name="bottom"/>
  <anchor x="194" y="250" name="center"/>
  <anchor x="194" y="500" name="top"/>
  <anchor x="384" y="758" name="topright"/>
  <outline>
    <component base="_stem.short" xOffset="34" yOffset="40" identifier="C9822457"/>
    <contour>
      <point x="168" y="168" type="curve"/>
      <point x="110" y="129" type="line"/>
      <point x="110" y="33"/>
      <point x="151" y="-10"/>
      <point x="244" y="-10" type="curve" smooth="yes"/>
      <point x="308" y="-10"/>
      <point x="343" y="28"/>
      <point x="356" y="113" type="curve" smooth="yes"/>
      <point x="358" y="130"/>
      <point x="360" y="136"/>
      <point x="349" y="136" type="curve" smooth="yes"/>
      <point x="339" y="136"/>
      <point x="337" y="130"/>
      <point x="336" y="118" type="curve" smooth="yes"/>
      <point x="328" y="53"/>
      <point x="305" y="30"/>
      <point x="251" y="30" type="curve" smooth="yes"/>
      <point x="189" y="30"/>
      <point x="168" y="64"/>
    </contour>
    <contour>
      <point x="110" y="429" type="curve" smooth="yes"/>
      <point x="110" y="324"/>
      <point x="110" y="349"/>
      <point x="110" y="339" type="curve"/>
      <point x="168" y="339" type="line"/>
      <point x="168" y="431" type="line" smooth="yes"/>
      <point x="168" y="482"/>
      <point x="182" y="471"/>
      <point x="351" y="471" type="curve" smooth="yes"/>
      <point x="361" y="471"/>
      <point x="367" y="475"/>
      <point x="367" y="481" type="curve" smooth="yes"/>
      <point x="367" y="487"/>
      <point x="362" y="491"/>
      <point x="353" y="491" type="curve" smooth="yes"/>
      <point x="175" y="491"/>
      <point x="167" y="480"/>
      <point x="167" y="517" type="curve" smooth="yes"/>
      <point x="167" y="544"/>
      <point x="177" y="576"/>
      <point x="184" y="613" type="curve" smooth="yes"/>
      <point x="185" y="622"/>
      <point x="185" y="626"/>
      <point x="178" y="627" type="curve" smooth="yes"/>
      <point x="171" y="628"/>
      <point x="166" y="625"/>
      <point x="163" y="619" type="curve" smooth="yes"/>
      <point x="134" y="554"/>
      <point x="113" y="502"/>
      <point x="37" y="486" type="curve" smooth="yes"/>
      <point x="25" y="484"/>
      <point x="20" y="480"/>
      <point x="20" y="475" type="curve" smooth="yes"/>
      <point x="20" y="470"/>
      <point x="25" y="466"/>
      <point x="33" y="466" type="curve" smooth="yes"/>
      <point x="99" y="466"/>
      <point x="110" y="469"/>
    </contour>
  </outline>
</glyph>
